<mxfile host="app.diagrams.net" agent="Mozilla/5.0 (Macintosh; Intel Mac OS X 10_15_7) AppleWebKit/537.36 (KHTML, like Gecko) Chrome/136.0.0.0 Safari/537.36" version="27.1.5">
  <diagram name="第 1 页" id="3Lj46JTjBRr6I3ty7Zjj">
    <mxGraphModel dx="920" dy="434" grid="1" gridSize="10" guides="1" tooltips="1" connect="1" arrows="1" fold="1" page="1" pageScale="1" pageWidth="827" pageHeight="1169" math="0" shadow="0">
      <root>
        <mxCell id="0" />
        <mxCell id="1" parent="0" />
        <mxCell id="fZ_mb3iRuPxJW4_zwdLX-1" value="" style="shape=image;verticalLabelPosition=bottom;labelBackgroundColor=default;verticalAlign=top;aspect=fixed;imageAspect=0;image=data:image/png,iVBORw0KGgoAAAANSUhEUgAABLAAAAHlCAYAAADlWgUsAAAAAXNSR0IArs4c6QAAIABJREFUeF7s3Xd8XNW97v9H0qhLlmy594KxTS+mm95M7yWFkt7rOTnlnvvHff3uqa+bk5yTTkIC6RCKwRAgtBAwPTQbMBjcuyWrWL3M6Pd61vaA8bGx5NHYW5rPvlfHxJ5Zs/Z7bVuaZ77ru/N6e3t7xYEAAggggAACCCCAAAIIIIAAAggggEBMBfIIsGK6MkwLAQQQQAABBBBAAAEEEEAAAQQQQCAIEGBxISCAAAIIIIAAAggggAACCCCAAAIIxFqAACvWy8PkEEAAAQQQQAABBBBAAAEEEEAAAQQIsLgGEEAAAQQQQCA+AqmUlJcXfXEggAACCCCAAAIIILBdgACLSwEBBBBAAAEE9r+A7ynT2ipt3CgVFEijRkllZdF/cyCAAAIIIIAAAgjkvAABVs5fAgAggAACCOS8gKueenokh0iFhdmpgPJrePz8/F1XV3V1SYsWST/+sbRmjXTGGdI110gHHSQVFeX8EgGAAAIIIIAAAgjkugABVq5fAZw/AggggEBuCySTUWB0773Stm3SKadIhxwiVVdLicTA2DicWr1aWrtWGjlSGj9eqqqKwjIfDrb82r/+tfTf/y1t3hwFWF/6kjRvnlRaOjDzYBQEEEAAAQQQQACBQStAgDVol46JI4AAAggg0AcBh0M+dtdTyuHSSy9J/+//SS++KB1+uPSRj0hnnx1t48u0F5Vff9Mm6bbbpAULouDqoouk+fOlCROiLYLpEO0734ke59e94Qbp6qulyZPZRtiHZeYhCCCAAAIIIIDAUBcgwBrqK8z5IYAAAgjkhkA6qPLZ+r+9Za+jQ2ppic5/2LCokmnnQKq9XXriCemf/1l6/nnpwAOlz31OuvJKady4aMtfJoe3Jr72mvTtb0sPPCCNHi19/OPStddKM2ZEVV6eg1/7P/5DWrxYOv986TOfkQ47TCopyeTVeS4CCCCAAAIIIIDAEBEgwBoiC8lpIIAAAgjkqEC6f5VDoObm6Mvb8Zqaoq14boruqidvDTzggPe37aW5/PiFC6V/+zfp3XejLXtf/ap02mlSZWVmFVgO0jz+gw9GAZa3EXpr4Cc+IR1/fBSq+TFbt0p33hn1v/JrfvGL0nnnScOHZ/b6OXpJcNoIIIAAAggggMBQFCDAGoqryjkhgAACCOSGQGdnFAo5eFq/XtqwIfpaty4KrurqoubsRx8tfe1rUTi1Y0WTw6P6eum3v5X+8z+lxsZo+6B7T82Zk3kPLG8NdN+rn/9c+s1vpEmTpC98IdqeOGJEVN3V3S29/bb0ox9Jjz8ebS909ZWrs3a+A+GetkPmxqpzlggggAACCCCAQE4KEGDl5LJz0ggggAACQ0LAAdXvfy/98pfSO+9IDrRckZW+458DIG/Zc2D0+c9LRx75wTv6+XEOvn72s6j6yeHWV74iXXedNGZM5tsHvYXxhRek735Xeuut6K6Crr6aODEKp9IVWo89Jn3/+9GSfOMb0llnfbBxux/nIM7n5//2PNMN4IfEQnISCCCAAAIIIIAAAnsSIMDakxB/jgACCCCAQFwFWlujxugOn9xnyoGUt+D5DoLefucm6e4j5e2ADq923hLoUMjVWw6PHIK56unv/i6qghqI7YMO2O66S7r5ZmnKlCicOuYYqbg4EnWF1qpV0q9+FZ3HhRdG/bfcuN1Blb/cZN5VYitWRF/umXXEEdF2yPQ4cV0f5oUAAggggAACCCAwYAIEWANGyUAIIIAAAgjsYwEHUK++Kv3hD9KyZVJNjTR1avQ1c6Y0fXq0Vc+hz64OVzS9/HJUIeU+WCefLH3rW9JJJ0WVWm747m1+/rW/dyP01sA335R+8hNpyZJoa6K/0n2tHE65wfxTT0VbDN2z6+tfl04/PZppQ0O0DdKhlee4aFF0ju6bdeml0qc/Lc2e3f957eMl4uUQQAABBBBAAAEEBkaAAGtgHBkFAQQQQACBfS+Q3oLnPlP+b1dcuWG7Q6f0nQhd5eTKLIdY3ra3YxDlCq6//CVqsP7009IFF0Qh08iRUW8qVziNHy+NHSuVlb0fZvXlTB1IPfRQVF3lebkx+yGHvB+meV4rV0q/+510773SrFnR63troIOr5culpUuj/lhuRu/5+Lw8J4/jnl5XX515n66+nAuPQQABBBBAAAEEENjvAgRY+30JmAACCCCAAAIZCKQbm6e33DmscmVVbW0UArmCydvwjjoq2npXWhqFW67e8hY/V1794AdRUORteW607uf7robuNeWtf4ceGm3986/p5usfNmXPwdVSt94qvfFGFDR5W6LDNQdofn3fKdFN291/6/nno9DM1VWuvPK8/Po+HFj5NceNi75GjYrm6G2RvpPh7qrLMiDlqQgggAACCCCAAALxEyDAit+aMCMEEEAAAQT6JpBu1u7qJAdCviOhm6X7y+HVmjVRNZOrp1xZdcMNUYDlvlPe3uetfQ6PvA3RoZXDoYoKyZVZDpL8e67acrjkwMjP9/ZCj/dhR3Oz9PDD0u23Rw3bvd3vwAPfD5scqPm1XZ3lHlmeo490uOUgy3dBdKWVt0K6J5ab0XuLpEMwv355+Z7n0TfFDz7K4Vq6am3Hux66+stfPnZskp/+vb15LZ6DAAIIIIAAAggg0GcBAqw+U/FABBBAAAEEYiCQvsugK6g2bYqCqNdfjyqoHEw5DNq6NQqhHAi5Gfu0aVHw5Aomh1uuyvK2PFc6OajymMceG1VKuX/WunXSgw9Gfaf85w61fGdA36HwxBOjyqzdHZ6X74j4i19EVVge083ZHTz5cCjkOx/eeaf0619H2wS9bdBfDr485+OOk268UTrhhOhuiA6s0tsfd+zH1d++XB+2fOmG8Z7bK69E87KjbVwB5iDt4IOj3mA2t4stHLQN5DxicIkxBQQQQAABBBBAII4CBFhxXBXmhAACCCCAwM4CDli8rc59o3zHQVcwOYxylZXDKAcq/nMHPQ6hHP54y6D/25VVripyTyoHRw63HGq5sspVW37+xz4mffWr0fY8h2C/+U3UXN1hlHtYuYLrM5+JthnururIc3To88c/RtVVrppy6DV3bhT8+PBrP/ZYdGfCl16Kxj7jjCjAcjWWA6SLL47uWOjAyOGQQzFXmfncXEHmXwfysI3vdOjA7r77pMWLI8t0tVdHRzQHB1mep708b3u58T1VWAO5GoyFAAIIIIAAAgjsUoAAiwsDAQQQQACBwSDgcMgVUw6HXLnkKqC2tijQ8dY6hzoOj1wdddllUQg0Y0YUUrmPlKubnnxSevbZ6PccbDm8cmjk7YfppuiudnKY49//4Q+j6q6DDpK+8AXpqquiMGxXR/qugt6S6L5Wbg7vkOeKK6T586MKJs/NoZt7Y/nug24O7+qsU06R3Ij+X/81uuPguedGr+W5eI6uLPO2wyOPlM4+O6okG6iqJwdjfm2Hez5nv563O7rizAGatyo6VHNF2p//HPUW83mcd570938f9QUbqLkMhuuQOSKAAAIIIIAAAvtJgABrP8HzsggggAACCPRLwAGRq5ccQv30p9H2PIdCbs7uQMpBk8MjB1PXXy9VV0dVQw5jHPi4SqixMQqrHMq4wujuu6O7ALpR+7e+FTVq9+NczbVggfS970VN2OfNk77+9SjU8XN3PtLVYZ6Dx3MQ5O2NDnocYrl/1nXXSdOnS48+Kj3yiDR8eFR55a2LnquDq3/+5ygk8rZBV4J5+57n0tISPcahnPtwfVgVWH9Q7eNw6oEHpN/+NgqvPB9Xo3nLpV0dDPqOivb48Y+j6jcHhh//eGRiWw4EEEAAAQQQQACBrAsQYGWdmBdAAAEEEEBggAQc6Hj72tNPS1u2RE3OHfS4gui226KwyZVBl18e9cRyFZTDKQdP3jLoSixXC7nqyD2eXAnliixXQXl7oLf8+XAll7ca+u6Ern46//yoQmvHrYA7npKro9w03sGVG7c7CPL2u/TWPFdwuVrp8MOjoMqPd+WSAzj36PL/TgdYf/pTFFw5/PIYDoscEs2eHQVh3rLnKrBMq54cujkce+KJqF/Xc89FlWaf/Wxk6O2C6ddwM3s3pXeg55DQjeldkfbJT+460Bug5WYYBBBAAAEEEEAAgfcFCLC4GhBAAAEEEBhMAg6FXJHkkMfN1V1Rdf/90h/+EIVBn/pU1ATdPbJcqeWG7d52d+ml0qxZUS8qV3I5uPFWRIdZDm0cciUSkYSrp1xJddNNUchz7bVRYOPn79zvyfNwzyxvbfRzHGQ5LDvssKhflwMfP+9//a+oL5fDIAdpnqtfzyGRf893QnQFloMiV1s5nHNFWLqPl6uhHCr5DoXpeWaybg7NvA3zl7+MgjcfrlxzKOUqth3P0/NzsPbf/x01ePfcHOjZdKD7cWVyTjwXAQQQQAABBBAYwgIEWEN4cTk1BBBAAIEhLuAwyyGMK6n++teol9Qll0ShioMjBzNulO7KKveU8tY4hzPupeUKK4dFRx8tffrTUaWWD1cmuTG8m6w74HLA5OoshzveDrhz5ZPDNIdhbtruqi9XMbnv1fjxUVWYtyk68Pmnf5KOPz5qgr7z4TDJW/P+5V+iqrHTT4+CJG+P9FZDh24OlDy39LHj3Qj7u8wex9sp3dfKIZ+btjtw+9u/jcI+B2w7Hj7HhQul738/CuhcCeYm8z6fTCvB+jt3Ho8AAggggAACCOSoAAFWji48p40AAgggMAQEXEnlu+Z5C5wbup94YlSd5BDIYZKrqxywuN/V5MlRUOUgy9sQ3fPJv/rugt4i6C17PhyKudG6w5p77okaraerjRwm7XikH+vwyhVfrpjy9sU5c6LeUq7g8pZCh0P/+39H1VS7C7AcIjnA8pbGj340qgrznB1u+cvn4i/3rfIYnoursfbmcNWYq8NuuSVysI9DN5+ne4btfDjw8+PcnN79sPzYL30p2gLJgQACCCCAAAIIILBPBAiw9gkzL4IAAggggMAACziEcfWVG4s7aPJWP/+eAx6HUW507kDLd/Lz9jdXVbm66BOfiPpauZG677J3443R3QrTW+YcFrkf1H/9V9Qw3uGTG7y76sh3PNzx6OiImq47fHKVlbcuumeVD/flcuDjKiz3vnIFlvte7Wr7n1/TAZgDrGeeiarIHKr5993Xy2HcunVR3y9vmXS12Be/KF199fvBW394Pe4LL0g/+lF090FXqHmLpBvNe5vizoerrux8xx2RgavD7Li7OzL2Zy48FgEEEEAAAQQQQKBPAgRYfWLiQQgggAACCMRIwEFVbW1UFeQqIt+R0MGVwyr3n/JdAy+7LNqC50ooNx9376aLLopCq8ceixq1uxpr/vwPVjI1N0f9rFyB9c47UW8s323PY+0cPnkrnvtD+VdXRXnroiu+/L8dOP3859Lvfx+FYOkAa1c9oxwo+Q6GDrAcKPk80pVjHt/nu+P2Qff+cqP1f/zHaOz+buNz5Zq3DzrAsosrxr75zchn5+2DrjJzqOZA76mnomDQ4Zl9d3VHxhhdJkwFAQQQQAABBBAYSgIEWENpNTkXBBBAAIGhL+BAxaHUvfdGAZaDHx++G6EroM45RzrppGjrn3tHefubQyFvmXOVlLcHeouhe1W5+sqBVjqYckjkhuxubO6+Wt6W6Abun/tcVKW1q6AoHSzt+Gf+vXQFlpvLe+ugm7j79fcUYDk883zcyN2N3l3x5PPw8zxuehuhQ6cvfznqQ7VzY/k9XQWuVvO8vMXR1WhuLv83fxNVme08lntl+bGuwHIVm++C6Nd1vzHPiwMBBBBAAAEEEEBgnwgQYO0TZl4EAQQQQACBARBwgONKq5dfju6I9/jj0RY6N2J343NXXk2fHlUGpYMiBz4OsfzlbXq+U6BDGVdfeQueg650+ORwzIGYK7bcW8t3/vPWOj9uzJi+n0C6EbwbpHvb3dy50j/8QxSWfViA9W//FoVrfrxDuIkTpaqqqCLLz3Mlliuy3FTd5+iqMDeL728FlrciukG9G9X7v884IwqwHADuOJat3Vz+Bz+IqtL8Z668ssnuwri+K/FIBBBAAAEEEEAAgX4IEGD1A4uHIoAAAgggsN8FHA65+bq3wL34YhTyuNeVK5Lc2Nxb+XauhnLg47sUutm6tw+6WutTn5IuuCAKqVx1lN6y535ZDse8tc6VU95ad+aZ/dsu5zm6suknP5EWLJCOPVb6+7+Pqr52FWA5ZHNw5gDr1Vej/lIOzdybytVY6TsOelx/OcjynNOVWf1dlE2bogozb3F0NZZ7g/k8HZyl7fw6GzZETejdJP/dd6O7MLpPlufnBvP9Dc76O08ejwACCCCAAAIIIPCeAAEWFwMCCCCAAAKDTcCVUg5e6uujbXZuPO4wZ+dAxSGM+z05vPJ2Q28ldPWVt8y5UfrUqVEjcvd1cl8pB2MOaxzuuFm6+0x94xtRkLWr4Gl3bn5dNz7/4Q+jSi5XhjnA8h3+PizA+vd/j4IsVzhdc00UrmUjJPJ5epukAyxXprl6zQHWjtsRfbdBV7i5h5dDNT/H1W0O/jw3N6t3hVa6/1d/tzEOtmuO+SKAAAIIIIAAAvtZgABrPy8AL48AAggggEBWBBysuCH7889H2+V810GHWb4ToLfBufn5ihXRHf7cb2rcuKgxvCu7XH3lgOaGG6RPf7r/1UaukHKvLW9F9Ou6EbzvZOgAaFdBT7oCywHW0qXSl74kXXllFMxlI8BK98ByhZh7g3krooM69w9zBZudfJdC393RWwwdFDpYc+DnfmBu9u45Oxj0ubrCzNVihFhZuZQZFAEEEEAAAQQQsAABFtcBAggggAACQ03AoYorrZ59Nup59fTT0VY898py+OIG5A6HHF65Qbm3DTrscn8p353Q4czhh0tf+UoUdrkPVX8OV4gtXix95zvRa194YVTh5G13uwuw3nhDcoDl4OurX5Uuvzx63WwEWG5O762Ubszu+Tmsc0+wK66IKtHefFN64gnJ5zFrVhRm+X+7D9jHPhb1yvJjHM65r5eDPodbBFj9uUp4LAIIIIAAAggg0C8BAqx+cfFgBBBAAAEEYi7gyitv/3N45QbqrqZy8OJtfG5W7j5Uw4ZFJ+Egx43dvU1u4cLo7oYOr1yR5e2DroRydZGrkvpzeGudx/Vd/lyl5B5Tn/981HvrwwKs//gPadky6Wtfi7Y4ep7ZCLA8P7+OK9PuvFNyTyw3g7eNt2TazwGfgzfP2T62dMA3e3b0WPcVcwN8byf01kMHX9mYa3/ceSwCCCCAAAIIIDCEBQiwhvDicmoIIIAAAjko4ADqnXeiu+Z5e9y0aVHllcMZ97vasQeVw6729mjbnoOcBx6Q1qyJGsPfeGMUzrhxeX+DGVeAubeU7+DnZu6uvHIQ5mBsV2N5zukKLPfO+vrXo0oxh0n9fe2+LLnP2wGUm+A7mHryyWi+Dtcc9rkpvl/fc/bre1ulG+C76sqHQy1XsTlkc6Wa75LIgQACCCCAAAIIIJBVAQKsrPIyOAIIIIAAAvtYwNvevH3QVUXeNujeTK5k2l0Tdoc5rkjyHfeeeipqXO6te+5B5d5QpaV7dwIe13Pp6nr/joG722Lnx7jHlLcQui+XA6yLL85egOUzSje4d2DnbYvr1kWN8L0VcObMqMqqpCR6nPtgeUukA0GbTpkSNaR337D+VqftnSbPQgABBBBAAAEEcl6AACvnLwEAEEAAAQQQ2B7odHRIvvueq44cYhUXZ6cCamdwb81znylvIXSg9OUvR/2ostXEfcfXTwd4OwZtO4d96ce4UswhnEOr/tyVkQsMAQQQQAABBBBAIGMBAqyMCRkAAQQQQAABBPZawOGQe3G5mfq990Y9uC64QDr11Ow1cd/ryfJEBBBAAAEEEEAAgf0lQIC1v+R5XQQQQAABBBCIBNwzy1VYDrJ8eNuit+9xVz+uEAQQQAABBBBAAIHtAgRYXAoIIIAAAggggAACCCCAAAIIIIAAArEWIMCK9fIwOQQQQAABBBBAAAEEEEAAAQQQQAABAiyuAQQQQAABBBBAAAEEEEAAAQQQQACBWAsQYMV6eZgcAggggAACCCCAAAIIIIAAAggggAABFtcAAggggAACCCCAAAIIIIAAAggggECsBQiwYr08TA4BBBBAAAEEEEAAAQQQQAABBBBAgACLawABBBBAAAEEEEAAAQQQQAABBBBAINYCBFixXh4mhwACCCCAAAIIIIAAAggggAACCCBAgMU1gAACCCCAAAIIIIAAAggggAACCCAQawECrFgvTxYn19ubxcEZGgEEEEAAAQQQQAABBBBAYEgI5OUNidPgJAa/AAHW4F/DPZ+Bw6qeHimZjL66u6WuLimV2vNzeQQCCCCAAAIIIIAAAggggEBuCiQSUkmJlJ8fnb/DLP9eQcH7v5ebMpz1fhAgwNoP6Pv8JRsbpT/+UVq4UKqtfT/Iogprny8FL4gAAggggAACCCCAAAIIDBoBB1X+cnDlr/Jy6ZxzpMsuk8aNI8QaNAs5NCZKgDU01vHDz2LLFunmm6Uf/1haty4XzphzRAABBBBAAAEEEEAAAQQQGGiB6mrp+uulL39ZmjGDAGugfRnvQwUIsHLhAiHAyoVV5hwRQAABBBBAAAEEEEAAgewKOMC67jrpK18hwMquNKPvQoAAKxcuCwKsXFhlzhEBBBBAAAEEEEAAAQQQyK4AAVZ2fRn9QwUIsHLhAtlTgMVdJXLhKuAcEUAAAQQQQAABBBBAAIG+C+yqZzIBVt/9eOSACxBgDThpDAfcXYDl4KqmRho1KmrMx4EAAggggAACCCCAAAIIIICA72Lf1CTV1UV3sU8fBFhcG/tRgABrP+Lvs5feXYBVViZdfLF0+eWS/5sDAQQQQAABBBBAAAEEEEAgtwVceeXwatEi6e67Jb+fJMDK7WsiJmdPgBWThcjqNHYXYFVVSV/7mvTNb0r+bw4EEEAAAQQQQAABBBBAAIHcFnCA5feQd9whffvb0urVBFi5fUXE5uwJsGKzFFmcCAFWFnEZGgEEEEAAAQQQQAABBBAYQgIEWENoMYfWqRBgDa313PXZEGDlwipzjggggAACCCCAAAIIIIBA5gIEWJkbMkJWBAiwssIas0EJsGK2IEwHAQQQQAABBBBAAAEEEIipAAFWTBeGaRFg5cI1QICVC6vMOSKAAAIIIIAAAggggAACmQsQYGVuyAhZESDAygprzAYlwIrZgjAdBBBAAAEEEEAAAQQQQCCmAgRYMV0YpkWAlQvXAAFWLqwy54gAAggggAACCCCAAAIIZC5AgJW5ISNkRYAAKyusMRuUACtmC8J0EEAAAQQQQAABBBBAAIGYChBgxXRhmBYBVi5cAwRYubDKnCMCCCCAAAIIIIAAAgggkLkAAVbmhoyQFQECrKywxmxQAqyYLQjTQQABBBBAAAEEEEAAAQRiKkCAFdOFYVoEWLlwDRBg5cIqc44IIIAAAggggAACCCCAQOYCBFiZGzJCVgQIsLLCGrNBCbBitiBMBwEEEEAAAQQQQAABBBCIqQABVkwXhmkRYOXCNUCAlQurzDkigAACCCCAAAIIIIAAApkLEGBlbsgIWREgwMoKa8wGJcCK2YIwHQQQQAABBBBAAAEEEEAgpgIEWDFdGKZFgJUL1wABVi6sMueIAAIIIIAAAggggAACCGQuQICVuSEjZEWAACsrrDEblAArZgvCdBBAAAEEEEAAAQQQQACBmAoQYMV0YZgWAVYuXAMEWLmwypwjAggggAACCCCAAAIIIJC5AAFW5oaMkBUBAqyssMZsUAKsmC0I00EAAQQQQAABBBBAAAEEYipAgBXThWFaBFi5cA0QYOXCKnOOCCCAAAIIIIAAAggggEDmAgRYmRsyQlYECLCywhqzQQmwYrYgTAcBBBBAAAEEEEAAAQQQiKkAAVZMF4ZpEWDlwjVAgJULq8w5IoAAAggggAACCCCAAAKZCxBgZW7ICFkRIMDKCmvMBiXAitmCMB0EEEAAAQQQQAABBBBAIKYCBFgxXRimRYCVC9cAAVYurDLniAACCCCAAAIIIIAAAghkLkCAlbkhI2RFgAArK6wxG5QAK2YLwnQQQAABBBBAAAEEEEAAgZgKEGDFdGGYFgFWLlwDBFi5sMqcIwIIIIAAAggggAACCCCQuQABVuaGjJAVAQKsrLDGbFACrJgtCNNBAAEEEEAAAQQQQAABBGIqQIAV04VhWgRYuXANEGDlwipzjggggAACCCCAAAIIIIBA5gIEWJkbMkJWBAiwssIas0EJsGK2IEwHAQQQQAABBBBAAAEEEIipAAFWTBeGaRFg5cI1QICVC6vMOSKAAAIIIIAAAggggAACmQsQYGVuyAhZESDAygprzAYlwIrZgjAdBBBAAAEEEEAAAQQQQCCmAgRYMV0YpkWAlQvXAAFWLqwy54gAAggggAACCCCAAAIIZC5AgJW5ISNkRYAAKyusMRuUACtmC8J0EEAAAQQQQAABBBBAAIGYChBgxXRhmBYBVi5cAwRYubDKnCMCCCCAAAIIIIAAAgggkLkAAVbmhoyQFQECrKywxmxQAqyYLQjTQQABBBBAAAEEEEAAAQRiKkCAFdOFYVoEWLlwDRBg5cIqc44IIIAAAggggAACCCCAQOYCBFiZGzJCVgQIsLLCGrNBCbBitiBMBwEEEEAAAQQQQAABBBCIqQABVkwXhmkRYOXCNUCAlQurzDkigAACCCCAAAIIIIAAApkLEGBlbsgIWREgwMoKa8wGJcCK2YIwHQQQQAABBBBAAAEEEEAgpgIEWDFdGKZFgJUL1wABVi6sMueIAAIIIIAAAggggAACCGQuQICVuSEjZEWAACsrrDEblAArZgvCdBBAAAEEEEAAAQQQQACBmAoQYMV0YZgWAVYuXAMEWLmwypwjAggggAACCCCAAAIIIJC5AAFW5oaMkBUBAqyssMZsUAKsmC0I00EAAQQQQABpaV2CAAAgAElEQVQBBBBAAAEEYipAgBXThWFaBFi5cA0QYOXCKnOOCCCAAAIIIIAAAggggEDmAgRYmRsyQlYECLCywhqzQQmwYrYgTAcBBBBAAAEEEEAAAQQQiKkAAVZMF4ZpEWDlwjVAgJULq8w5IoAAAggggAACCCCAAAKZCxBgZW7ICFkRIMDKCmvMBiXAitmCMB0EEEAAAQQQQAABBBBAIKYCBFgxXRimRYCVC9cAAVYurDLniAACCCCAAAIIIIAAAghkLkCAlbkhI2RFgAArK6wxG5QAK2YLwnQQQAABBBBAAAEEEEAAgZgKEGDFdGGYFgFWLlwDBFi5sMqcIwIIIIAAAggggAACCCCQuQABVuaGjJAVAQKsrLDGbFACrJgtCNNBAAEEEEAAAQQQQAABBGIqQIAV04VhWgRYuXANEGDlwipzjggggAACCCCAAAIIIIBA5gIEWJkbMkJWBAiwssIas0EJsGK2IEwHAQQQQAABBBBAAAEEEIipAAFWTBeGaRFg5cI1QICVC6vMOSKAAAIIIIAAAggggAACmQsQYGVuyAhZESDAygprzAYlwIrZgjAdBBBAAAEEEEAAAQQQQCCmAgRYMV0YpkWAlQvXAAFWLqwy54gAAggggAACCCCAAAIIZC5AgJW5ISNkRYAAKyusMRuUACtmC8J0EEAAAQQQQAABBBBAAIGYChBgxXRhmBYBVi5cAwRYubDKnCMCCCCAAAIIIIAAAgggkLkAAVbmhoyQFQECrKywxmxQAqyYLQjTQQABBBBAAAEEEEAAAQRiKkCAFdOFYVoEWLlwDRBg5cIqc44IIIAAAggggAACCCCAQOYCBFiZGzJCVgQIsLLCGrNBCbBitiBMBwEEEEAAAQQQQAABBBCIqQABVkwXhmkRYOXCNUCAlQurzDkigAACCCCAAAIIIIAAApkLEGBlbsgIWREgwMoKa8wGJcCK2YIwHQQQQAABBBBAAAEEEEAgpgIEWDFdGKZFgJUL1wABVi6sMueIAAIIIIAAAggggAACCGQuQICVuSEjZEWAACsrrDEblAArZgvCdBBAAAEEEEAAAQQQQACBmAoQYMV0YZgWAVYuXAMEWLmwypwjAggggAACCCCAAAIIIJC5AAFW5oaMkBUBAqyssMZsUAKsmC0I00EAAQQQQAABBBBAAAEEYipAgBXThWFaBFi5cA0QYOXCKnOOCCCAAAIIIIAAAggggEDmAgRYmRsyQlYECLCywhqzQQmwYrYgTAcBBBBAAAEEEEAAAQQQiKkAAVZMF4ZpEWDlwjVAgJULq8w5IoAAAggggAACCCCAAAKZCxBgZW7ICFkRIMDKCmvMBiXAitmCMB0EEEAAAQQQQAABBBBAIKYCBFgxXRimRYCVC9cAAVYurDLniAACCCCAAAIIIIAAAghkLkCAlbkhI2RFgAArK6wxG5QAK2YLwnQQQAABBBBAAAEEEEAAgZgKEGDFdGGYFgFWLlwDBFi5sMqcIwIIIIAAAggggAACCCCQuQABVuaGjJAVAQKsrLDGbFACrJgtCNNBAAEEEEAAAQQQQAABBGIqQIAV04VhWgRYuXANEGDlwipzjggggAACCCCAAAIIIIBA5gIEWJkbMkJWBAiwssIas0EJsGK2IEwHAQQQQAABBBBAAAEEEIipAAFWTBeGaRFg5cI1QICVC6vMOSKAAAIIIIAAAggggAACmQsQYGVuyAhZESDAygprzAYlwIrZgjAdBBBAAAEEEEAAAQQQQCCmAgRYMV0YpkWAlQvXAAFWLqwy54gAAggggAACCCCAAAIIZC5AgJW5ISNkRYAAKyusMRuUACtmC8J0EEAAAQQQQAABBBBAAIGYChBgxXRhmBYBVi5cAwRYubDKnCMCCCCAAAIIIIAAAgggkLkAAVbmhoyQFQECrKywxmxQAqyYLQjTQQABBBBAAAEEEEAAAQRiKkCAFdOFYVoEWLlwDRBg5cIqc44IIIAAAggggAACCCCAQOYCBFiZGzJCVgQIsLLCGrNBCbBitiBMBwEEEEAAAQQQQAABBBCIqQABVkwXhmkRYOXCNUCAlQurzDkigAACCCCAAAIIIIAAApkLEGBlbsgIWREgwMoKa8wGJcCK2YIwHQQQQAABBBBAAAEEEEAgpgIEWDFdGKZFgJUL1wABVi6sMueIAAIIIIAAAggggAACCGQuQICVuSEjZEWAACsrrDEblAArZgvCdBBAAAEEEEAAAQQQQACBmAoQYMV0YZgWAVYuXAMEWLmwypwjAggggAACCCCAAAIIIJC5AAFW5oaMkBUBAqyssMZsUAKsmC0I00EAAQQQQAABBBBAAAEEYipAgBXThWFaBFi5cA0QYOXCKnOOCCCAAAIIIIAAAggggEDmAgRYmRsyQlYECLCywhqzQQmwYrYgTAcBBBBAAAEEEEAAAQQQiKkAAVZMF4ZpEWDlwjVAgJULq8w5IoAAAggggAACCCCAAAKZCxBgZW7ICFkRIMDKCmvMBiXAitmCMB0EEEAAAQQQQAABBBBAIKYCBFgxXRimRYCVC9cAAVYurDLniAACCCCAAAIIIIAAAghkLkCAlbkhI2RFgAArK6wxG5QAK2YLwnQQQAABBBBAAAEEEEAAgX0skExKDqcKCqS8vN2/+EAGWKlU9Jr5+R/+mvuYgpcbnAIEWINz3fo3awKs/nnxaAQQQAABBBBAAAEEEEBgKAn09Ej19dK2bdLYsVJ5+e4DpYEIsDxGZ6dUWxspjhollZQMJVHOZT8IEGDtB/R9/pIEWPucnBdEAAEEEEAAAQQQQAABBGIj0N0trVwpvfBCFF7NmyeNGBFVY+18ZBpg+fkOyl55RVq9WpozRzr44Oh1ORDIQIAAKwO8QfNUAqxBs1RMFAEEEEAAAQQQQAABBBAYcAGHSg0N0sKF0depp0rnnSdNmSIVFX2wGiuTAMuVXn7/+eST0kMPSdOmSR//ePSrtxFyIJCBAAFWBniD5qkEWINmqZgoAggggAACCCCAAAIIIJAVAVdhLVki/ed/Si++KF12mXT55dJBB0XVUemAaW8CLD+nq0tas0Z64AHpzjulwkLpG9+QTj9dqqjIyikxaG4JEGDlwnoTYOXCKnOOCCCAAAIIIIAAAggggMDuBdJb++64Q/q//1dyoHXWWdJHPiIdd5xUXR2FWP0NsPz49nZp6VLpD3+QFiyQ2tqka6+VvvzlqMrrw5rGs2YI9FGAAKuPUIP6YQRYg3r5mDwCCCCAAAIIIIAAAgggMCAC3uL3zjvSv/yLdPvtUeWVwytv8zvnHGn06Ohl/B7SQde3vx31sUofDrmuu076ylekGTOiYKq1VXr+eenWW6U//SlqFn/ssdL/9/9JJ50klZYOyNQZBAECrFy4BgiwcmGVOUcEEEAAAQQQQAABBBBAYM8CHR3S734n/du/SStWRD2wvI3wmmukq66SJk2Stm7dc4DlvlaNjdKjj0q/+IX03HNSc3MUgt14o/TVr0rjx1N9tecV4RF9FCDA6iPUoH4YAdagXj4mjwACCCCAAAIIIIAAAggMmIC3/L39tvTv/x5t+fP2P9+NcPJk6aKLpOuvj0Koe+6J+mXtqgLrC1+Igq9775V+9ato+6B7YHkLYrr66pRTpOLiAZs2AyFAgJUL1wABVi6sMueIAAIIIIAAAggggAACCPRNwNv+brtN+s53ojArmYwqpcaOjZquezvh2rXSz34WNWZPH1VV0hVXSGecIb3ySnRHQ1dx+fk+xoyRbrhB+tKXokouel/1bT14VJ8ECLD6xDTIH0SANcgXkOkjgAACCCCAAAIIIIAAAgMo4MDJdyT87nejKqpt26Lm7Q6cRoyQZs6Mele99lrU0yp9+Pe83dC9sJYtk9avl1Kp6E9918G5c6V/+qco4KL31QAuGENZgAArF64DAqxcWGXOEQEEEEAAAQQQQAABBBDou0BDQ9TI/cc/lt58U3KD95AS5EXbA/3l7YXp3/efeYtgOpjyn6XDq3T1lpvBe3uh7zzox3IgMIACBFgDiBnboQiwYrs0TAwBBBBAAAEEEEAAAQQQ2C8C3d3Sq69K3/++dN99UlNTVIW1N4fDLt/N8O/+TjrzTKqv9saQ5+xRgABrj0RD4AEEWENgETkFBBBAAAEEEEAAAQQQQGAABRxW1dVFdxu86SbpjTfe72XVn5dx9ZV7X7n5e7r6it5X/RHksX0UIMDqI9SgfhgB1qBePiaPAAIIIIAAAggggAACCGRFIF2F9V//FfXCcnP3/h6JhHTMMdI//IM0f3609ZADgSwIEGBlATV2QxJgxW5JmBACCCCAAAIIIIAAAgggEAsBV2Gle2G5Cqu/x+jR0nXXRXcenDatv8/m8Qj0WYAAq89Ug/iBBFiDePGYOgIIIIAAAggggAACCCCQRQE3aXcvrP/8T2nBAqmzs+8v5uqro46S/vEfpQsuiO5EyIFAlgQIsLIEG6thdxdg+danX/2q9M1vSlVVsZoyk0EAAQSyKrCX/UmzOicGR2BfCeTtqxfidRBAAAEEBo2Aq7DuvFP63vekpUv7Pm33vkpXX02d2vfn8UgE9kJg3wRYO93JILxv2Nu7G+zFSeb8U/yP0S9/Kf3sZ9L69e9zOLRykz2HWJWVOc+0LwDydm5mSHPDfcHOa+SywPagqle9Ukrq7e6NvpL+NuQ/7A3/nwOBIS+wPbTy96G8wjzlF+ZLCd8q3f8//YdDXoETRAABBBDYnYCrsBYvlr7zHWnhQqm5ec9WxcVR76u//Vvp/POpvtqzGI/IUCB7AVZvb/TmIJVSb09SvT3d0a+ppJTi3UKG69a/p7e3SW++Kb3++gf/IfI/OIcdLh15hFRU3L8xefTeCfg9Qn6B8hMFynO5bSKhvIICyW8oCLP2zpRnIbArAedSqV6lOlNKtW//6kypt2t7gJWKPkjhsxQun5wScFjlr4L8EGLlFecpvzhf+aX5Kijb/nvhATmlwskigAACCKQF6uulu++OqrCWLNmzy/jx0Z0H3ftq4sQ9P55HIJChwMAHWH5DkEop1dmppPfOdkXBlVJJpVKpEGjxjiHDVevv0/0OLZmMvnZ+t7Y9ROnvkDw+A4H8/BBa5W3/1SFWQXGR8kpKQqhFkJWBLU9FwJ+bJFNKtfaqp7FbyeakUp29SnWlpJ4o1KLiissEge2VVwV5ykvkKa8oT/mlBUoMy1eiKhECrbwCUiyuEwQQQCDnBFyF5aKH7343uiNhU9PuCUpLpeOPl77+dem886i+yrmLZf+c8IAFWK626k0m1dvRoWR7h3q7OpXq7pGS4WPu/XN2vCoCg0EgBFkJ5RcXKr+kRPmlpVGQlZ8/GGbPHBGIh4BzqZ7eEFh11zu4SinZngwVV3wLiscSMYuYC+QrVGMVlOcrMSyhxPCE8ssJsmK+akwPAQQQGHiBhoaoCuu///vDq7BcfXXDDdLnPy9Nnjzw82BEBHYhkHmAtT24ChVXra1KdXap18mtK604EECg7wLeRujKrKIiFZSVhiAr3xVyBFl9N+SROSnQm+wN2wR76nui8KolFfpccSCAwF4IOMgqylNBZYEKRxYqUe0PWPLZVrgXlDwFAQQQGJQCfi//2mvS978v3XPPrquwysqkE06Qvvxlaf58qaRkUJ4qkx58AhkFWGGroLcItrUp2d4ewiv1ElwNvsuAGcdKwEGWtxW6Equ8TAVFRe/1yYrVPJkMAvtbwNsFu1Lqae5Rz9Ye9TQmlerwVvX9PTFeH4EhIFAgFZQVKDEiocKRifDfYVshOwuHwOJyCggggMAeBGprpQULpB/8QHrjjQ8Wp/jDdVdfffzj0qc+JU2fzgfuXFD7TGDvAqxQdeU+Vx1KtrYp5S2DTmrZp7HPFo4XygGBgnzlFxeroKw8CrMKE1H3XQ4EEAjfbtygvdtVV7VRrytvIeTbEBcHAgMo4LyqKC9UYRWNKlRBVUF090K+FQ0gMkMhgAACMRTo6pJefTUKsNwLa9u29yfpaquTTpK++EXpnHOkiooYngBTGqoC/Q+w/P4gmVSqvV09LS2hWXtoDs6BAAIDL+BqrKIiJVyJVV6uvMJCQqyBV2bEwSaQDq/qutW12VsGfaOQwXYSzBeBQSRQ4BCrQMVjilQwnBBrEK0cU0UAAQT2TsA3/kpXYf3Xf0nLlkVVWP4wfexY6brrpE9/Oqq+8h3VORDYRwL9DrDCtsG2dvVs2xaFV/S62kdLxcvkrIBDrMJCJSrKVVBRobyEQ6yc1eDEc11g+7ZBV111bupSqpUtg7l+SXD++0bA2wcLHGKNLQoVWXmFbCfcN/K8CgIIILCfBFyF5V5YDrC8nbC9Xb57uubNk776Vemss6TKyv00OV42VwX6FWD59uOptjb1NDVF4ZWTWQ4EEMi+wPa+WInKiijEciUWBwI5KJDqToUtg53rt4dXfBvKwauAU95vAqESK6Hi8YXhLoWhJxYHAggggMDQFPB7fd+R8K67pP/zf6QNG6Sqqqjv1Ve+Et15kJtNDc21j/FZ9TnA6u31XZ461N3YqN4Oh1fs14jxujK1ISoQKrGqqlRQWaE8vmEM0VXmtHYn4A9Rehp61LG6U8ltSfpdcakgsB8E8hJ5oal78YTicKdCKoL3wyLwkggggMC+EnCroMWLpX/91+iOhMceK33rW1H1Fb2v9tUq8Do7CPQ5wPIdBpNN25Rsaw09sDgQQGA/COTnK7+kWInqahW4gSJN3ffDIvCS+0WgV0q2JtW5rkvddd3q7ab0ar+sAy+KQJ6UX5KvorFFKhpXqPzifEwQQAABBIaqgKuwmpulO++U/v3fpYsukr72NWniRKqvhuqax/y8+hRgObBKtrSop6lZvd3d3G0w5ovK9Ia4QEG+EuUVKqiuUj5bCYf4YnN6QcB9r7p71bW5S13eOthOBTBXBgL7VSBfSlS6CqtIiZFsJdyva8GLI9AHAe+kCd9Oaf/SBy0e8j8E3PP69delhx6Sjj5aOuEEqawMKAT6JJDnVjgDWHSxxwArbB1MN23v6KBpe5+WiQchkF2B97YSVpQrjzt/ZBeb0fe7QG+yVz1NSXWu6VRPUw93HNzvK8IEEJDCVsKahIonbd9KCAoCCMRGwO/fwnu4VOq9X9P/HZtJMpHBJdDSItXXRz2w3LidViaDa/3202zTwVW+dxFt//Lv+b/39thjgJXq6Ym2Dra0qLenZ29fh+chgMBACvgfgOISJUZs30o4kGMzFgIxE0h1pkLT9q6NXertYutgzJaH6eSqQJ5UUJqvoklFKhpTREP3XL0OOO9YCaRDq2QyqR6/h0smPxBkxWqyTGZwCbh6z5VYDh4GsJpmcCEw270VcGCVDq4KCgrkr0QiEX6vv9VZHx5g9fYq2dmpnoaG0MCduw7u7ZLxPAQGXiAvkVBBdbV8Z0Iaug+8LyPGQ8CN25PNydC4vae+h8bt8VgWZoFAEAhVWKMLVTyxSAXlBagggMB+FEiHVungyhVX/uJAAAEE4iTgwGrHEKuwsLBfQdaHBljufdXT3KzktnTvqzidOnNBIMcF8vNVUFYWGrrnFxflOAanP1QFent61bWpS53rOpVqp/pqqK4z5zVIBVyFVV6g4inF4c6Eefl5g/REmDYCg1fAVVcOrbq7u8OXgywOBBBAIO4C6YqsoqIiOcRyqNWXaqwPDbBSXV2h+irZ2kb1VdyvAOaXkwJ5/gs/vFr5ZWVUYeXkFTDET9p3HmxPqXNVh7pqu+l9NcSXm9MbnAJ5hXkqGl8UGrpzR8LBuYbMevAKuMLKoVWX37P19NCkffAuJTNHIGcFvL3Q2wkdZPnXPfXH2n2A5e2DbW3qaWhUqrMzZ0E5cQTiLOAG7gXDKpUYNkzeUsiBwFAScPP25LakOlZ2hCbuHAggEEOBfKlwRELFU0qUGMY2whiuEFMaggLpXlcOrzo7O99r1j4ET5VTQgCBHBBIbyssLi4O1VgfFmLtNsDqTaWU3LZNPU1N6u3hjUMOXDec4mAUyM97fxthURFNFQfjGjLn3QqkunvVXdutzrWdSrXRx4NLBYFYCngbYWWBSqaVhCCLAwEEsivg8MrbBNOVV2wZzK43oyOAwL4R2DHEcjXW7rYT7j7A8j+M9fVKNrewfXDfrBmvgkD/BfKk/JISJYYPV0FJCQFW/wV5RowFfPfBrg1d6lzfqd7uGE+UqSGQ4wL5ZfkqcR+s0YX0wcrxa4HTz75AOrxy5RXhVfa9eQUEENi3At5G6Eqs3YVYuw6wenuVcjPArVuVcv8rDgQQiK1Aug+WG7qHW9tyIDAUBHy35o6UOld3qnNTF3cfHApryjkMWYG84jwVTyhW8bgi5RXRyH3ILjQntt8FXH3lyquOjo7Q84oDAQQQGIoCDrHKysp22dh9lwFW2Ffd4VuW1yvV0TEUTTgnBIaMQF6iUInqKhWUlysvQf+RIbOwOX4ivaleJVtS6ljdqZ46yq9y/HLg9GMuEBq5jy5S8cQiuRqLAwEEsiPg0MrhlUMsv1/jQAABBIaigLcPugqrpKQkbCXccTvhrgOsVEqp9o5wB0IauA/FS4JzGkoCbt5eMGyYCiorlE8j96G0tH06l/BpbGdSXe09ShTmq7i0UHkFg78CIgRYTUl1rPGHKXzK3KeLgQchsJ8E8hJ5KhxZqJLJxcovJ8DaT8vAyw5xAd9x0NsG003bh/jpcnoIIJDjAgUFBSHA2nkr4e4DrLZ2dTc0qLerK8fpOH0E4i0Q3YnQAVal8gtpoBvv1RrY2Tm86mju0qrFtVr2/EZVjCzVoadN1siJlcof5CFWCLAatwdYDQRYA3vlMBoCAyvg0DwEWFMIsAZWltEQiAT8/X7H6itcEEAAgaEu4Korh1euxHKYla7C2n2A1dqq7sZG9XaxdWOoXxyc3yAXKChQYljl9gCrcJCfzD6afrrqfpAUKvkH195kr7o6kkr2pFRUUqBEcYF6upJa/3a9/nr/Cr393AZVjijRCVccqMPOnKKi0sRu796xj5Qzehmfb09TMvTA6mkkwMoIkycjkGWBEGDVFKp4SrEKKqjAyjI3w+egANVXObjonDICCMi9sFyFVVhYSIDF9YDAkBFwgFVZqYJhrsAiwNrTuqZSveps6VayJ6niskIlih307OlZ6U9Aw+eg7zcUz/ONH/v45L69xPuPchNzf+LamVTz1nY1bGrVtrp2FZcmNP7AERpWU6qGTS165eFVevWRVWrb1qVph4/SsRcfoOlHjVFhP86rv1PbF48nwNoXyrwGAgMjQIA1MI6MgsDuBFx91d7eHnpfcSCAAAK5IpCfn/+BKiyfNxVY6QaI2XoTmitXF+e5/wQIsPps70qm5q0dWvnKZrU3d2nKoaM0asowJYp20/w+ZFW96k0pVD51tHaps7Vb3Z2p8JpFpQUqG1Yc+k6FLXsDlGX5tdq3dap+Y6tq12zT+rfqtXlVk4qKE5p94gTNOn6cCgrztfTp9Xrx/uVq2NiiyQeP1NHnTde0I0ertLJowIK18E+kK8B2Ug6nmsUAjwCrz5c1D0RgvwsQYO33JWACQ1jAP7t0dXWF5u3JZHIInymnhgACCHxQwIUC6Sos/xoauvfu4hYWvW7iPli3EG5/oxW9ufrwd5P+NKO1tVXuIVRWUqJEQcEen8NFhUDsBAiw+rwk3nK3/KXNeuq2t9Te3KljL5mpQ06bpPKq4g+MEbbspXrV3ZHUtvp2Nde1q3FzWwiKmmrb1NHSHaqwyocXa/TUKo07YLhGTR6msmFFysvPMMXqlTrbu7Xm9Tq9/NAKvfvXzaG6qnpsmQ47fbIOO2OKKkaUaPXrdXrxvne1aWWTJswcrqPmT9P0o8ZuD6/6TPKhD0xXqzVuaVNLfXvYwuijsNjBXZEqakpUXl0SmscPdCVargRY6W/BffmeNTCrmvko7805nWJmPiQjDHIBAqxBvoBMP9YCbB+M9fIwOQQQyLLAzs3ch1SAlUylVLt1qzo7O1RVVaWKsvIolNrF4R/AN2zapEUvvqiOrk4dcuAsHTB1qiorKuRSNQ4EBo1AFgIs//1IJaO+SwNxl+a8fCk/ka/8/Dylkik5GOndw4eI4TmhqikKhPx/Q0iyl/mQz6OjpUsv3Peunvr9W0p2JXXMxQfohMtmavj4ivAaPm9XWDVtaVfTllbVb2gJPabWv92g2nXbwp3+HFylelKhIstzK6sq1tTDRmnuhdM164TxKi0vyvjS8es4oHrmjrf11jPrVVFTGgKqo86dpmEjS7X2ra164d53tG5pfdhOeOgZkzXhwOEqLi9U+bCisC0yk8NWye6UGre0asXLm/XO8xtVu6ZJXZ3RohUUFqh6VJkmzqnR5ENHauyMalWOKA1B1kAduRBg9SR71Nreos7uLlWUVqikqFTRt5+9vMgHCn8344Q7XvZ0aVtrs7p7ulVVUaXS4tLtf0XjOecskzD8dgECrP5fCqGq1f9nD9/W+vq4/s+AZwwWAQdY3j7oKqxd1B0MltNgnggggMBeCfj9nxu5uxeWc5ohE2D5H/e6+nrd9cAftWzlSh1x0ME6Ye5cTRk/PpzwB47eXrW0temBxx/Td266SRvr6nTe6afrxquu1hEHH6SS4pK9ws3Wk3xu6ZJhJ5AEbAMjHaps/E69V6FqZqArSAZmln0YJQsBliuVvGVt/dL6ENq81/N8p/eoO4ZbOxc8pv/MIZSbi0+aU6PqseVyNY+3xLmSySFZ+njv+du3pRUk8pQoSoRQxMFMWVWRhtWUhcDIFUD9vcue17qtuUtP3/6WnrnzbXW29+jgkyfq5I/M0cTZNSpI5KunO6XNKxr10oMr9PoTa0OPKV8Xw8eWa8T4ClWNLgvbDR1srXurPlQl5Rfka+SkytB76piLDlDF8OKMryVXf7W3dIXqqyWPr9bIicN02JmTg+OmFU3664Mr9Naz61VWWaTpR4xR5chSdUfv5IYAACAASURBVLZ1q2p0eTinmokVGc3BAd3W9c2hv9ZfH1gR4pRph43W6GlV4e/M1nUtWrt0awi4bONtjX7dsQdUh+2UA3EM9QDL/65vbarT82+8oDdXvKkJoyboqNlHadr4qSopKtkn1cAhqE55O2xv9AOBU+MPORy4rd64Wk+89Get2bxWs6fM1vGHHKcJYyaqKOF1J8Tam2vfVe9ei+j70MCFwHszl719DgFW/+S6k71qaO9WW1dKZYX5qihJqCSRp/ydvpG6D2JrZ1IN7T0qLMjXiLJE+DXTQt/+zZZH708B/9vg9wD0v9qfq8BrI4DA/hRIB1jv3Y1wqGwhbGtv15PPPadv3/QTvbxkiWbNmKEbrr5aF59zjsaNGv2BN3PeOrhsxXL96Je/0h/uW6iqYcN00Vln65pLLtFhc+aopLj4vU84XDGyP38o9zetzXV1WvrOMvUkk5o5bZomjh33gU78+/OCGqyv7R8I2jvataVua7gt8ehRI0PF3qAMBwc4wLJNqFRauFyP3/q6mus7wjI74HFwlO4X1d3erc6OZNhq5+qq4rJE+LNQpdGRDHfIcxDiap3JB9XojE8eqjknjNf6ZQ16+o639MZT69Xa0BGe7zc/RSUJFZa8H9A6wPCbawdVpcOKNXxsmcZOrw5VP646qplQ0a877YUKrNYuPXvnMi36w1tqqm3X+JnDNe/a2Tr0tMlhS5yrqjYtb9Qzd72tV/60Sl3t3Zpy6GgdHbbnjQ4hltO85a9s0RO/fkMrX9uikrJCHXzqJJ101awwni0yOezh0LC1qTOEfFtWbguOeYm80MR93dKtWr2kVq2NnSp076489+fqDf4HzZugUz9+sMbNqN77rYy9CuGZK78W3f6WNq/aprkXTNNJV83WyImV4dRaGjpCgPbi/Su07s260AfsyPnTdPylMzViQmbhWdpuMAdY4Q1Hyn83UsrLz1fBLsKh7u4uvblyqW65/xe694l7VVpcpusuvE7Xzb9O40eNz/q/Rf67ta11mzbUbVBnV6dGjxitUdWjVJh4/y4vO1/HbR1tWvTaIv3ozh/puSXPaeKoCfrc5Z/T5adfoeFVI/7Hm+9M/h7kynNdyba1qT5U4g2rGKbhFcM/cKvoweJAgNX3lfL3om0dPXrk7Xo9t6pZZUUFOnR8mY6bMkzjq4qV2CGdautK6tX1LXr07Ual1KvTZlTr0PHlGl6aCBXNHENfIPxM1d0d+l/551UOBBBAINcEHGD5LoSuwAp9sIZCgNXd06MVq1frx7+KAin/Q3/skUfqY5dfrjPnnazRI0aET7P9rd71Ho1NTbrv0Uf0g1tu0YZNm3XZefP18Suu1CGzDlQiURj+fGtDgyrKyzV21KjQ+X5/Hduam/X4M0/r57//vbbU1enk447TlRdcqMMPOkilJfGqFHvPaHsfsvcqnLb/QWi6tv1roD13LKnuSyVVZ1eX3nr3Xf3xsUe1dv0GnTh3rk45/nhNGDs2/MUYVEeWAywHJZU1pZo4Z4QmHDgi9H1yQLX85c1a8crmsOXOlUkHHjde42b6zVdeqLJa80adNr7TEPomTZozQmd84lAddNIEdXX0aNnzG7XoD29r1eItIawpHVak6YePDlvxXGHlH/BdneUAyWNtXtGkLauaQu+pYTUlmnL4aB1yysRwtz33g+rLmntN/VqvPbZaT/5uqTYub1C5g5dzp+qkq2erZns407ipJQQzzy14J1Q1zbt6tk66ZraG+XXy88K5O7j686/f0KrXtoQm8POunhVCMAdtGR3b+19526IbtLvaqq2hI4RZrY0dag93T4wayDu88lq46spVUJ6H70LoxvSZNHH336Vtte16+aGVevbuZeruTOrMGw7W0RfOUGnF9n8Le6Xmhna9+vAqPX/vu+po7tbhZ03RiVcdGEK+vq7Hh1kN1gCrtzel5tYWLVm+WOtrN4TKqpmTZ2rEsBHbt7TnhRsDtLS16MlXntRPF/xUzy95TmNGjNVnLvu0rjn7GtVUjcx6gNXe2a5X3npZC59cqFUbV+mAiQforGPP0tFz5qqyPAoqdzx8XTQ2N+ihZx/ST+66SUtXvqkDJx+oL171RZ134vmqrqwekHXP6O/PLuYcvg+F7/zRXq3w/7L0fSjc8mF7UWlfepo5RNy0dZMefeFRLX7ntVDJdtpRp2nWlNkqKykdSIqsj0WA1XdiXyN1rd266ZkN+snTG7StM6nz5ozQN0+bqCMnVqioIPoQJJnq1brGTt3+yhbd/Nwm1bZ269xZw/X5E8fruKmVKiksyErNY1SYHl3LqV6pxx8y5UlF+XmEZn1f5gF7JAHWgFEyEAIIDFKBIRdgpXpT2lrfoIWPPKIf3nqLVq1dqxOOOlrXXXmlTj3+eA2rrFTTtm1hy+CI6mqVlZbqjWVv62e/+53+vOhpnXD0XH36Yx/V7BkzVFu/Va+8/rpeXvJ6CIuOOeJwXX7e+Zo0fvx+WW5/01qxZo1+dccd+t2CBdqwZXOoEPv6pz+j8884Q5XlFfuzOCxU2oQtKOGnnei//QOXK5vqGhq0pbZWdQ31amvvCG/cxo0eramTJmnkiBEqKipU/gBtlXCAuXVrvRq2Nam6qkqjRoz40BDK83RV28KHH9Ytt9+mZStWaM7MA3Xj1Vfp0nPP1cgRNftlvff6RbMYYDmkcWXUIadOCg3EvUWsqDQRqrKeuXOZnrt7Wbir37iZ1TrtuoN1yCmTVFJRGAKX1Ytr9eojq7Ti1S0aPqZcp994SAiwfNStbw6VUA5JXFXkAOz4Sw4IPakcxqQP98pyA/Mtq5v07oub9Oaitdq8vCkE0u75dPQFM0KQ5S10fQlNHIrVb2wJW/NWL9kSqpimHDJSR5wzTcPHlYcf0n13QodHT922VLWrm3X85TM1zwFWTWno3+Xtc689ulp//ePyUKl00LyJOvna2Ro/a4QKtr/x2Ou1VFQltuyFTWGrow0LigrCtkRXZm2r6wihXmFpYbjr4CGnTtS4A6o1bGRZMCit8N0QM6wA236nxlf+tDKscUtjR+gT5gqz4eOiXmE+bOHeYC8sfDeY2uGIs6aofPjABOuDNcDq2l5Z9bMFN+nZJc9qwqiJOu3o0zT/xPk6YNIBKi4slr9vbajdoAV/vlu/vP+X2lK/RWcdd5a+/pFv6ODpB4cKnGwe/jewrrFO9z25ULfcd6uWrX5bNdU1+sj8j+qTF31C40dN+B9/nzznjbUbdOdjd+qW+27R1qatuvS0S8Ocp46bmvU579Jjhw9LXJ3y/vehpDo6O8IctzRsUf22rWptb1NBfoHGjBij6ROmq6aqJnyaN1Dfh2za3LZNm+s3qyhRHCraSvewFdTfK32N3HLfL/T0a0+rsqJSF867SB8/7+OaNXlW1kPMgbzGCLA+XNM/J0XhabhMQ4D102c26MdPb5A/kvjkcWP12RPGaWJ18XuVjM0dSS1a0aSfPLNej73bpBGlBbr2yNG6fu5YzRxdqqJE/l4HWNHNZd8PXMPHIq70SUmNbd1a29ip1Q0dWt3QqW3tSR0wslRnzxqu8VUf/EB3x7DL57bzFsiBvMZydSyvk3tfdXZ2UoGVqxcB541AjgsMuQDLWwdffPVV/fS3v9VjTz2pg2bP1ievvkbHHHFE6In10uLFevWNN0IV1fzTT9P0KVP16FNP6o777tPokSN13RVXaERVtV5980298OoroSpn45YtIei66Kyz9MUbbgzbEfvy5nigr62Ozk4teuEF/fCXt+qp558PP2w7YPnyjZ/QgTNmqHAfVgqle6WkQytXMLlKzY3wN2zZos21daqrr9PWhkbVNzWqqblZzc3NITj0N978ggINr6rSgdOm6/ijjgoVclMnTgxVZJnY+ofCjVs266HH/6xnX34pBGSXnnNu8Ckq3HUvHv8Q8PLrS/Tz227THx99VK3t7TrmsMP0hetv0LmnnqbKyvffpA/0mmZlvCwFWC89sEKvPb5aBx4zPmyRGzWpUoni6I21Q6un73xbz921LIRZDlFOv/7gEHSVVBSFsKWjtTv0iXr9iTVqqe/Q3AtnaPYJ40MVk//3X/+4IlT41K7d9l6AdewlB6h6jIOk97dGhGuvpzf0W3Kw5ODIPbQc1DjEOeGKAzXnpAmh6qgvh+fW2dajloZ2dbT0qKSyUFWjSlW4vfG5m5e7D9Yzdy0LFUZjplfp8LOnhsqw+vXN2vBOfdgG2bixVdVjK0K4c/QF00OItIcbn/ZleqEP15ZVjXrzqXVqruvQ+FnDNWxEWXB65eGVoam853v0+TM06/goXLeRK5/c4D3TAMs5QHtrt955YaMW3bZUKxfXhv5lp35sjmadMEHFZd5iFp2K17hhQ0voJ+YqverRZSoYoEbugzHA8jo0tTTqwWce1A//8EMtXbU09FQ8/pDj9dnLPqeTjjgpNGvv6enW4uVLdOt9t+iBpx9QdUW1PnvZZ/XRcz8WtjIPyIX0IVebtze+s3qZfvXgr3X343eppb1Fc+fM1Wcu/axOO/pUlZc6RP7g9qRkskfL1ryjX/3xl7rr8btUUVYRzum68z+u8pId57y9K3Wfrvb+Pej9D01SIQR0tXVDU4PW163Txq2bQni0tbEubMlraG7QtpYmNbc2q7WjVZ3dnSGsqqqo1gETZ+i4Q47XsQcdo8njpoRqp0x7TzmMeu715/THp+9Xfn6B5h8/X8cefGy0nruIGTz/9VvW6/ZHbtftD98WeotNGDtBHzn7I7rmnGs1eczkjL439k8280cTYO3e0D2sHFgV5Oeppjyh4kR+qKa66emNIcQqKcrX106ZoI8cNUY15YXhanHV0/K6dv3mpc363UtbtK0jqXNmVeuKw0Zp+shSja4oVHVpNJZDo/587wn9ILtd3dURKrzqW3vC/La0dGlTc5c2N3eF/721tUf1bT1hPqfMqNI3TpuoYydXfuC6bOtO6a1NrVrT2KmpI0o0Y2SpKooK+jWfzK++oT0CAdbQXl/ODgEE9iwwpAIs945YtmKlfnfPAi144AGVlpXp6gsv0vjRo7XkraUhlHJFloOWaZMn66oLLgwVOgsf/pMWL12q8WPGavzYMapvbNT6TZtUX18v38lwVE2N5h17rK6+6GKdNPcYVVVW7vtKp95ebaqt1e/vuUe/uP02rd24UUcfeqi+eMMNOvPkk9/bXuAFLchzWXf+wLzp2V5R5a0N0SfaUld3dzC05bsrV2rV2jVas2FD+L3mltbwybabS7Z1dsrBVmdHR+hdFFVkpUIfmPCWJi9PpcXFGjd2rI469FBdcd75Ov2EE1RRsfeBkQPMp198UTf//nfhV4eS1195ZVi78aPH/I9185zsuuDBB/WrO+/Q0nff1YRx43TjVVfpKl87Y8aEefoHQpuGT+fj3mZigAMsL5ZDnLq127Stvl0jJw0L2/YKElG/pVBpsIcAKx2qePtg0+bW0DOpelyFho9xyJOntm2doYpp0e1va9PyBg3bXoG1qwAr/c+aK37q1jaH4Mvhmqt+HCpFFVBzNGHW8NCnqy+H+3O58ssVWMNGloTwJR38pHuAeZvjE799M2yDLK8uCX/uLYX+SnYnQ2+jibOG65SPHqQ58yaqpHyAmpf7U/DOpNoaO0Nvq1J/4t0rrX69Votueyts3UwU5Yd+VK6G82Md+h157jTNOn5cCJgyPYL1+ma9uHC5Xrj3XXV39oRG7SddPUuTDh6poh3uchi270Z/wQf0TctgDLAcTL27YYVuWXiLbnvk92ptbdHUsVN1zbnX6vLTL9fksZNDjyn3nnrsxUd18z03h5DrhENPCJVMDpEyCfT7uu6uTnrqtafC67/05l81ZdwUXX/B9br4lEs0vLJ6l99L/EHEi0tfDFseF73ylA454BB982N/o5MOPylUlqR6k3I1rP/t94ctRYmijM4lfA/qjb6P+DtIj8OqbfVatXG1lq9frlUbVmndlrWqa9waKp/cn8shUkdXR6hU8N2FU6lkGCM9jrdFea5FhUUaN2qcjpx5pC4+9WKdfOQpGl45fK/n67l6G+Yv779V9zxxj7pTPZp/3Hx94uJPaM60OUoU/M9t6Z7josWL9PN7b9aiVxeFxv3nHH9uWAdX4dkw+l6Ur4LwfSje34gIsHb9t88/Ay3e0Kq7F9epoa1H86ZXad6MKiXy8nTTsxv0s2c3qrKkQH9z2kRdcfgoDS8tjFpdtPfoT2/V6+ZnN+rZ1c3hZ5LJ1UUaVe4/z1N1aYFmjSnTCVOH6ZhJFRpbWaREH6tvu5IpLd3Upl+9uFlPrWhSc2eP2rtToaF8S3dS3cloC2H6/r+liTwdOq5MXzl5oi47rEbF/llg+1Hb0q07X63VHYtrVVNWqEsOrdE5Bw7XqAr//e/rv0g87sMECLC4PhBAINcFhkyA5ebm6zZt1H0PPxICLFdOjRxeo3Fjx6i9vS1UBbW2tqqspEQzpk7VvGOPC+HEC6++qudfeTk0RPcPnQ1NTaFCyFs2HH44JDr9xJN0wtFH64CpU1VeFr3h3teHQ6NXlizRD2+9VQ8/+WTYmnTqCSdo3jHHhGClsWmbXKHlbZHeVnjI7NmhkizT6gtXIy1bvlxvvv22ttTXq6GpUZu21IYtd96K2drWqrYON96Whg2r0OiakRpdU6Oa4SM0vGpY8EpXPrn6asPmzXrj7be19J13Vd8YBYRFiYTmzJypT33ko7ryggtCqLg3R3jTsG6dfnPXXaH3WW1dnY489FB95qMf01knn6yqymH/I3xywPbX114LPcX+9JcnwvbH4484UvOOP07FhUVqbm0NDZe9DXH2zJmhkqu6snL/bI/pK8pAB1jprQWp3qhBe0H+BxqC9zXAei94CiGmb/WY994WO2/Te+2xNaHCZ+O7fQuwPJ7Do+UvbQrNxd/566Yw7uhp1Tr56tk6/OwpoZn47g5vR3Qw197UpbVL6/TmonWhemzmseN02OmTogqq7U1x/VgHXK88uFLPLvA2yXYVlRWqsqYkVDm5F5TvjDh6apUOPHZc+NV3Sxyow32u6je0auWrm0NTeTdzb9jYGgK8tqaOME83x0/fPc69x068cpYOPmVggrTQc6OjR2vf3Kqn//C2lj6zITSJ9xZB323RdyNMN/MfqHPeeZxBF2C5d5j7Wr38F/3k7p/o2SXPaOyIsbr8jMt17Tkf0cxJM0Nw4jeGq9av0m0P3xZCrvqm+rDF8Gsf+ZqOmnX0Ptk2VtuwRQv+vEC/fei3Ifi5+JSLdd3514cga3ff7xy6uVeTA6wV65br7OPODlVjrtZ6d+3yEMSt3LAyPP+4Q47TmXPPDNvo9ub7p5vKL1uzTK8vfz1sA3Q11ab6TdqydbMaWxrDnN3QONmbDBVtY4aP0agRo8K2QFdYlZeVh62avo5bO1q0sW6j3l71tt5Y/obqt9WHQMvf893D64YLbgxbIUcP37u5+rr1hzh/eu4h/fTum7Tk3SWaNGaSrjnnGl155lWaOGriLm+o4Oqr3z74G/3+kdtUu3VL2F56+jGna/zI8Wpub5Hv+FhZVqlp46fp0OmHavSIMSoMf+f3/c8jffk7ToC1a6WeZEpPrdimHzy1Xi+s2abRlUU6ZXq1jp1SqRfXbNMdr9ZpeHlC3zp9ki45ZKSGlRSoJ9mr1za06JbnN+lPbzeorLAgPH7OmFJt3Nalh5bWa/nWDlUU5Wvm6DJdfHCNrnIPyRHFfepR1ZVKacn6Vn3niXW69/Wtau9JqbAgTyWJfFWXFIRG8hOrijW6sjCEUg7YXPF15IQKzR5bpkJ/YLr954S1DZ0hhPvVXzeF8O1TJ4wNcxlTSYDVl783fXkMAVZflHgMAggMZYEhEWA5uHC/qscWLdJtCxdq8RtvyJ0AHEo1NG8LP7R6u5r7Wh131FE66pBDw6dXf372GT3prXiJhI4/8qjwafGfn31WGzdvUs3w4brgzDN16fzzQiDkYCibfUhC1cIOx85bpmq3btWChx4KlUVL33knfBo7qmakhlWUh0+XXe2U7OlReWmpDp41W+efeabOmjcvVJVlcmcaV6Ldcf99oT+UG9z7jYRnOqyiQpMmTNCB06Zp+tSpmjh2bDCqKK8Ic/BWQN+90eGV3fyc7q5utbS2atW6tbr/0Ud1/6OPaN2mTSouKtJxRx6lz113nc455ZS9bkbv6qtHFz0V+pk57PP2wY9eell058kxY0IQteNh842bN+uO++/XbxfcrbeXLw9zdW+uyoqKsN3Rb4q8FmWlZTpg2rSwZdOuY0aN2idvLPfqH58sBFgfNo/+Bli7GssB1uLH14Q+U65w6ksFlsdxDyv3w3LvLVditTV1qmJ4iY44d2qownIj9h2v/1AF2J0KW90cSG16t0ErX6sNAVbdmmYlkynNnDs2VFG5+bnvshj9YK5w57/a1U16/S9rw/NHT6kKfaYSxQnl5/kOidurOUoTqhxREv2Z7wo4AIerqnynwWfvWhZ6iDnQ6ulMhgb4nqOr4kZNqVRFVUm466F7iB1wzNhw98H3t/BlVhHl13Qz99f/skbP3PmO6tY2Bd+jz5setlTWTKhUQSJ7b6YHW4DlD1VWb1odtoT99qHfhLB//gnzdeNFN+rwmUeErYQ+3CPLfY9uvvdm/eWlJ0IYM3nsFF199tWhgfvE0RNDlVa2DlfELln+um69/5ZwR8E5U+fohgtu0EmHz1NxURT6uHLJ2wz9PdWVzl09Xdq8dbMefOYB3f7w7aptrNVB0w8K4UptY13oM7W1oS6ES642OuagY/SJiz6pU486TeWlZf0+la2NW3Xn43eGHmEbt24M34f8YcOw0kpNHDtRMyYeoGkTpgWrmmEjQojlf7NLi0tVXFSiokShCvIT0R1Rk91qaWvWms1r9PCzD+ueP9+j9VvXhzBx7kFz9alLPq2z5p6pYRV7/0HKO2ve0c/u+ZkWPrVQJUXFuuCkC3TtOddqzvSDQiXazoevgSde+rNu2t7Av7O7SzVVI0IA5+Cqtb01hGyFhUUaO2KMTj/6DF1xxhWaOn5qVq+Nfi/Ujj/DFOSpsKZQxVOKVVAxcGF+JnOKw3OTKenNTa26+fmNumdJnRrae1RTmtDk4SVq6UxqZX2HpteU6O/OnKzz54xQeVGBtjR36a7Fdfr9y5tDE/WLD6kJfzaivFCPvd2g7y1ar9c3toWw64jx5aFy68KDakJ/qr4Exj2plJZubtN3n1iv+97YGu5o6EquIyZUaPqIEtVUFIaxK4oSKinMV5HXNpEX/Xd+dBOE6Ptkr5Ztadf3nlyvhW/U6dBxFfrivPE67YDqcB774bPfOCz5gM+BAGvASRkQAQQGmcCgD7D8D7mrgp587jndft99oceVw6djjzgy/P4Tzz4rBxvusXTl+ReESirfdvahJ57Qo089Jd8h6sS5x2j+aaeFUOh3C+7WPQ89FAKXS+fP13VXXKmDDjwwhCwDdaTDKgdv3d09oblse0dH2G7n3ysuLtKwikqVlpSGChX39Vj81lL95Ne/0UOPP6aW9vZQBeRKJc/LWx7d38vP94KOqKrSvOOO0yevuVanHHd8GG9vj5Vr1ujm3/1Wt913Xwh7aqqrdcyRR+qMk07S4XMOCsHQ8OoqVZaVv7fFYcfX8rn29CTlfimJRIEKChKhws3r9b1bbtGzf30xhEZnzJunL1x3vU48eq4Shf2/659fZ+XatWF7pdfPYZWDq2svuTT01vKdBB1Uhq2V2w/P46kXXwjVV08880wI18rKykIFmUO4LVu3qra+PlwvDuKmT5miay6+RFddcIEme8wsN1be2zVTDgVYDpZcDeXeVK7Ccl8ob2ebedxYnXnjoZp0cI0SoUohCrt8577NK5tCJZG/tqxsVOPmttB83WOVDSsKW+PmXTVLEw6qCXf2c1WX+1A5MOpo61LjprZQjeT+Xw6WXLXVXNeupi1toTLKh++GeNgZkwesD5bDo9o12/TaI6u0dqm3MBaFvmEbljWotLIwNJ2feexYlZYXhRDOlVhu7J5I5CuZjEK7opIClVcXh22GfXlTk77+fP5h6+eWVq1bulXLXtyotW9sDefreY2dUaVjLjwg9Dvz1st01dpeX7+7eeLgCrCiuwo+u+S50JD7+defDwHPZy75jE6fe7oqyqK+Mf53q7ahNoQzv3ng13Lw0ZPqCSHHjIkzdPXZ14TwY9LYyaEitD/r1ld/94P607N/0q8f+FUIzy459VJdeuqlGlszVr4zoftI1Td5W15z2Oro6qe6pq3/P3vvHR7VmW75LlDOOeecA0IJRBQZRI4mGufT8cycuXNn5j7339tn+pyebtuAEybnnHMQCEmARFDOOedUyiXp9npLorGNjSTTNtj6nkeNW6ra9e1379rht9dar+Q1peenIbs4W17H8xXnR+jPcynhEaEQARaXtWT6UqyauQrW5tbDndqz19XU1+Crs1+JQqmmqQZGekYCxaZPnIEA9wBRKZkYmkgO14usinIe6lPKD+ejOg91S0bVx0c+RtyTuwKCuG3eW/a+WDg5/5EOfo6iS4ELdy+I+qqirgKTg6KwccEGTPQOlWXyXMTw+Odv+llLAswTN46LsozgkF0qjfWM0d7dLr+jHZL2QUItqt3eWfou/F395bWv4xhTYL14q4gdsKMXdwpacC2nCZUtzGKDXLOUNXUhv64T7hY6+L9nOUqHQeZkJRS3Yuf9KqRWKuBrrYe1EywQ6WSIlq4+fJVQheMpdaKYmuFuhBg/M0x0MICNgaaEug9n9Pb1I6O6A//ndjkSS1oQ7WGCTaFW8LHSFXCl/tx1E8ExTzFs0KNOkKX2j4cW/N3j8jb8hcspbsVsTxO8HW4t1kZmc+lqjIe6AK/hzGrsNd9XgTGANbZvjFVgrAK/9gq82QCLFo12BRKTH+Hw2TNiB2Q4+6yoKVg+bx46u7vx8dc78eDJiiCOBQAAIABJREFUE4FQm1etRlRoKPKKCnHp5i250WLXwfDgYDgOdhY8c/UKPt+/HyXl5WJr27J6DeZOmy6QZtQ3D4OdkQinOru70NamEGtam0IhuVEMHactj/9NGyAzt/w8PeHl7i7KJv7u0u1b+PLAQRSWFMPFyQnTIiIQGhAIAwMD3L2fKOqs8qoqgSrskkggRPURs6VGHe4uUKhUFE1Hz51HQ1OjBK6zjjOjosRWx9yfhsZGgWi0C1KFRfXVECgiJCqtqkRZRSX0dXUlX4qAsbi0FNv27AHrTUA0f+ZMfLRpMyYGBo4KDNFiee3OHXy2bx/yS4oxeeJEbFy5Et5u7mJbZF6Kk7292EJ5A0FaUVFTjX0nT+LI2bOorq2Vv03w8xdbJrtVXrl9G1fv3kF7ewecHR0QM3s2ls6ZCx9PTxjofTNY/LU6kPyKABbr3tnWi+yECsTuT0dZVoMorhjmHv12ADwjbATYcFA1VfS0FuymV5xSJ3lezL8ZrzZOMp1owXMONEfYIoah20DXWFuynNj1kMorAiRCI0VTN9oaO9He1IWOth5ZLjO0lD39AooYHh8020nC5Nlt8VU4fEQ50q3K6eps7RHlVdrtUqTHlkke14R5zrDzNkFfd7+o0Npbu9Gp6EV3e4/8S4WbqY0+/Kbaw87LVOyPw7mJIPRjPhlBWV5SlYTlc30sHA1lmawn/+4SZIlJKzzhFmoNbWZu/RNuUN4kgEW1Ull1GU7dPild+njTun7eW2IhI8wZOpdQefM09ym+OvMl7j6+K3lNhBT8l8ugzXD5jOWYN2k+XO1doav148PFnz9Wcb+iEmnfxX2i/iIMWj9vPQI9ggT0ZJdki8Lqcc4jASicb1cvH7gw47BDgBfz0QivRPWkrQtjA2PJk7I1txPYQojFm3OqsyL8ImFuYj7iw2VNffUgwDqI5rZmTPCegM2LtmB6yHRYGFvI8gjWaAdkjdhBkbBoKIidii3CJGZk6Wjpws7CToAXwdGOEzskNJ1WTtb5/WXvCWwaDRjiuSy/PB/bj2/H1cQropDasGAjpgVPE8hX31Iv29/e0gE6WqqGJR1dnbiVfBOfHtuGjPw0gXDMySJEc7VzQ1ZRFs7cOS12TOZyTQ2eilWzV0sjAK4DYdjrOMYA1vdvFYKeli4lahW9YKB7T9+AgKzz6Q24kdsEJ1Nt/M/Zjoj2MEZjRx8OParGzbxmgT9G2moS7O5tpQt2JTz+tE5A1jxvE6wOtsAEOwMYao8f0fUqM7BSKhT4a2w5cuo6BDq9FWIJU10NebDT3dcPRVcf2ngO6uqTPC6uA5VinCsBHJVh7T19uFPQLEqu3LpORDgZCGgjBDPQUoeTqRacTLRl/rQnDucc9Dru2z/3nMYA1s+9BcY+f6wCYxX4uSvwRgMsPul9nJ4uHQSfZGaI7Ss8KFjyjgiAmlpb8OftO3Dq8iUBKoQuKxYsQE9PLx6lpYqCiXZCXw8P2FhYQE1dXWxkl2Nv40l6OvjsavbUabI8c4KP8WojsuOpnvr2SaA5u/BRJUUwll1QgILiYsnsam1pxTi18aJCam1rk2wpDTV1WFmYIyosDAtnzRb1z9Fz53Dx5g1RV61ZsgTL58+Hk72DdK86dv48tu3eLflPjnZ2WBQ9C0vmzYO/lzf0dFVPxUczOH/O88tDB3HiwkV5Yr1qUQze27ABPu7uclPCjCxaAaloc7Kzx/TISAT6+oplU5XN1YILN2/i1KVLMo8506Ziwcxo+W/aIQ+ePi1P7GnX/HDTZgT7+o7cqjkwIBlnhFdnrlyGtZUVNq5YgekRkSitrMCRs+fQ3NKM+TOjsSB6JsxNTEXVdjshHjv27pV9yNbaWuawYOZMuDk5o6yyUmp6/vp16OpoY+m8edi0ahV83T2hpaX1el94/coAVk+nEgWPa3F7bxoKntTIBbd0QdzkD/8ZDs/C1Ls7mZdVg8QTuShKqYW2vgZsPExFmcROflRfhS12F8gzpCSSDoRFLXh0uQBZ9yrQ3tojge19Pf3o7emTrxVVTSbWeqK2YmC6jqEmXIIt4BlhCz2jUaojJAddZSvm+nAeXE9mfnUpelFT0oJHFwtR+LRGFGZGFroC4vgawjQqo/geUV/xv5V9MDTTQegiN7H8ibXyuSfnLzo+UHmlaOxEwZNagWW1xa0wtddHULSTAMLW+g7cP50nnSBpWwyc6YhJKzxg5fK8bXE0R54Xv+dNAlgEO1T3EAxlFKYLdKA1zdvZ+xlwUKmvanH6zhkcvHwQnd0dYt+jda28pgy5Jbloam2Cg7UDFkQtwMKohfB19hXA8WM75A1VuLunSwLDvz7/tShjV0SvxLyIuTClda1fiac5T/GXg39BQkq8AB19HSqDtQVuUZHFvC4DPUOEeIfAz8VPMrOcrB1hbmwhWViEVzwPcF35IEVXW++FAeYv20sq6yrx5ZkvcPjqYdCayYwudkhkZpWcZ9qacTv5Fq7evworMytEh0YjyCMIRgbGAgQJtq7dv4Yzd84IlCb4mhc5F5qaWth7YS92nvlKrJGs8XtL30ewVxA0NUb23eU6trS34ErCFQFYrW0tWDlrJVbNWiU5VfzsJ9mPpVbLZiyHh4O75AAWlBdIjhjD3qmymxkajZipMQj0CBSIyWwyhsHXNtYiMiASWxdvxZSgqTDUNxz1uf1l9X4Vfx8DWD9cRR7dmW3FIPfs2nYBPzeym5FV2wFvS138rzmOYuN7UqHAkce10NNSExhEy+G17EbkUPHb1YcuZT9meRrjw0m2mGhvAH2tkVv1upX9opz6250K6US4JdwaM91N5HtL0FbZ2iMdEAsbulDc0CUdE0111bF2giXmeJnIehBqlTV343Z+M86mNaCcdn4tNehqqmE8BkQN5mSihUnORmIpDLTVg4muujQdGulQJW6ozpBDwfLfXoyql8g/ojn4sGoUHzXSqf0krx8DWD9Jmcc+ZKwCYxV4jSvw5gKsAYhyieAkLScbrg6OYhN0c3IS+x3talQ5nbx4EWevXkVdQ71YwBbMnCUXqofPnEZOYSEcbO2wePZssRASunQzp6mjXcALn4wyx4lZJbxod7CxEYURVUcvGzzB0BZYUFqKtKwspGRk4GlGukAmwpPevj4Jlafqh9CHSqm8oiKcuXoVldXVcrFPBdjSefMF6Jy9dlU6/k2LjMRvt7yNSSEhYh9kN0KCGyrQxg0Ai+bMxqaVKxHo7QNtbVXGymgHMzdyCwrx+YH9OHP5MgbGjcPyuXPx1vIV8PfykprUNzXhywP7xYbHG4mF0dFiuwzy9ZX5EchR5bT7yBG0tSvE1vfhxs2wMDXB/hMnsPvYUbHuxcyZgw82bpR5jyhrTDJN+nArPh5/++pLAVnL583HmiWLZTnHzp0TaylvelbMX4B31q2TbCwCqi8PHsSxc+elnTrB1dtr1yLEz1+Wd+1OLD7euVOaAbADJdVhUeFho8pvGW39R/2+XxnAUuVD1eLm7nQJcu9XDsDKxQgzNvkiaJYTtPVVFlqqiRorFUi9VYLS9HrYeZrCe4od6kpbkHK9RPKiQha6wcxWH/JlGlBdGjdVt+PRpQIkXypCV1uPqgsgg5qbuqX7H61zExe6wcLRQEAOD6r8Pe2Hz+DxCK7RxbLHp/LtvejpVqK7XYmW+g7UlbQKTKstbkZDhUI+n7lbGlrq0NQaj/G06GpAukPyu8iLdV6+S+6Xsl86MnpF2CIsxg3W38jGesGeNgB0KrqRnViJpAuFqC1qga2nCdgV0jPMGhraGqLuSostk9wyBstbORthyjpvqQe7QY4WnH/ffv+mACwqbctrK0R9de7uOVEhETpEh8+C9nNQhGqmR1nJ+OLUF0jJT0GEX4Son9wdPVBdX41LCZdwMe6CKLmMDIwQHRYtnQsneIXAUI8PCEawU71oE1OFWluBQ1cO4kbSDfn8t+avh6eDB9TVNcTOTnUWrYW0CdLS6OnoBUcrVefEuKd3cSn+siiqmNUV6B4oSiw9bT0VvFJXwasfO2jzL6spx+cnP8PxG8fluL5oSgzWzVkHXxdfeaDAXCzCrd1nd4nSaf7k+Xh3ybsCsQjRqhqqcezGUYFVbX+3ds6LnId3lrwDOwtbCU3fcXy7qMpipsQIaCQ84vtGMqQLckkuvjj9uUCsML8wfLDsQwljj3sah13nvkZhWSEmBU/C1ph3EOEfKVliF+6dxydHP0ZZVRmCPIPx7tJ3MTtstmR4ZRZk4PPTn+Nm0k1pALA5ZguWT18BCxPzV/79Gsm6Due1YwDr+6vE43JXbz9Km7oQm9csweyN7b2SK1XU0A0HEy38z1kOYhe8mdeEgrpORHuaINhWH81dSpxMqcdXiZWicmK3wXUhFtgSZg1PS13JpRrpkYEAK6m0DX+NLUN+fSeiXIxgpKOBwoZOsTRWtvVIV0KqrjTGjxMoZWWggSkuhnA110FhfRcyqttR2NiFxo5edPQMQE9jPEz1VOpnQrrW7j6Zl47meEQ5G+J3U+www8NYljXc+YoaTNkvNWjhw5q+AQF75voaYk9ktq3AnUGgRsDH19OGaaStDjNdVYbXmz7GANabvgXH5j9WgbEK/NgKvLkAi0+vlEoJXucFLYHPi26YeKBvVSgkz4jgiCfKB48fY+eRwwKWzE1NBR7Z29iIVY9KqebWVrS1tcn7+MPfe7m54bebt4jVjUqvlw1mbRQUl+DPO3bg7NUr0qmP82T4d4CXt8w3Iy9X7H4fbtwkECslMxP/vm0b4h4+kAwmKsamRkQgNTNTQB2zvGZMmoR31r2FSaGh0NXSkhD6P3+2A6lZWQgLDpaOe9GTJ8scf+wNJDsEZubm4rN9e3Hxxg0wWcfD2Vk6My6aNRtBfn4CqD7+aqeAQmdHe7y1dBlmTZ0qlkx9PT1U1dXhs717pSsgYd0f3nlXlE49yl7sOXoUuwRsqQDWh+vXw3+EAIs3WYRW23fvwslLlxDs54cPNmwUy2hicjI+278PuUVFmBIaig82bEBkyERRtFy4eQN//fJLpOdkQ0dHR8DgxuXLMTk0VDo67ti3V5ZnYmyMDzdslO6ItHb+2Jq+bL95JX//lQEsZlOVZtTj1t505NyvRF/vAKxcjTBjoy8CZztJh8Ch0accQHtLN3o7ewWy8EaC+Vnl2Q2SWeUabCWPdJlpRYuxgamOXBBX5DYiO75CfucebgNFQ6cEqjP/ipbDkAUuEpzOBXKfJCyj+on2KoIXBr0Tag0HOhBeMZ8rN7EcVQXNqCtuFYhGxRcz8SgNpQKMAfHsdmjvbQpzBwMYW+rC0EIXeiY60Nbj56mpQqu7lGhvpu2xS/Ky+B7aDn9oLlSZFT6pQdzhHBSn1cHMwUAsgoFUtBkMAsH+AVTnNyP2QAYy7pZLiSfMdUbUGi8BiD+2A+q3vwtvCsCiojQuNU7ADwHRkmlL8dbc9bA0VVndOLhdqhuqcfz6Mey7vE/yjhicvmDyAlE/SWOEjjZciLuAXed3IbMwQ6ARbWWEXAxYp1VvRLD/WwUlQEtITcD249vESrtp0SbMmDhTOt09+7709aNF0az6LugaYDxU9sbM4kxRBVG9RUscrYcEPlSG0T5INZarnavAO5WVb7i3qN89AjJkvqiqGDuO78CZ2NPy/aQ1b4LXBCycvBD+bgGS07Xn/G4JzDc3NseWmC2YGzFP5mKgoy9AcfeF3Th16yRMjU3x3pL3sHjqElFoHLp6CJ8e/QQdHR1YPHWxZEsNrc9wj8eSxdnahAvxF7D9xHZpqPLRio9keWW15dh19muBhLaW9ti8cBNiomIESqbnp2Pb8W04e+eMKPOo0Fs79y0smLQAWhoauJxwGbvO7RKlG1VZ7y+n6swD419T2+Dz9RoDWC/ee3gd1d6tRFplO449rcPV7EYJOF8aaC55i6dS66XT3/+Y5QgXM21kVCtgbagJX2t9yZvKqenAvqQanEipR2Nnr8AaCz0NbA61xNvhNnAz1xZgM5LR3tOP+MJm/PlWGW4XtMiDEQ5+b/nVZe4VsQ9BUYSjISKdDOTceSWrCfElraKiMtRSg57GOHT1DkA5MCAqK+ZocSonUupwMbMJTZ29stwoJwP8t2hHzPYyEQA1nNlySq1dSskBu5TZhNj8ZjS29yDYwQDvRlhjqquRwClaHAnTLmU2iqqtorkbhjpqWOhrhq3hNvAw5/FoJNV5/V47BrBev20yNqOxCoxV4KetwBsNsJ4vldyo9faCWUg9SiW6OjvR3tEhFjd2KKR1j3Y4KqKoZKICh3//x0l6nDy9UZ2wVU9xeNLmv/xhaPqi2bPx+3feFXviy54s8z2EZp/t3YPdR4+ioblZlD8bli/HkjlzkV2QL9lSVDG9u+4tyV0iaPnTtk9xLTYWVpaWYnekzfH63bsC22hHpKqJ6qalc+fBx8MdN+Lu4dCZ0zAyNMTWNWuwelGM5Ey9bH7D2c34ealZmdixZw+ux8XBydYOk8LCUM1Mqb4+zJsxQ+ZPCEX4Rtti5IQJkuXFnCsG5jNYftue3RKSTkvkv777Hvy8vAQM7j12DF8fOYzWNoVKgbVhPQJGALDkJk+hwOXYWFFf1dbXY3VMjEBGQjGqxu7cvw8PFze8v2G9WEGZw8Uujp/u2oXTV69IvhVvYnS1tRHs7y/rxOeXRy+cl/VcPHcePty4USyTkp31JoxfGcCiAqs4rRa392RIwDgVWGIh3OwH/xmOzyyE3950BCINlQo8OJsPTW11hMx3hrG1HurL2lCR3QBTWwPYeBiLLVAFHeR/Zfm0zd05mCn5TwRfHmG2YkWUpgwKpeRQMR+ro7lb8rUc/czgGmItlsKXhZz3dvUh92El4g5nCcji1b2ekbbYGo0sdNCh6EFlbjPM7PQwda0PvCfbSu4W50dY1aXoQWd7r8xT11gLhqY6GD+C7oBcTn1Zq4TiP71eIuAtZJ4Lwpe4Cyh7fv4MrX9wOk9qyHwu91BrTN/kC7dgS2hov9rvy5sCsIqrinH4ymFRzfi4eGPzorcR4jXhG7CJECgxNVHUVwVl+YiZthjr568X6PN8phEh1vX713Dk+hE8znksdnQPRw8JWZ8dMUcse7TlfbvD6ssOUzx2VtZV4OCVQwJJGF6+YcEGONs4fydTicdHZkjVNtWhur4KOSU5iHsSh8T0RDQ016vOl6DKr086/HGYG5ljSvAUrIhegciASTAzHD38p40uvywf2459isvxlwVeTQmeitLqUij7ejFtwjTo6ugJBGJY/sKoGLEHFlUVwUjPUJROHZ0dArDuPrmDMJ8wfLTyI1GytXcpRLn1yZFPpEskIREVUAHuI1FgDYjqKyU3FV+f2ynqq8lBk7F54WaYGZlLd0Eq8foGBrB2zhqsnrVaQudpCWR4P+2L5bXlUkNue27TORFz4WjpgNjHsUjOTkaAWwA+WP6BAEbmjL0JYwxgfXcrUcFU09YjNjvaAh+XKyRsfd1ECwEs8YUt+Dy+Sqx1BFiTXAwFRlH1pOwfEHXU8Sd1OJdeL/Y8Xxs9AWE5dZ2Y5W6Mf51uj1AHA1FyjWTQJnglqxH/J7Ycj8oV0NMcDws9TVFZ9Sj7kVXXKfOY72WMDybZItzJALVtvdibVINLGQ2wMNBAlKsx7Iw0ZTnssrgi0AJbI6ylYyFB3fZ7laLoouLqvQhr/HG6nXRe5HX3ywbPSbWKHlzPaZLMr8zqDjR3KwVoGWiqYVWQBX431U6yti5lNeLwo1pkD1osWTcbQ01smGiJjybbSQ7Xyz/xZTP6ef8+BrB+3vqPffpYBcYq8PNX4BcDsGhDIxRKz8kVa2F5ZSWKy8pQVl6J+uZGUVFxZZknxftQ2vt4EmAQOcO9CVx0tXVUSq7x4yV7gvCFT2UJQ6iqoOLo7dVr4O/NHJOXyJAHIFbEI+fO4ZOvd6KiuhozJ0/G77a+g0AfHyQ+eoTP9+8TiMZMKHb14+f8dedXuBkXB09XV8yeMhW1DfWyTiaGhtJNkBCOYMxQX1/UXFSL8WfJnDl496310hlQW3tk2R3ftxtS4fY4LU3C1tnNMdDHG5tWrJR5MleMmV2GBobIKSyAsYEhfvP2FkwJC5dMqbuJiaJus7GylAysqppagXe0N1r9XYnV2NKCPc8AVptKgbVhw7ABFrcH4VVyaqpYAa/dvQNtTU2pG60X1XV1qG9sgJ21tYTOMzOM9WLY/ImLF/HFgf3yfhNDI7Qo2gS6cZlUjTEIn8o+KvP+ZfMWTAuPgO6PyBL7yb/mvzKAJRlYT2pwe28GCh5XS7kdfM0RvcUPXpPsoDUY4v7t7UDlFrOwUm+WwCnQAr5T7SVDioHw7EzoM8Ueth4m8rS2u1MpoeW0EFLNlP+4Bum3SqBo6oK+qa5Ans42QqteKLuUg+Bb9YnMmiLYmbrOB64TLJ8Bse/bL6STWVMXchIqUZbdAF0DTQleN3cyQntTJ+KP5aA4tU7mFxTtCD0TbQl4JzSrK2tDVW4jqotaJAPLf6YDJq/0gr4JA6OHtyeyBumxpbi9PxP15a2SdxW1yguekbbfgYEMuE+5USywjRlZdt6mmL7BFz5T7L6hfBveJ//wq94EgEUb2rUHVyXTijBnZfQqLIxaJGHbQ+UXa15ViSh/rj+8LrlXmxdtRpBHsFjwnh9UHym62pGal4oLcedxK+mW2Pqohgr3i8Cs8FmY6DNRbH3Mxnq+u90PVZMZXXee3MHO01+hb6BfuiNOC5n2DfXV0Pt5LmR3xH2X9uHmgxtQdCpgJUHkdqIW09XSRd9An3RTTMtLRUlViaw7FWILohZia8xWTPAMFlviaAbt37Qw0mZ36+EtBHgG4O2YrWhSNOFs7Fk0NDeIZbGqvkoe8Hy08l+wYNJ8JKbfx62kmxJ8ToXb7eTbqGioxKqZK7F+/gbYW9qLuuzQ1cOiwGLXSAIsqrMChmkh5HeVMJI5VkOB/czrImRkUDxVWVThMT+M6rpNCzfB08lL8iTZoZKdB5OzkmBlaiWKclohpaOjlo7sC3woR4Ub57ty5krp4Phj1Gyjqf9o3zMGsL5buc6eflzLacSO+Eo8rVAIwFkbbIFVQeYSmH46rR7b4ytgqKUhFsIoNyPp3scugbTyUZ11KbNBVEtUN83yMBEYdvRJreRmScc/S13pDjjcwX24pq0XR57UYvfDagGtM1yNRR1FBdjN3CZsj6uAvpa6LH91sDlsDLXEmkcLY52iB27mOjDX08TD0lZ8HFsuFr+Pomyx0McUXcoBgU7bBgGWm5k2/vssB6wNthy2+oph9Rcy6nEmrUFUaL7WumhoV+JiZiPKWrox081IQue5Hrfym0QNRtUaIVZqRbuExhOmbQqzEnXbmz7GANabvgXH5j9WgbEK/NgK/GIAFsHEldjb2H/yFNKyMgU+EUYZGxrC3NQMluZmAjCMDAxRU1eLhORktLV3YPqkSKxbshQujg4q73wPbz77RW0j3fTUxkOhaEdzawv0dPXg4eIiWVnDGZwDwc//3rYN6bk5AqnYGZAtxuMe3Mfl27cFbNlaWWHp3LnwcHXF/pMnxfrm6+Uldr3GpibYWFpJdpSlhQViExNw4cYNyWbq7u4WlRgVYb/buhULo2cJiHtVF7i8eGZnx227dyHh0SOxKP7u7a0wNzHB6SuXceLCBcng4g3GguhZ+MO77yLQ21syvE5dvoyb9+IEdtGSR/XZ79/ZiujJUWLZY6A9lWn8YTbWotlz8OHGDcPKwKJFp7SyEg+fPpFOgawxtz8v2WipUSkCAEcbWyxfsADrly+Hu4uL3CCwIyXBIVVYc6ZNk9B/AsFHqSkC3rhchhmbm5mJmuv9t9bD3dn5R1l1hrOvvNLX/MoAFhVHzGq6vS8DZZn10k3QfaIVZm0NgHOghVjpvj34RLdT0SPwinlYVFHRWpeXXIW8B9UwttYVcMN9id0GCbRo42upbUdLXSfaGjql+yDVSBpazJ56zh44aCNkV0IGqtOOYWKtj6jVXmI1NBQLww/fYPA9BGxUtUjm3gDQWKVAyvVipN4qlawtdhXU0FYT6Nbe3CUWQUKsvp4+2f8Jrfh5BGfD+cyhGjFfi+qr5IsFov5ijhjtg5Kb9a227KxBxt0y3D2YiYqcJrFuTnvLBwEzHcWi+SrH6w6w+vqUyCzKwtdnd+JR9iOE+0dg4/yN8Hf1g8ZzeUqt7a3Sde7YtWMCKdbMWSvWQEKp5/eLvn4lqhtqxGpIeR0By90nd3H+7nnkV+RDW0MbFqaWCHD3R6hPKPzc/OFm5yYh5tqa2lAbN15Cwr89eLxmpzzmQV25f1kseL9Z+RsEeQbJ+769b9JqeD89EduP70BqborkSq2ZuxYTvSfCQM9AlbeGcQJrTseelvWvrK8U+yABHpVIXs5eo+6WRzt+RkE6/nbkb5IlFe4bjt+v/T1MDE1x7s45nI49hZLKEgmHZzj7f9nwX8UCWFFbLsHphH7sUMj5OVo7ipJpdvgcgV78PWEj1V3tXe1i+WN2FrswviwDq79fBe1S89Nw+9Ft3Hx4A4UVheB8CRL5Q1jJ7Tp94nRsiXlb5s7zf2FFAY7dOC6dCh1tnLBixnI5lydnJeNx9iMUlBWgtaMV2ho6oub6cPmHiAqK+g7gfJXfr1e9rDGA9d2KchsXN3YJiGLXvwAbfSz2N4O7uTYU3aqOgl8kVAnM+h+zHDDZ1VCaEBQ1dOJkKu2GTdBSG4+lAWZYHmAukIbQ5lF5G/Q11RBkpwcTneF1mP0HoFYpu76+X4XHFQos8DbF0gBz2BpqoaChE5/eLce59Ab4WOnK7xm+ToBlbaAhSi0eY9gdkZCJr9uZWAkrI0386zR7hNgboL69VwDbjvgqVLR2Y7qrEf7fOY6IdDYaNmjjMqj04vsjnAzhZqYj4fYf363Aw9I2hNjpSV4Y5+BnrYsYfzPJBosrbMHJlDpRj60OtsQcT1Xm1psT2THeAAAgAElEQVQ+xgDWm74Fx+Y/VoGxCvzYCvxiABY7C2bl5eLc9WtIepoCHR1tuDu7iLqKgMia8MrQUILTbyUm4NCpUyivqoKnmxsm+PnJhSGfnnd19wiQoVLL2tISQX6+CPb1k/wjQi3+DEfyzA1DYJKRlycA617SQ0SGhEgGE+12iY+SUdfYCANdXenat3DWLLGxMQydf/dwcRXg5mhnKwHzUWHhoroqqaiQzngMbc8tLJS5Mpx+/dJl0imP/82n0C+7QR7OjkMAx3myG9+j1FREhYfjD+++By8XF5kjrYOXb98SNRsVVL99e6vUkidXwqD9J47jamysqJnmTp8u+VdcVyqcaPfjuu49fgyKjo5BBdZGUaf9UK4Ll021FG2VB0+fks9hXhmhmJGBgVi4qAwz0NfD7GnTsHXtWkz0D4CmpobU7sjZ84hNjEeIvz9WxSyGp4uLwE6uH62YN+LiJAeN2yI0KAhrlyzBrClTZV8gEH0jxq8MYLU1dkoI+93D2RLIzu6CATMdpAvh92UxERDR/sYcq5rCZlFI9XQpBV4RRvlE2YnqKj+pCnWlraCtj79n/hNzSpiRRXDl6G8h0Eab3ZQY4M6MqsHAeGW3UiAXFVvkCJ6RNvAIsxlRwPlQhhXVTel3ypD7oBL6xtoC20rS61GZ2yjZWMzc4rwItgzMVH938DGDZ4QNnAIsxCI5nMFllKTV48buNOQlVcHIXBeRyz0QssAVRpbfBW/sipgRV447BzJRkd0otZi6zhuB0U6/KoAllrz6Spy4eQJHrh6W/CqGrhNOEfjo6zCTEKIETsl7Kta9kqpiCSNfNGURLEwsBHjwZnXIwk6V1KWEi7iccFW1/zh4wlDPAHce3xH1VFd3l8AjLQ0tAUlO1k7wdvZBsGcwQn0mih2RkOb5joUEKrVNtZKtdeDSfuSV58HZzgWLJi8S+EM1mLE+88v+cZNHhREh0I4T21FeUy52w+kTZ0gmFxVMDG2nxc3G3BaJaYn4j/3/IeH01uY2oixbO3st7CztRm1rZ6fdp3lP8bdDf8PDzIdiHyTAcrd3F8XXgSsHpftgT3e3zO0Pb/0RwZ5Bcv59mpeCQ1cO4cbD62jvbJe//8vK30gnQAKvhpYGySrbcWKHKJ9ipizGewRYni8HWHzAk5ydJBZEAqyahlpRZrM7IGvDzohUrzGra+OCTZgbOQdmBmZoYsdE2grvnBWwuXzGcrFbcvsXVRYJBDx396wo2QiiGZ7PeS2dtgSeTp4CGd+EMQawXryVmFlV2dKN2rYemOhpwH4Q9DPb6avEKoFUnhY6+MNUO1gYaEp3v87ePmTXdEiQOkFNpLMhHI21BADRltitHJCsKU11VRTGSAaXeb+kBfse1kgW1zsR1giw1ZPPoh3vL7fLkF3DsHgN2BppCgAiHApxMBAY5WWlC0218bJOux5U4VpOE6I9TETxxHUraerCvuQa7HpQjfbuPlFK/fdoBwmqH+5clX39qGVTE+WAqKm4zrfymsTy+LBMATsDDbiY6WCGuxGWB5rD00JXlFqcU3ZtpzwA8rDUgZ2RlsC2N32MAaw3fQuOzX+sAmMV+LEV+MUALB7QmXfFbKuq2loBUAQ+VClRYVNdV4vaunpU1tSI5S0rJwfNbW3Q09cXG6GRvv6zrn3sQEiFEIvj7eEhnfWobnJxcBjRRTjnVFVTg0++3oWz166I9ZDB7BVV1XiUlorCkhIJj18VE4Op4RGSc/WXL79EQXERQoOCMTUiHJNCJiLY3w9mJqaiMCJ0o33v4OnTsp5su93V0w17a2tRFLGbnp+Xt6z7j83B4s3W3Qf3sX33bmTk5mLWlCligWSgfWlFBfYcOyo5VlQ/uTg5CexZuXARXB0dxdZ47tpVfHHgIErKyxAxYYIEzHP9Obfa+jrsPHQYe08cl3B6lYVweACL1r+79+/Lewnx2Hky2M8fujo6uP/4sdTRw8UZm1atkjnr6+rJZ9AOeePePZiammD+9OnwdHETsEWYRvXe0bNnUVBSAn19fYFgBHO0JC6eMwfzZ8x8pXDwx35xf/D9vyKAxRvyhvI23D+Vh4fnCwQWmVjrImKZh/wYmuu+0DrHrny1xS24tS8DRU9qoWekiU5Fr0AgVVdBV5WNL7ESrQ2dkj9lbKUHbX11lGY0Ij+5CtbORghb7AYrNxMJRCck0tAeL4qpIQjBz6HtsKerD/q8+DfR/o6K6Xu35QAEgDFgnvCKgIjKsAlznCXbit0Bi57WiFJL0dwtAM7SyQiBMx3gFmoNCwdDsRdSgTbcexplb5+s8/WdqaKoYpbYlLXe8JvuIPld3x5Uv6XeLsXdg6pOhGIhXO8j9kbmcr3K8doqsAYgIOTK/SvYd3EvUnNTJc+Itr7IwEgJ7J4UOFm62eYU5+DwtUO4/uAGHKztJUicdjGCDgIoL0dPseWJ8q+rHfsu7sNXp78UpRChS3ToLAEbF+9dQHWjyi7LIZ0vx6tDX1sfXi5eWDZjGeZFzoedpb08MJAxMIBmRQvuPLqDvRf34GHGQxCS8aGMjakNQnxDpAvftAnTJQh96CFIR2c7LsZfxOcnPwfzvQijmGlF4EO4RUvchvkbEO4XjpzSHPznvv/E7eRbonZ6Z+k7WDp9GSyMLUb9UIUKMCqT/nb4r2KlpHrqd6t/C3cHD5TVlOLwtSM4fOWQ2O8crBywMnol1s1dBycbZzS3NkuwOgPnc0tzEeI9EW/HbMGssNkw1jdGfUu91ILrxnWJiVosGVhUo71MgcWHR5lFGQKwqIyjhZPKL2cbF7EUxj6+LZBsVfQqLJu+XObGzr5FFUW49egWmtuaMClgMsJ8w2Gkbyifn5SZJF0hCeqoauNntLS3StdBAkY2BCCg1NPWF2Ax7C/2q/wiDnNZYwDr+wtFm15/P2Qb8tzR1duH1Mp2HHxUi7sFzXAy0caKQHNRRiWXKuBmoY3pbsaifrLWJ0RSKX65CwxGM6q+4oNshscfDoarvwwSUd10IaNBrInsPkjAREhE9dVn8ZU4m1YPSwNNeJrrSCfBjOoONHT0wtVUG5vDrLA+xApGOuoSrr79XoVkYxFezfM2Ffsj86q+ul8pOVhUif1+mi0+iLRVdR8cAUuiek2OdQAa2ntxKq1B1GEZNR2w1NcQu+L7k2wQbKcPbQ1VMDzrzE6FHARXIw23H+au/pO/bAxg/eQlH/vAsQqMVeA1q8AvBmAN1ZVqmsLSUtxJTERadjYamxpR19AowITKGnbW4w2mQqGQ9tthQUGIjpoiXfNoGWRBisvLcenWTSQ9fYqBceMwNTwcv9nytgStE4yNZLS2t+PImTMSVm5lYSlB6+w8+PDRI5y8egVmxsZ4Z+06yde6fOsW/vLF5wJU1i5dii2rVsPHwwO6urpyMm5qaRHl0f6TJwTcTAwMRHjwBBSVlCD+UbIoiSb4+4vaKWriRNjb2sqT4NGqsQh9bsfHY9uevcgvKcLiWbPw0ebNcLS1Q0pWJr44cEDsjMwfo2rK18MDby1jSP0cqSWVYp/vP4DcogKxctJCuWX1GkSETECboh07Dx2SdRkJwGLteVFPEEkg1dLaKio6zolQcPexowL25k6dhmkREQI1K6qrBABShcdBOyNVeZwzYSWD3o+eOyv7zQT/AEwJD0dDY4PYJgnuuC4MpKcSK8TPX7opamio/2hAOJL9aESv/RUBLCqjGOAedzgbWQkV8j1x8DOXDoRekTbQ1Hnx95X2voqcBtz4Og1ZiRUSeE47HrsQTlntBfcwa7H+UWmlVPZJiLqmjrpAL1F6lbVgwlwX+E5xQGdrN4pTa0WlRQWSjYeJdCQkOOJNxlD4u9xuDPOCXdqFt/dK1lXqrRIJVbdxNxFlk4OvmViTGOROSyMtfwRcnBsVXgRIjv7mUNdQG/bnDe1fDIEnkLqxKw11Ja1wDrKQoHivSd/Nv+J7qH57fKkICSdy0FijgHuIjdTeZYLlsFVfw923X0eAJXllf1dbEWCwWxy7+hFEcPABgp2FPdbNXYuNCzZK51V2yTt566QEhkeHzYSviy/uPY1HaW0ZgtwDsGrWakwKiBRVEx9MHLyisrfRqkYLGbOQCLweZDxARU05Oro7BH4RlFDlZW5iAScrJ/i6+ghYIqRRPchgVlM3HmU9wu7zu3Dj4Q2xJFKhxXUgyLIxs8GqWaskp8nZ1uXZ8Y1qspM3T+DLU18KmDHQNxAY42LnKiovP1c/sRPaWtiioDwf/3ngP3E14SrcHdzx3rL3JAeLeViq2+2RDwbIMzD+48N/kwD5RVNj8NHyf4GDlT3S89Ow5+IeXIq/JBCRCjaGvLPeK2auFLXSpYRL0qEw/e82RNZjSsgUrJ+7XuBRZ0+nQMcvTn6Brt6RASxCglZFqyyXajoLE0tRSw0FxhPiETYtnb4Uejr6Ah65nSQoX2285HIRsjGUndcltEkevnYY8SnxsLOwxVSG02vr4knOE6TkPkVbhwI+Lj6YFTYLkQGRshyq78TCKaUdXX1HvkWG944xgDW8OvFV8gC2pw95dV3IqetQxSGMG4dDBFpFLQi108d7k2wQaKsvVlO+lp0Du3r7JR+rt39AfghrqPDq6OmT4Hc/az342+rBQOvFtjkqmQjJDiTXiMJrY5gV5nmZoLcPuJnXhL/dKUdv3wC2hFmJ4iqlUiEdEFMq2iX36qPJNlgzwUIg2eWsRuxPqpbfvx9pDW8rPXlvYkmrZGixa6CHhQ7+12xHLPIzeylY+77qcf3LmrqxL6kaXyZWoUahRIi9Hn4/1Q4xvmYw1FF/zb4Jw98PhvvKMYA13EqNvW6sAmMV+KVW4JcHsLq78SgtDdv37Ma569cFdtD6RWAR4OMjipqGpmZRFtECsDpmMd5ZtxaOdqon1SwI86Vomzt77aq8d/HcudIpkFlTI21bTqjEz/r466+lg9R76zcIWLnPEPcD+wWObF69GsE+vjh/4wY+3bUbSmUPPtq0WRREttbWz+BV3IMHOHDmNNIyMwVsvbN27SBsacLZa9dw5uoVyXCiGityQohY/gi0CFwYcD6UDzXcnZnWPgKzHXv3oqKqCisXLcTWteugp6ODizduYO/JE2AeFS+gCdR4AR0VHiZB9/zM4xfO49KNm+js6ZYwfAaks0Pg1tVrpMvi/hMncODUKbFuDleBNTT3vr5+AXa8cKdtIy0nB18eOICb9+5BV0cbAd7e8gSdiipFZ4dkb727bp1sf9aBAIDwKu7hQxy/dFHUcKGBgVizeDEmBgSKci+vqAhxDx/gSmysQE0bWkp9feXHz9MLzvb2Yktlu/PnLTfDre8/7XU/A8Bqre9CwolsJJ7Kg6KhU2DLjE3sAugwLCUOIVDKzRLcO5qDKoawWuoicqk7wpe6i/LpRRCWaqnmmnbplMcueHUlzTA000PwPGdMWukhCqTv6/gnACt3EGDFV8i9n7WrsXTaIyT6tl2OWVYN5QokXcxHdnwFXIKtZG4WToZoqmqXbKrshErZpLQtEjIRIpk7GEJLT11uWIc1Bgho+wUMFT2uRUZcmSjBXIIsRRlm5WasAlODg4opQq7Y/RkoTWuA12RbyaCy8zKR/L6RDuZppdwowc3d6RLg7jrBClPf8oFnuA20dL9pQ2T92bEx/ng2Hl8tRr+yH0FznBG1xgvWLrShjfzzf2i+rxvAUql+2yXvigqfmw9vQtGlECuYdLHt74edlT3WzVmLmaHRYq87feuUWMvC/cNFfcXB96bkpCLQKwDvLn0PMyfOhL6OHrp6uwfzmbahsbVBAts/WPYBfF390d6pALO0unu6BLTymMYwdWNDYwFMGuO/+eCiR9kj3Q73Xz6AM7GnBfa42LhINlVlXRWyi7JgbmKOt+a9hfXz1otya+g716JowcHLB3Dg8gEJYmeeU5h3GBysHWBpaikh6dqaWmJVJGD6y8H/xLXEa/B29cWHy9/HnPC5YnEc7aBVktlXHx/5GKXVJRJm/s7SdwXusIPi0WtHUNdcJ/CKCjECL9aXuVG2FnYCDK89uIbWthZRjTGTambYTMkn4zocuXZUVG4jBVgCHvr7BUxyW/NYwyB55m7RntnY0ij2QWtTa1GHldWUSbg7M7YIz9hshHS7W9mN3JI8HL1+BPee3pPw92UzloviykDfEBU1ZQIeCR2TspIEWjG3LNAjEP5u/mKlZN4YFX4EZKN9YDXa7fN97xsDWC+uDPVAfEDB7y0VQoRIFAkRQCm6+qTbXmVLD5JKWyUrq7ChC44mWgKj9DXHSyh6h7JfLH490vlTBa7YbY/L4v/n36jSmutlKiopKrc0vnU85jyYGXUnvwn7k2rQ//ecxT9Mt0ekk4HkdNHydz27EXO8TfHBZFvpjHg1qwGfxVeJOmuOpwn+OM0eATZ6KG3uwtcPqkWFxe6DS/wZSq+Opk4lrmQ2ijIrp7YDszxN8P/MdZL3jHZw/djl8POEShx9rMq3WhVsIcouH0teK4x2yW/O+8YA1puzrcZmOlaBsQr8cyrwiwNYBFYl5eXYffSIdLlram0V0MAwb9rAbKyskJCUhM/27ZUsJf5+ydx5kp+kp6sLbS0tJKU8xc7Dh/HwyROxjb2/fj2Wzp0H42GGtz+/qfr7+pBTVIRPd32NJ+npmDd9htjanmZkiPqos7sbUaGhovxhhtfR8+dhoK+PP777LtbELJbA+IbmZpnz0fPnJHvK2d4B65YuFbughamZfBwVUruPH8fJixclRJ2wSGWt80OQrx/8vb3gYu8gSihNTc1hqYdo1WPQPAFWU0sz1i9fgTUxMWKv3HfiBNKys0S9xm6DR86eQU5BgUBCQqDx49Vw/vo1UVoxIJ+h6Zm5uTAzNcWqRYswd9o03E5IxNFz50YFsLjOvGlo7+hEbmGBZIKdvXpVug8yA4zryNpraWuLMmzZ3HliBSQ4Y0g7bZx3H94XlVhRaSlCAgIl7D1ywgSp3dDyqYY7deWyWCW5Dlwu9yFmlPl7eUnXRF8Pd/mdvq6uBPT+7DcQPzXAGsyTijuShYdnaePrgqWLkXSjC5rlDF2jl1vJaP17eq0I8cdzUVPU/FKAxYv/DnYDfFSNpAsFKHxSIwoPt1ArCRx3n2gtiqnvG7T21dBCuDtdQsgJzGjNC57rDAsHAwmClxvUgQFRVtGmmH63DOm3y2Biqyed/ZwCzEXh1dfbh+rCFjy9Xoz026WSraVvqgM7TxMBQFRzWTgZQEPzh3OomGNFy2BtSYtkXbELIa2BhEfhi91g42nyDXjF+fV2K5GfXI3YA5mozm+G3zQHTF7tCQsnI4wjRBngTbYqH2tICcZ/mdeloaUu3ROfH+xmmBlXhutfp0k2GNVsVGB5R7Gr4DfVbFRrFTyuwd1DWShOq4Opnb50K2SAOwPkX/V4nQAW9wvCkMzCTFHNXLp3ES3tLaJCsrdyQF1jLcqqy+T/L5yyUNQ2t5Jvobu3GxG+qu6Bvi5+Alx2HN+OBxkPRXn1/rIPJDOLD05EgXX5AD49/ila2lowf/ICvLfsfQS5B4rtb7iDoeIVdRWSuXTk+hHUNtTC09ET8ybNEwXQlYTL0g2RnfA2x2zBypkrYG6sUqtSudXQ0igKppO3T0rg+Oro1XBzcENbe5uouIz0jWR5XMes4iz8x/4/S2YW1UcfrvgIMyfOgK7O6G9YqTJjB8FPDn8sSrS35q8X0FbfXC8KtczCDIE5nPOVxMt4kv0Evq6+2LLoben+d/HeRemcSFVTbkmuQDZTI1PpDjk3Yi4epN8X9dxoAJbqGNEv24qh8YRMzNzifkGAq6tNhVu/wDVaL6NDo0Xl5u3sLd6vhtZGpOWn4nzcecSnxsPazEYyw+ZEzIG1mZWcR4dUfuxauPvcLtx9elcgHW2ervau8HbykQwyH1cfsW2a6JtItMDP/VBlDGD94xtK1RChUkePSjHFwPa69l7UKVQ/tMQ1dPShsaMHTR1KNHb0oqKlG5WtvaK4ohWPiqxnIt5BMe8zGDZoSRyyzBFkEahOtNMT+LR0ECg9f8wg8Cqo78TBRzU4m9YgmVT/NkMFpGILWiTUndlWv51ih6luhmjsUOLQ41ocSKoRSMSOhFvCraA5frx0QtybVA1zPQ28F6lSitGyV9rUhYOPa7D3YQ3YgXFDqCX+baaDvG60o6O3HwmFLQLFruQ0wclEC7+fYof1E60Esv0axhjA+jVs5bF1HKvAWAV+qAK/OIDFA3srwQvteF99idyCAlE8/et772HyxFCxq527dk3UT7TkLZkzV4ASLWnF5WUS/JpfXCz2NCp8CGg+2LAB4RMmjNg+OHj9j/rmRlEaHTl7VpZBC1tNbS3Ss3MkZ8nUxAR2Ntai0CIEYqfDf/vwI8ybMUP+fi85CacvXUJqZqaE0q9cuFAF46ytRX3EQRvfmatXxZaXmpUpYcEczIWytbSCl7u72CUZJM8MK1NjE2io02L0/Y+raLkk4Pli/36BTG+vXYeZkyYJ4GOXQVry3lm3TqyRuw4fxpU7sRLCTstlblGR1JA1nxQ6UTKrjp2/gKraGvi4u8s61NQ3yLYYjQKLwfB1DQ0CAi/evIGrd+5I3hgHIZOpkZF0HmSWWMSEYAR4eYsqjHVKy8nGzbg43IpPQGllBVwdHLFl9WoJwedrngdQ3B+4Hp/s2oVrd2IlcJ6Digd2tHS0sxNARqUbLZ1uzs4wMTQc0Q3mKz9E/cQAi+CFQeexBzPw9GqxQBhTW31MXuWF0Bg3GJnr/PAqDgDNde14eK4AD8/lo7FSASMLXUQucxdFlLG1nsAp1cX6gHT2a2/qRmlGHVJvlgpEoc3P3tMMExe5wnuyrQCUHwKJBGDN1e1ifSv4+0U5Q9wJryydDaEx2KWI69XZ1oPqwmZk3SuXTofqWmqYttZbMp4YFj/0GQQ/NcXNeHK5CGmxZbIO/GqxU2DoYjfJymIg+osUYap16kdrfQdKUuuRFV+OotQ6sSZauRgjLMYV/oNQSFWHAQltJ4TrbO1BTmIF4k/morFcAfdwa4FYuoaa6O1Uoqe7T7KxmJPFuvE9hFkGZrrSodHKxfAZrONG4nKLUmsF7LGuJjZ6iFzmIcoqbseh+ff39aOhUoHkC4V4fKVIIJ7fNHtELFN1K1TXeLXqKwEFVBm09KG7pBvKZuUr/9qMZIG9yl6x0526fQpn75wRVRUhzuyI2WIloxrrXkocLE0sMTdyrqhwCGI8HDzh5+Yndj3au/NKc/H5qS+ky9/U4Gl4Z8k7Yr1jB8HO7i7su7QP249vE6UXFVvMlPJz8YWa2vBu1Aj5qQSKfRyLw1cPSdA8O+zNj5yHCP8IsaV9ffZrCQ0nbNu6+B3JwTIxNBnkVwOoaarFzjNf4dj1YwJlJBxeWw/dvT2iDqYKiIohLycvZBRm4M/7/rcoiZiJRYA1Rbrn6Y6kvN94LS151x5cxSdHPkFbZxu2Lt6KORFzJcOLtR/qdsjQ+FO3Tooia6LPRAFUeaV5eJL7BGE+oYgIiERiaoIosirrKqXOzJSimo2dCEcDsFhfKuGYrxX76DauJFxBWkGadCIUW6euPhwsHSRTi/UI9giGo42jwOSiykLcS4mX7oVPc5/K/sD8rk0LN8u+xP8/NNjxsKKuUoAdFXs1DTVyHODxh5ZSW3NbUXcFuAdKVhqtqQSSL8vxGvVGGcYbxwDWs6+QhLA/rVDgVl4z6hQ9aBBIpRTFVUdvn8Ctzl45skNTTU0gF5VY3L7sqkeoZKTNBkJUnI+DtoYKaBFYUZHUpewXNVVLpxIN7UrUtfegpbsPdgaaWBtiibUTLGCp/48HSdz/mjp6cT23SZRWVEdNcjbEh5NtxW546FENHpUrsNjPHBsmqjKxnpQr8EViJe7kN8PfRg+/nWKLaW7GKG3qxu4HVdINcFmAOVYHWUhmFiHa43KFKKVoL7Qy0BAYRjui5re62Q5jd3r2EgI+5nXtiK/A04p2hDsZ4P+a6YDZnqYSYv9rGGMA69ewlX/d60ihAe+Jea+lra39895T/bo3xWu79r84gMVK9/zdGpiRm4O/fvkVrt29g+mRkQKwAn18Jedo3/FjAmAIqOZOm47VMTHSKY82vHsPH0gGlbKvT0LbN65YgTVLlsLJ1u577Ugv27oShn7/gdgaHz59IvPTVNeAlraWKKwIW3i3W1Vdg4qaaslb+tf33hcYkvjokVgDadFzd3LCioWLJEtqKM+JgIVz5TKTU1Jw4uJF+QwGq3Odhv7OOTJviwoprvPsqVPhZGcnsOf7RnNrC05dvoKdhw4KOKCN0tHeHldv30JZVRUWz5mLmFmzYKCnh5sJCZI75mRvJ5COdkc1dXVsWrFSwuupHBOLX/w9UY2tXLRIskLOX2N3qOF3IZSb7IEBNDY14XZCAg6fOfNsfalaMDE2Fpvg5NBQgWeES+amZnKxX1ZRgVsJCZJvRhhIGEVVXfTkydi4ciXCgoJFgSdAoa8PfX1KkfkzsJ4AktuB6jPetPCHr+MXiJBQOlb6+Eg3SQbym5kw2PvV38S/bF8bpGtQNzCAmqEBxo8ws21Yy3/uRbwQ7unsRVFKLe7sz0RecjX6aF8w0hQr3pQ13rB2N/7B4HK+vjKvEfeOZSPjbrkoqwzMdREyT6WIIszinTLBC8PQCYdK0upQ+KQW9aWtsmwHPzP5PCqw2KXv+6yDQ1OXjKmOXhQ9rUVbfQcc/C3EcjikSCLoIVAqelonCq2S1Doolf2iLpqx3hem9uwq982LZXYDrM5rEqCTFluKpup2qKmryXpEbw2Aub3+d2x1ciHaqUR1QQuyEypETdVY2Y7x6uNg6WQIj3BrUZMJxOMNi7Jfug52tnSjtb4TjVXtKEmtlfdRrUVwp2+qLdlbBFacM+vLH0In6VY4MAATG33J8Jo431nUZ0Prwro01yjw4Ey+KNuoPvOaZIPQhW6w8zKVXCt+/xSNnUi2yAgAACAASURBVMhKqMSjS4Voqe2Ac6A5Ipa4wznYCtq6Gv+UOJ7XBWBJJ7/GGlxMuCQd4xTtbQjzDcOs8NliGattrMXuC7txNfGKdOZjHhNtgbTRGeoZCtiQMTAgEOyLM18iKfOhBItvWrBJVDQcPD7uubAHn53aIR0Hl89Yga2L34aXs7fYFIczmMeVlp8m8yyqKESYX7jMxdPRQ9RBpdWl+OrMVzh1+yTsLR0kwHz+pPmiqlJNsV8shl+c+hxHrx0VlRlzs6j+odWNiqxQn1BMmzANtuY2ktf07/v+HUkZSZLZ9cHyD0VZpq31Eoj9AytDeHcx/gK2H9sukQAEWO6O7rgYdxHldRUCCDlnWgNp0zx395wAHDNjM9xKuikqJgapc9swr2rPhd2iEOO2YD4VMzEPXjogeVgjCXHnlAkZmU9FKHYr+aao7pT9Sskjo+KKAe3sMBjoHgh7S54btdDY2ojkzCRcuX9VgFpVfTU01NTh6+Yr+WNzI+fB1MBU9X3vV53DmZFFUHYj6aaosAorCsHujP1QAWkeH7lswjzmcM0MmYGYqTFwtHYazm7yT3nNGMB69jUXQHWnoAmf3K1ARlUHlAMD0NdSg5WBJuyM+KMFG0NNWFHlOm4cEotbcDGjUWyAW8KssdDXTOyDhFoEOAxNJyTi3wmyqKYSCNajUnc1dfaiuq1XIBKth7QQ8vOGRreyX4Danoc1iGPzDWMtgVyhDgZ4UNKKkyn18ruPJtsi0E5fMrVOpdSLKovLZsA8FVgEW5znzvuVAr7+ON0eU1yNoKOhhtauPlzMrMdn9yolaD3C0RD/NtMe0R7Go1apS7fX1h4cflSLnQ+qUNPWixhfU/yXGfaYYPfdc/I/Zcd+DRY6BrBeg40wNoV/WgVESJKfj+TkZBgaGiIkJATW1tZjEOufVvE3c8G/SIDFg3tTczMOnz2Lrw4dEkUTLXkOtja4dOsW9h4/jsy8PNlihDhU3hDGMKfp4JnTkqPU1dUtyq1333oLUWFhYi8c7eAFJtVdu48dw6lLF8XCRssa86KYpUSw1EGl1YMHOHHpoqiYaGuktY0WvpqGekzw88OyefPFEkhgQmBFC2R1bY3AnO5epdyYMtCXKjOuf31jExokxL5BXstAeYZtUsW1YsECLJ49B1YWFt8LWgjBjp8/L8HoBDvsMtir7EPy06fw8/KS7olUk1EFRtUbM6XYfZCQKiM7W/K5WFdCOs7h5KVL2HXksKicaEcsKC6W8HTaDBfNmT2sLoSqm6oBCW/n5zAknoowPq32cHbG7KlTpNOht7uH5FP1KZWgFbKmvk4gIrsNFpWVidWP1tLQwCABnMwUYx4Z60qVVl1DPeoaG2U/4M0DwSKVeW1tClB9weyv3r4+aKqrS8g+7YOEioSPXKaxsfGoQ0pHu589e99PqMAa6uaXdL4Ajy8XoaW+Q6wx49XGSV7TpOUeCJ7jrFJEvaB9NYEJAdKTa8WivqopahHYoqGlJtCG+Vf8bw5mQ9G21t2hFJUX8ZG5vQE8ImzgEW4jHfhoGxxuBoYKiCnlBpBgZvzgU2FmOTEYPe12CTLiylFf3ib2P0KasCXucAu2EiXWiwaXV5XXBNaDEKu3ux9hMW6YsclXQBzr8vwQK2NRi9SuPLMemroaomCy9TKBpaMRdIw0JVOsKr9ZgFhzTYf829HcJeCLkIqfSQUYa8kai9PkuVBn6UjVrwKAkrui7Jc6eYRaY9pGP7gEmn8DrDFXqyKnEQ9O5yH3QZXcHNt7m0mgu4m1vnxuaXqdqMQIAZ0DLTFhnjNcgiygra856puTl+33rwvAomKUXeLO3DmN3l6lZBURYNmY24jiJb8sTyxpDBa3tbQViMNOhDzmPD94HFMpsD4XsLJoyiKsmb0WNmbWojbk5zCg/LMTO8QytnLWSrHFUWkzXIDFAHYGnRdUFMDBylEC15lZNZTlWF5TLqHuVFfZWzvgvaXvirqJcEeOtf39KK0pE5vj+XsXYGZkitlhswXK2JjbycMLfV0DATZUjREg/Wnvn6Rb4LSQaWKJjPAL/1EAi+twJvYMvjj1hTz4WTNnjZznHqQ9gK+bH5bPWC7QhjVhoD5teTzHEig9znmMyYGTMX/SAsnramhuwIV7F3DwygHoaOli7Zw1qG6oxlenv5KujyMFWOyQyHU9cHm/5HHRUklwNilwEuZHzkeQZ7B8Li2EBHHsJsntcSXxClLyUkT1ZWlsKduFEHCiT6hsHzmPd3egqbVJgCgtkPwd88ioKqN9kp9NQNnT2y3ncCqx9HT1YWxgBH/XAMwImSEQ7ecaYwDrH5UnY6xu7cHVnEZkVLXD3kgLnpa6Aq0MtdWkIx9hlPq4cciv78Jn8RW4lNmIQDs9URdFOBnKdQ8VTRcyG8ReSDBFBZSnpY7AI2ZcDZ1d+JChW8kHcf3yeyqehk6//BtVU4cf14qSyUJfE6uCzRHlbCTZVrT7cfkxfmaY42kKMz115NV3YmdilQSxM6T9vUhr6YqYVdMhc00obhMwRQsigRehWlFDJ75+UCW2Q+Z2rQgwl8wszne0g6Aur7YDO+9X4fCTOqnJ5jBr/CbKFk6mr962Ptp5/rPfNwaw/tkVHlv+q6iAiAEGhRTSKVmdebCqrOnvG+Kiam3FyZMnceDAAekKv3LlSsyZM0cg1s8mDHgVBRlbxiutwC8SYLFCVB+xC+HfvvxS1DebVq4UxQ1zse49fPjMYkf4QisegQ7VQhz7ThyXvKa502dg2fz5sHsFXxqGgj948kSC5anOYR6Tq6OjdELkHPhkmeqeW/HxApvKKislQJwXvrOmRGHm5Ci5AcrOz0NqVhYy8vJQXlkpsIrv5Q0P4RThFqHSpImhiJ40Ca4uLhIyTgjDObR3dMhJn7lVtC7+UFdFQidmSx04eVIOIlxeXWMT9PR0pV5UtD3/fsIfKpuu3b0LQwN9yehydXSSgxVvKJJT03Di4gU42Nhg9rSpuBZ7F7uPHZHukItmDx9gqWCGqhMhM7/OXb8mKq/Vi2Ikl4oZVlxf1vBGXJxkjxFQ0T5JEMdDp56entSK4ItKvKKyElGwJaemio2TUJAqLFFZYRy0tTTh5uIiHR6nRkTCztJStoeqA9Q4+ZfbkYo2KsF+1oPsTwiwFM1dSI8tw/3TedIFT9QAg0NNY7yEjzNU3CnQ4oVd6QiL8h/VgPlZJWn16O1RqvqCC4RRneSkvmrjxNqnY6gptjYbD1M4+ZvDxs1Y8qY0tdVeqroa7pGT9sTM+DKxJ9JCaOVqDI8wa/k8A3Od7+RQfZNKQIASM6G4TrXFrQLxIpZ6QNvgu/loA/1AT3cvOlt6ZLUJ6/gjHQzVxgkgykuqlvqWpTegh/Vhvsm4cdDS04CBmTYMzXVhYKoNPRMt6ZbI38syBm18VGx1d/SJaorqqvpyhQTDW7uYYMpb3nALsfxOyDwhV2NFG9LulEsmVkOZQmCGdFXkN0INolhjsDw7FHKbqGsOHx4Od1t8A/i8JhZCgiVmV7V2tIoKycLYQsDV0P5aWFGAPef3SK4RbW0MEyecet4SxvWikis1PxXbjn4qGVUro1dh2fRlEqZOGklF0IFLB7Dt+DZRYK2evQabF24W69twjy/9A/3SrIT/8vOfqb8GC0srHdViVFc5WNtLxhYBFdVMQwCrqLII245vx+Psx7IenOMQGOnt7ZFjrY62DjTVNXHn0R38ae//h+ySbEyfOENC58N9CbBGf3NJaHP8xjGBggxuZ4h8XWMd9PX0sWz6cskMY9bV0OAxO7s4W+yFtDrOmzxfbI9c9yHgREWXob4RZofPRtyTu/j06KcgKBspwJKHKYpW3Hsah9Oxp8Q6uGT6UkQFRkkmGM/JhFb30x+I6ovnHCrgaDOluo1dEtmhkPPneaamsUZUbMlZyZKjVVFXLg9MuK9wcLvTGkjYNTdinoA71vbZeWjcePlvbmvuk8MFnaP5Pr7sPWMA65sV4qmRyifaAwUqqfG64R+9OfkAgnlYJ1JqsSOhCu3dfdgabi2ZUtaGVMoPiO2QeVP7HlYjuUwhQensGrgyyBz+NvrQ43H/BQ+Knp8JFVqnUupwIqUO1oZaWB1M5ZW+WA/3JFUjoahV/r+VviYelLShtVuJekUvChu7oKOphhUBZlg7wRKtXUoBSddzmyWja3WQOf4lyhY+Vnqi0qXV8G93y5FY1AZ7Yy2BXoRNPyanivVLLmvDjnuVuJjVCAs9dfxxmh02hFrD5AcyL1+2r75pfx8DWG/aFvt1zleaYeXlISUlRWyAgYGBcHBwkPve74NYPNdVV1djx44dArB47+jr64v169dj0aJFsPgB0cWvs8q/3rX+xQIs3gC0d3ZKR0IqcAhXaAFj9hGzr3gCkAvCcePEQsBw8wXR0fhgw0ZYmJmivb0DpsbGAnpGEpj7Q7sS1TzNba1ygWlsZChPk58fBCaEJ18fOYwnaekCuKhWYkg5FWOcNw8IvJGkxEIuWgctdUM2g6Ebfh0dHVEkbV61Wux6lmZmAgZkvSUAdDAF9AcmXFNXh/2nTuLImTMwNDCQ+rg7u8DX00MC4b9tP+SNTEtrGzq6OkWRxDD6oYwufgznSDsluz1y2+w7flzWdTQAS24AGYba2Y7Ozi5RQekM2v9oAY1NTMCJi5fwJD1NwuzfXb9BgBrD+gnx2HWQYOthagqepqcLDKTyiqoq2S/kchFycza0r/DLwn2CEGvLqjUICw4S1dZrN35CgMXa9LOV92C20rdrwcwc2vLkQv17nrr0KQckQ0nsbVL1Fw++X/WjUnjJD22arzj2QpRKff1QKgePEePHQU0+b3ifxZoQfOUnVaOuvBXekXaiqqLV8fvG4OHoO+oxyeqqaZfOh6Xp9dA11oatpzGsXYxhZKU3CO4IUVWqKynxYNjvs88aLKkqzB3oU/ahq60XVFrpmWhDh9koL6ihKDp7+9HVrpRg+pa6drEUauloSLaXgbm2SrnGJ/8/gVv2dVFg8dzCGzTWZwgcPL9dae9i6PmFuAuiyvpgxYdYGLXwOwCLqqq7Ak8+EbCyceFGLIoazJ8SgNUlnf+2H9sm4e9r56zFxgWbBMYMF2C97NhUWVeB3ef3SAc8ZjO9v/R9RIfNegaweDGZV5aHT499gqTMJIT5hEuGFzO/soqyxIJIy+PmhZsQGTBJ1udPe/4kdkWCpg+WfYgI/x+nwGpua5JgdNopqQybP3k+3Ozc4e/mJxZGLXXuv9/cgRl6T8DIDCpDXcNvdA/meYj1plqxq7tTgu0lX2sUAIv15X5AwEgFl/o4NejrG2A8xktHSqqzTt4+gdhHsTKHFTNWYv389ZKLRTDF7oRU37GTJTsNFpTnS20JHWXQOj1o5RyCWDwGaqppIsA9QDLR5k2aL6qtn715yLd2tjGA9bJv3z/+zuM/QdG17CZsu1eBzOoOTHczEmscbX0ERKp9DWju7JUsrc/iK3GnqFWUVa4mWljqb4ZVQRbwtWIzInW5hvn24HHrSZkC5zMbYWuogZkexnA00RZYdjWrEafT6+FqpoONoVbymXseVuNAcg3KW3vAKYTY6eOtEEuY6mrg5NM6xOa3wEBbDT7WurAx0ECQnT6muBqL0vfwk1qBZM2dfZjqaog/TnMQldaPyalSsEY5TdhxrwJJZQr4WOniv810wGI/s2c1Gn7V39xXjgGsN3fbve4z53lG7if7+lTddQeVU6NpUEUl1eXLl/HFF1+goKAA/v7++PDDDxEdHS2iiBcNfmZ9fT127tyJPXv2oLGxUebg6emJt99+G0uXLsX/z95beNdxZW2fjwWWLGawLLZlZpLMzMwMAcd50+m3u981s2b+hJlvujtJpyGJ7cRJzE7MjpktSwaZxCyLmfEK5nv2VclXimxdyZIsqLOWlqjq1Dn71K1761fPfraDg4P27bH+nqCrx1QdX8dEoOcCrPoPloQVhD9HTp8SNU6Vplqq1OXm5UpEB/n4SHpgXGKSgI2JY8Zgy+pVmDx2rMAj3Sfr7bEEfGMXDQPv+HQ+c/MNiccnVEnNyICPpwec7B0QGhUlaXe3HjwQpRDT4ujrNHrYMKmQSP+s4tJS3H4QhPuPHyMnL1cuOvywzP/Tw4vV9dycnN9q2N7c3GiKzvTBE+fPw83ZGZ/t/kBS5Jg2oqSg/O4DEv24BFRVAHV9YGZGlZNOae96dQ3VXfuPHsUPJ44LOFrWSgWWcly5kWQpc40GmTk5ePz8GS7dvIngZ88kzdDP2xubV60W+MYUP8b/wZPH+OrAfjx89kxiTrUelVmElVSHMW78Oa+wEA9DniImIV5iz2ZjaSVqsd0bNmDcqJHvpCxoj/Op2T46EWB12By6ecc8z6o1tairroWRiYEW8uib29hk7gLTqmoFOLEPw76GMDKkCurNULCl8AnM0mqpWlSu8aaJr7HaGu0NFG+Y+hh1/oeHLgOwWgguARbT8ujRRKXSnjV7JIVNV4HF631WfpZ4Jx04t1+UQvR2WjF9Beys+bChTirb/XzpZ3x9/J/QaCqxacEmbF28DV6uXu0GsFKzUrH/7H4cv3YM3m7ekvI3Z/wcAT9sfC+JSAzHl0e/xOUHlwXW0AOLnlasdEdwwrS31bNWwc9jsGzz//z8/yItMwXTx83AJ6v3IGBEAExN2542xCqIP138Ub5oNP/p2k8xZeRUUWBRYdTc64qvP01NlQAqvg/x6S8VYg3b8n0DED+qn377Cf8+8a82pRAqp4JA77paUWARhEUnR+Na8DXcfHwDKRkpklbIapTr5qyXFFCOg+cJwdypm7/KOAg06ZnHKoI0Zfd080R/RzdZg7D4UDyPfi5wi40P1cb6jdUq5ibNUwFWSxe8Lvp/8ZCsqUV6URVuRhdIWl98bjnGDrDAzskumO5jDSuTxspWKrnySjWSzkeD9MCkIkkXtO1niEkeVmKSvmCwXbNKJ57zlTWsmlkrSi0xgzfoI6qwjOIq8a1yMDMWbys2mrv//DgDp6n+ra7FzIE2GOJkJmmQTB/0sDMVP6xxAyzlb0dDsvAyoxQlVTSor0WpplbM49eNdhA/rcHO/bTVFNvQOPackiqceJaNbx+kSxrkdF9r/J+z3RHgbfX+LBvaMJd33UUFWO8awZ6xv/Jwnd/50IPWJlQs8f6MWSZUOr2pKfvy/YX7lJSUSOpeZmYmoqOjRTmVkpIi4oCFCxdi5syZsLWtL+6iZ/hoy3Pnzh384x//wKNHjzB06FD88Y9/lP7eBLDYNedx8+ZNHD58WLyw2Dw9PbFs2TKMHDlSABvH7OrqCjc3t9/ZM+g5PHWzbh6BHguw5AKv0Yii6fj5c7h5774ogmb4T5ZUAlbXyyssEHAyY9JkScs7e+WypJ35+fpiyZy5YpZO9Q5T0t4EbNpz/an24QuX5NvU1EQevb6IjMB/fvoJ569dQ1VlJWb4B+CDzZswYeQoubDwgyx9nujb9e3hQ3j0/Ln0QfjGuX24aZP4bDX1X9Fn3Knp6fjuyGGcvnQJA7288KePP8akMW+vxsi45+Tn43lYmKT4DXB1lWqAjnZ2Ag6VG4ik1FT8+6cfcfzsWVkn+nF9sm2b+H/pG2texAjvWNkwLDIKNx88wKNnT+W4TG2kXxjVZ6wkSa8vqsE4vrCoKPztu+9w5vIlAVP9nZwwa8oUzJ8xU7y96ElGhUNuXp74dlGFRoUWy5IzDZFm9qxcaWdLn6tOkJ7os1i626gAq7URU7fvBhHoLgArNiUW35/9HhfvX4CHs4cALBpz6wKssooyqaLHtDhWr/N09ZQKgCtnrIC9jTaFkKqrQ5cO4+vjX0NTXYXNCzdjy8ItYszdXgqspPQk7D+7D7/c/AUD3Qbi49V7MGv8LPG0UgBWeEIYvjj6BW4+vimghFUHR/qOhJ/nYIFpjraOoozi+9avt37F3w79VXyb6D21Z/Ue8cvSViGsTwmuf3Kq7ylHvydWSqRKjClzn2/8HJNH+MPE+O0fzpl6SIP1tJx0uDq4yL4ONo6yH9+HiLAI8Fhh8eD5g2K+3toUQiVG5ZVlyM7PBtc+OPQh7j67K2oqKr28+ntL6iWrOw4c4Atjo77yPkTvLc6JHmiMF1MJWS2RiipWUXSxdxFfK/pcBb54gANn9+NJxGOJM9VyhJnr56wT8/32Uonruyb6bPe+FFhvUrPqM+bO2oZjJDRiah4Nzq9H5+NKVB6KK2swd5Attox3xhg3CzFeby4jkObsrCJIiPVdUAYCE4tQWlUDdxsTbJ/gjI8mu4onlL6sSNS2IvVjlcPX6fuEVskFlaL4elVQIWmFVTV1KK6ohpediYArL7t+6GdsgJxSDa5G5uNQSCaCk0tQVM5KnH0wxtUcH/q7CuiyZ+XeNgaZDysT8yrwfXCmqMJoWs/UyT/OcBM/sbb228bhvNfdVID1XsP/Xg7ONVe+CKtKS0sFOvGrsLBQwFNycjLy8/PFK2r69OkYPHjw7x7wEFgxk4f7FRQUIDc3F69evUJkZCQiIiKQmJgoIIvb8DiWlpaimNq2bZuYqb+t8FfTwLCKYHBwML766iv5Pn78ePz5z39GQAAfar3OXtEFcexDLHVycgRepaWlyTiLi4tFjZWUlITU1FQZx6xZs7Bx40b4+Pi0+QHxe1lM9aDtEoEeCbD4AqWqJyImRkzRg56EoL+zM5bMnYMJo0cjOi4e/zr4A7Jyc7Fh+QpsWbVKnnJevXsXp367KGbdTCmcOGYsZgUEYNzIkRjg4iIvOKYc6v2p4B2XiGNKSkkRgHL41CkxSWeVuz/s/kAq3imghy9+VgD8x/ff405wkJhdc8x7tm7FEko1zc1bPRL2SZhHKEZFExVff9i1W6oYMgXwba28okJiTy+sqPg4ePTvj1FDhsLLw10qEPKp+dPwUHx/9CjuPnwoCi0BWNu36wWwJEWrsgIJSa/wIOQJ7j96JMAsIztbgBThHY33CfCoGGMVQt1UxvTMLHx35BAOHD2KouJigVIfbNwkEIuG80pcCwqLJO306x++R1RsLBzt7UXNtn3tOgGbXfGmQdblPQEsyU7tTZ8iW/2qUnd4lwh0F4BFk21CoUuBl0TVRIgzb9L8BoDF1LGopCgcvXIMZ++cAVPk6Iu0c9ku+I/wh1k/My3Aqq7CkctHJMWQsH7Loq2iwnJ3dm83gEUV0DenvsG5u2cx2GOw+HVNHztDVFYNACs+DF8e/wqhMS8xb/I8LJu2HF79vQSu8FpOSFNcXoyc/Bwxev/54o9iNk5j8jWz10iVQvbHVH0Cf8t+lnC0dRAVV4uqRFGqZUulxNO3TmHUoFH4dN1/YcygMS1ef6loinoVheuProuxPr2jhvuOgLerF+ytHeQ6HxYfJlX9bjy+IWprmu1/uPIjjPYbLb+31Ki4ysjJwNPoEDx48UB8wugZxmqN/fr2w6hBo0V5xfX1cvUUFRgvknwPKyorlkqVXx39UsahTcXcKTGjco/Ak/EhyHwS/li80AgR2WZPnI3P1/8RYwaPkXXoiq2zARYBR4WmFoUV1fJ+T0USvaa6WuPaM60uIrMUd+OKcDu+QNRMVA1O9rLEB5NdMc3bWvys3vZ2SuBUUKbB1ah8HHyUgQdJRbA2McLOSc7im8XUwPZoNE4nsCpjJVup0FwnYMrSxAjmfRlj7SgJ1bKKNbiXUIizoTkITCqWz6ILh9jKnAjklFTItoyL43iZVopvAtNwNiwXFn0NsXuyCz6Y7CLVHHtTUwFW71ltSVGvqBBAxS/CJYIc/kyQQ8BDzyj+jcCI72tjx44V4ETPKYIg8cGsF0gQBGVlZcm+BFf8UvqlYorH0m2SzePjg02bNmHDhg2ietK3sS9WEqQCKygoCFOmTBGAxfEpogrCKs4pOztbQBzn0HSMBHMcM6EdPwtxX2tra4z+3/fz9MaaOnVqi58H9B2zul33iUCPAljyVEujQUZOtlSmu3jtOp6Fh8HP2wdrlyzBlIkTBObcDX6IL/d9B3olbVq5CjvWrxePKFadCw4JwcWbN8TMm4SaBu6EXqwsN9jXVxRF9IMixOmM/FtW9bty+za+/flnhMVEY9rESQKSJo97rYSixxeVQvSTorrI1sYGKxcsxMdbNmPYoMEtpgg1d7ryopmelSXqq+fhYRg9bDhWLFgg8WjppoP7UhkVGhkpVR8fPnsqKivu69Gfck8jRMfHi2k6oRPjuZwphNu2CyhrSYHFVI3s3DxcvH4dP/1yUgz3adBPhZefjw/mTpuOhTNnYsTgIbC2svzdzR4B27lrV/HFd99JJUT/8eNF/TXTP0BbbVKqOdaKkuvQr79KmiN/nvC/3wwYe6qvmMrZZVtnAqw6eirRJ0n7BtnPwkQ8r9SmRqC9I9BdAFZkYgT2ndmHq8FXMdhzsFQhZEU4UcvW1iAtKw1n7pzBiWsnkJyZjCFeg7F54RZJBSNkEXUVFcQ1Ghy7chRfEWBpqrFl8VbxwRrgPKB9lJ91dYh6FY1/nfwnrjy4gpGDRspYqZyiWboArJpahCWE4avjXyEqIRJLpi6V6oJ8/8srykduYS5yC3OQU5ArCqSIxEhEJISJv5ONhY0APCqJaFbOeVH97N3fG3MnzhUll0nfFm6y6+rkGKdunUJw2EOM8RuD5dOXw915gDYN/y2N70Os3kc4dDXoiije6CvGNETuT5hEgMdqhpn5mTJnKqU+WvmxAKy3KbyUw9Lv8WFYMA5fPixG7qxyqKnRSApgwKipWDxlMSYNnyjrygc1ur4BBH+sREgwdeHueQFYPDarTVLVRodLimKKSotw6/FNUWrRJ8vZ3hk7l+7E9iU74Gjn2D7nQnu/WDlTFt6wN4aJpwkMLTruPYEpdRWaGlEKRWeVoby6VozE/Rz7vRMw6YCQSJc0Ig/LKMWliDw8Si5GcUUNrPsZyXin+lhjsocVHMwJL1seAefOtLoL4bn48VEm13wq+QAAIABJREFUyjQ12DnRBevHOMHRorHHasu9vX0LSSWvd6nkajb3OZAQi/OJyCoVdVh+WTX8vawww8dG0hL1mdObRsG+43IrcC06HxEZpRKz2YNsMcXLEv2M3/5Q9V3n3tX2VwFWV1uRjhuPYmp+5coVXL9+XcCTAnqokmIqHb8IdtisrKxEfbV582bQC/nSpUsCuAiKFBUT9ydcUlIOed/Mc4rbM02QX0xBVPZhv+xz9+7dGDJkSIv3gEo0OL4nT56IAuvhw4eShvinP/1JvLB4nyfv0SUlCAkJkbnRJ4tqK34RanFeyhw5P1Z3Hz58uOzv7OwMJycnSSmkP1ZL940dt0Jqz+8rAj0GYPGFRtjDlEFW72NKXWRsrECMDzZuxMyAADHgJkihnxThRWZONjatXImd69bD1dlZni5VlJcjMi4Ol27fxuVbN0WtxSAN6O+K4YMGYaifH3zcPeDG3FtX14bUuI5SZtGfKTImBt8fP44zVy6LMmzd0mUCUcxMTWXO0QnxuHD9Oh48eQISdI7xw40bsWbJEtjZtC5nWfdEZIXDxJQUUSk5Oziiv4uzQCJ9mqikKioQ/+qVeI/duK9dDyrjlPROXpwIigiDaLC+d/t2jBs5qkWFF/en8fudoCAcOHYM9x4GixJgwuhRAtmomvPoP0DSMJv7kEW/kvDYGHz9/QFcvnVLvLHok8XKkEw1LK+sRLb4aT2XKoxBISGSkrh68WL8146dkmKqvRnpoq0zAFY9uGIVwpxXRSjKrYC9mwVcfG3FWFxtagTaOwLdBWC9jH2Bb09/izshdzBq4ChJy5s6agoMDAyRX5SPqw+v4vClQwJP/Dz8sGz6MsydOE/AyusqgVQ61OD41WNiMF5VrcG2xVuxYd4G9Hdyaxdowevoy7iX4m9179l9TBw2XjywJg6bKMCppq5G3k+CQoPw3elvEZ4QDh83XzGmLy0rEQNywqXS8lLxfiKcI7jiFxv91fihUtenihBrgNMAmcemhZvhas8HIm+HG0yhS0xLlGp+LvbOcHXoL+PTp8n7UFU54lPipULizSc3Ef0qCsWlxeJZxbFSqcWfqWRaFLBIfKXGDxnfqLLhm45VqalCeHwojl09hov3LyKvIE8A46Kpi7FkyhIM8RwifmLNpXzyxoTQ7/j14/j3yX/Jw7cVM1aI0s7P008qulLJFv0qGufvncOlB5fAdEquz582/0k8xqjy6qqtowEW4Q3T8FIKKhGSUoKHSUVSpW+KtxWWDneAM9PV9IBAnR0/Aqz43ApEZZWiuLIWViaGkvrnZmMCK1MjgW4tFBJsNGSCHcI7AjGm8c0eaIPx7pbib/U+GqEri7rklWlQpqmDjamhwCZ6bb1Lk35r6lCuqZHv7I7gytRIW8SkNzUVYPWe1eb7BKHV0aNHxROKP/NvStqdvNf26SOpfqzQ5+vrK6l1VCVRXfWf//xHIBKbYsyuFATR7YOeVARD3Nfb21tAGLdniiHTEgmMqKAaMGCA3sEnfFIUWPw+d+5cAVhMbeR7Io/Pvmn0/uOPP0oKI98HlXESovF4BGtUaHGfSZMmST9MZ+SY6PPVmrRGvQevbtjlI9D9AZakk1VKqh3Tya7euYNHT59KeiBTyT7duRNbVq0WhRVPflbBuxMcjC/2fScKo43LlzcALGW1+OJ5lZqKU5cu4djZs4iMjZGbCe5PgEPIQU8owrGRQ4ZgxJAh8BowQNQ7LamT2nJG0Iz8euB9UWG9jIiAq5MzhvoNkif6rBSYkJQkcyHsosJs9tSp2LttG6ZOmNgm7yvdMSo5121Vm/FCmVuQj5CXL3Ht7j08fBoiUIsVFZWLKL3JqJr6dPt2BIwbDyPjluEQb5ZoBH/zfiDOXr2KvkZGWL1kMaZNnAhbG9tGKYPNxZzm7WevXsG3Px9CwqtXotxiuqGToyNKSkskfTI0IhIRsbEoLi2R9aZCbMOKFXC0tWv3yndtOS/euE8HAyyqMsqLqpCZWIiE51nIjC+Eo4cVxi7yhsMAy3aditqZGgElAt0CYNXV4XHEE3xz6j8IDg3GuCHjRNU0efgkSQl8GPpQ4FVCeiKGeQ/DQv8F4udEb6mmkIPvQyeun8CXR77UAqwl27B+7noBXfLA5B0br6FPwp/gr0f+ipDIp5g6KgA7luwQ367sghxk5mUiNScVIRFP8ODlA2TmZsp1jxX26vpoCwBQtUQzdUszSzGiNzY0Fo0GgRbBEOFWUVkJSkqLxVSd7ydMJ5w/ab54WY0aOFov6b+8DylFB9owd16zCkoK8DT6qaThPQp7KH5VBESMA5upiamk+hHi+Y/01ys1T54gl5XiWfRT/PbgN6RkJWPycH9RiRHUvdWrrF5lx0qF/zj2D9x+dgvOts6YOmqq+HUx/YrKMKZBhsWEys+M88qZK/H5pj/Ct79vu6WSvuOp1OzuHQWwRGlPFXaxBk+SS0TpczeuUJRXS4fZYudEV6mK9+6vkI6IirZPwjfdm0ephv0OA2Z6HT2xKjV1sDU3glnft6cfdtzMGvdcX7Onsw7Xa46jAqxes9QyUUKey5cv49tvvxWvKgIdvrdQUUXgQ3BFYDV58mSBUAMHDhST9LCwMFE/cV8+TOJ2/fv3F9jFlMP4+HhROhECESpt3boVa9euFXil3MvyXFPu1XjP2Zp7XAVgcQxPnz4V8/bPP/8cgwZpC5mwMS3w/v37+PXXXwW48VgJCQnyd85n8eLFMl4qyW7fvi2fF+bNm4cdO3a02pOrd501PX+23RpgaTTVyM3Pw9OwMFy5fQu3g4IEPPFlMcDNDbP8/bFj3XqBTPJkuw/EI4meSV/u34eUtHSsX7YMO9drFVi6jUqtF+Hh2H/sKM5fvSrAhS9k5UXH74QmPM6cKVOweslSjBs+vEMglhD4jAypBnjo1K+IjosTtZgClRrGBIhPE5VXu9avx5CBg7rMB1zejDFF88mLFwh88gShEeGi7uLfuF5TJk7E3m3bMWOyv6QY6tMYF6YqJqYkw8jAAN4enuhnSuNSPT4J1kH2O3jyBE6ePy8AlJBSF9QpvdC7hVUp//TRx6LukjTDrtw6AGDxpkHMH0s0yEwqQsLTLMQ+TEdeRgk8hjtg6vrBcB/uAIN3fMralcOqju39RqA7ACy+RzyOeIwDZ7/H44hHGDFwBD5c/gH8RwaI19WV4Kvif0XlFf2u6Gf1Jq8lXjNPXj+JL49+IekB25Zux7o560QBpdc1roXlYqrb4zCtt9KL2BeYMHQ8FgcsQX5RnvhGsZIeFT8EPGYmZrC2tJa0QCsLG9hYWMHG0gb2VvZwsHUQTyn+z6SviVZhW1UlVf3yS/KlD/pEpWenITU7Vf423Hs4Plv/B0weMVkvr6n2OvMIhXIKs6WiX1DoA7yMfYnE9ERk52ajBjUIGBmAD1d8iOljpsOs3gespWNzvoR1VKQR1PV3dpO46NO4LyHf5aDL+M8v/0ZobCgqNFoPkqYPjQgM6Y21a9lu7Fi6A/bWdo1SEvU5Xmdu094AS5sqWIuskiqEppfiTlyhGJ9HZZeL2fmSobb4OKA/JnlYom8X9L7qzNirx+rZEVABVs9e36az4/spwdX58+dFgUUQRWUUK/XRv4rm6P/zP/8jCimqltj4mYFVBI8cOSKAiOBqzJgxGDZsmMCte/fuiaKLsIipeKzwxxTB5ozf2xptpigydZAeWC9evMCSJUuwd+9eeHl5aStq16cRKpUPCdU4zzNnzghE43iotqLP1/79+wXEMY2QYyVoo9qMII+flRgjwi0WN1PTCdu6Yt1rv24LsAiiEpOTcTMwUHyWwqOj5AXr4uiEYX5+CJgwQWCDt3vjCj08yZlqR4DFSnjrli4V2OPq7NJo5fgGQY+sCzeu49Rvv4mxO2/gmUpGSGJuZg4rCwvY2FjDa4A7Zvr7S/qbtaVFu9xcND2NlFTCgydOiEcXUzsc7OxgY20tQIUvXD7FY5ok500VFtP+2uNGpz1PaSX9LyYxQfy6COPSMjLh5uqCFQsWYvzIkXo9kW+PMfF8YdXGg8eP4/r9eygqKYGpiYl4cnGNaQTLNWcMWX1x98aNUqWQ50CXbu0IsARcVdeivESDnOQiJL7IQkxwBpIjc1FdVQPvUU6Ysm4Q/Cb3h7GpfuCxS8dOHVyXjUB3AFj0rkrNThNfpLjUONhZ2Yun1CD3QSirLBNVE1PVnGydGlUlbC7ougCLEGnHUq3BNz2l2uO6zmtbSlYK7r+4j8S0BDjbucDT2QPPYp7hwv0LqKqugqeLpyi+nGyd4WTnJON2tHEU7yU7KztRYDFF8G2NaeKl5SVyrKikaKnO18+0H+ZNmAtf94E6aZOdd+rJw4+yYsSlxElqJNP0UjKTxbtqybSlGDd4rJjMd1ZjFcKff/sJx68dR1p2msREVG39zOVnqs+Y5khVF6tRsiiAUimys8bY2uO0F8DiwzpWnMss1uBlegnuxhfhZkw+XqaXSioZ4dVMH2vsmeKKWQNtYGlq1KXVV62No7q9GoGmEVABVu86JyQVvrxcDNkJZ6jAIpT629/+hujoaPGW+stf/iLqK6bTKZ8PeJ8YExMjsItpgUzHowE6DdEJtpi2x5+ZjkdYtGDBggYA1h4R5pgfPHggKjCqwaicWr58eQO8IkxjGiDHRLXW8+fPceDAAfm+Zs0arFu3TgAVUww53vT0dFFlsSqim5tbQzVFqsjopUVlF//v4KAt0qK2nh2BbguwCBseP3uG28FByMjKhrlZP0mt8/XywrBBg+DJvFmdMp2yjPK0sxy3HgTinwcPIj0zUxRYu9ZvQH+XxgCLm1OaSfPuyLhYZGRliV8TUwhZJcrS3Fzgkb2tDRxs7QQitVdp8zedckx7YyoeAZyBoQE83dxEccW0QaViEb2ZOCZba5t3Th/s6FNfYFZRMdKzswQUuTo5SRXA9rg503fs9BCjl9aDJ49lFyrx7O14Y2YqF0COi1/0yaKijR5kHb3O+o79jdu1A8DSyobrUFGiQXZSEeKpuHqUjuTwXJQVVsLA2AADBtth8spBGDHLHRaseKSH8O2d56Z20Gsj0C0AVv3qEDYQQPF1RADRlmuGLsBif7uW7cLq2WsEIrXnNZJjZMqf1puwSmAOjc/N+5mJhxM9twhTWgJV+pyYUgmpqkIq61HVRcXW+26SBlhegtQseovUCMizsbJpl/nqOzdea1/EPsflB5fFFJ+m7zRytzS3rE/LpH9JNcz7WUhhgMZ+afoepXO3e1eARXBVVV2H7NIqSRW8HVuAewlFiMgqQ2mlNu2T1fDGu1kIvFo6zF6My9sjvbZzI6UeTY1A6yKgAqzWxaunbU0wRQXVX//6VwFY8+fPx2effSYqKz6YZ0ogFUzNVUrne3BUVBS++eYbXLx4Ue5vli5dio8++kjUWe8KfpSUQ6W6IMdJH66XL1/C09NTgBWBmouLixyTqY9UjXFOjx49wsmTJ2X8hFdUWwUGBkp6Iffn2Ki64twIx2j2TkN6plLyePTHIogj0NNNg+xp66/ORxuBbguwmOJHbyiagrNRNmhlbg4TE1Y7av5OmkAqPCZG0vDOXLoEQyMjbF65SpQ1rC7Y1RsvDBUVlSivrBClkN7pcl19Yu9xfLx406SePib0QKGhfJc2aNcnVu8IsGgeXFVRjaykIkQ/TEfMw3SkReWjJL9CjIV5Y+LoboUJS33E98quP02KVXqlz9Ko27Q9At0JYLV9lq/3JFSiIucfR7+SP+5ctrNDAJbuWBWYxYc1rDT42lS+PWak9vG2CJRXlovJPz+UMT2TRvXtCSo7O/ptBVj0TaquqZNUwYdJxbgWlYf7ScWIzylHcT24UubiZWeKvVNcsXmcM9ys+76zUXhnx0g9nhqBtkRABVhtiVrP2EdRYykKLMIoKqgIbwhymGXElEKqlOzt7X/3HkJQxNTDr7/+WpROrDhItdOuXbtEpdWWh21KZHk/RSUUU/5iY2MRHh4u3lesMkj1mNL4vjZ69Gj88Y9/FNN4pjRSgcV0xqCgIFFa8X49KSlJUgqZCsl0RAVaNE2vV+x9CMdYfXHLli2iNntXGNczzpieO4tuC7DasiSsOBQVG4ejZ8/iwvVr8kKlAmv72nVwa0aB1ZZjqPuoEXjvEWgjwCKc0lTWICe5GFFBqYgKSkd6bIGAK6YRKs3CzhRjF3pj8qqBcPG2geF7qnb03uOsDqBTI9CrAJaoT6pw9PJRfH38a4nzjmU7sXbO2nZLIezUxVMP1usi0FqARXDFinq5pRo8SCzCbxF5CE4sQmxuBUqrtIqr13dAgI2pEXZMcMZn0/rDx76fqLHUpkagN0RABVi9YZVfz1FRNREQUXlEs/Nr165JZcLExERJKaRqif+jaolAaufOnaJ40n0Iwv25/cGDB3HixAmp7Ofq6ip+UgRYHh4ebX5owr45Lqb70Wyd8InpiQRaVIUp8Ilj9fHxkXRFwitTU9MGUMV0R8IvpfIhoRVVZJwTfbro/WVnZwdrWucw88jYuMFzk2mEVGFNmDABs2fPlu3fBcb1rjOse862VwEs1AHlVRXibZWQlCwlr93d3DB0kB8suroxd/c8v9RRv48ItBJgieqC4CqlGJGBqYi4n4rMhEKUFlSihuCKdxb1zdDIAKNmu2Pa5mEYMNQexiaG71Q96X2ERz1m94xAbwJYhMn5xfnYd2YfDv32M6wtrLF10VasnLkKzvbObf6Q2T1XXh11d4yAvgBLWyCkDoWVNQhMLMSplzkCrpIKKlFWWSsFa5o2VtlbMdwO//dcT6k4aKzCq+54iqhjbmMEVIDVxsB1w92kAFZ2tqiZnj17Jul/hFAZGRkCiKi4avh8bmgo0Gr9+vWiQqJPlC7AokLr+vXrkj745MkTgT9MO2S6HoGXu7t7mz9bEGARWh06dAjHjx8XFZVSvZDjI2AbMmQIFi1ahICAADn21atXZRwK6OJcmE1FkMZKikwX5HyoJFPM2Qmt+DPBF38mpOJxqNgiKCPYYtVC/k9tPTsCvQtgKWtZR4l6NZiGSKNuXdO7nr3c6ux6RQT0BFh1tUC1phr56aWIepCG8PupSIvJR2leOWqqf3/T0McQ8BrlhDk7RmDgBGeYmBu3+c2uV6yDOsl2jUBvAlj0a2SVwMS0JKRmpUhFvAHOA+Bo7ah+MGvXs0rtrKMi0BLAIpeqrq1FfnkNnqQU4+SzbDxIKEJyYSVKqLj6/VuQDNXU2AAzfWzwf81zxxQvKxgbGqgPUTpqEdV+u2QEVIDVJZelQwZVWlqK4OBg/PTTT2KITgjFdDueA2y8iSfEYSqgn5+fqI9YuY/VBAl5lEa4ExERIdX8qJKiyon7EnIReO3YsUPS7t4lbZ1+VIRSP/zwg1QdJLQiUKI6ikBJAWVMVczPzxcV2OnTp0U5xvEyFZLfqbLi/DjG5ORkAXb8zt8Jq/h/bse0ybFjx8rvarpgh5x+XbrT3gmwuvSSqINTI/COEXgbwKrTpmlUlWtQmFWG+JBMRASmIS0mD8XZ5dC84cbBwLAPnH2sMW3DEIya4wlzGxP0ed++V2+4wWlr9Nq5u7YOo36/9zganUM3/Kj8UP+dVdF0ngfU32w2GXPTX+X3hg5+Fx9docXr4+p8SOvTB7UldahKrkR1gVaS3tNbTU0tauqqYdDHQEzF3+XDZU+PlTq/rhWBNwEspapgVrEGz1NLcC06H4GJRUjIrRAVlnJj1txsqLQa7mKOPQEuWDXSERZ9DbrWpNXRqBHolAjUoa6mGjWaKtTVNkmv7ZTjqwfprAgQVtHAfN++fWK6TpUSRReEVgQ/TKebMWOGgCsqnAikCLN0hRmEPlQ5nTp1CocPH5Y0PcIlpvexYh/B0rZt2xoAVls/Z1AFxTTAy5cvi0KMKiqOkZCKx9++fbuAMhq4U1lGlRZ9rzgOzovfqTaj51VqaqoYtHP+Sgoi+yf4oo8XwRiVWjSwJ4B7l/THzlpL9TjtGwEVYLVvPNXe1Ai8/wg0A7Akh76GVQWrkJdWiuTwHEQFpyMtOh9F2WXQVLAKWfNDJ6iydjLD+CXemLxiEKyd+qGPwesbh4Ybjt+Bj7rGvIL/14EYb4Ij3EjZrNGQGrqr/6HR8V4fSzCJ7o5NoUuTAzcCJ03H1zQmTcfQeEraAHKbJsF83e3vAU7TuGt/V7bTHrBpHHT/0nSuzW0roW+I/+v+mzs209eUGMpK8Pf6MXF77Vf9uORbnbZvZpsqHTb6u3Y9qfiTrXXjU6f8rh2gMkb2I4es1X7va2oIhwFWsLU2R21Gda8BWO//YqKOQI1A2yKgC7AMzA3kOlFWVYu0okq8TCvFnbhCPHxVjNiccuSVVTebKtjoyH0A876GGO9mjoVD7NDfui/1B20bnLqXGoFuHAHajjqaGcDXxhC2puproBsvZYtDJ3zKzMzEuXPncObMGdmeHlKEOTRypwH63r17JTWPMErX94k3+FJlt6REtv3+++8RFhYmZu1ULdHEnXCIEGj16tUCgdgfv3QBmL5ASzGYp2E7x8dUP6Y90jCe/lgEWPwiwGKfPDYrCVJZdv78eamoyP14bAIqel4RyDG1kd8ZC6ZAXrlyRYAY4R3N6v/whz9g1KhR6gO+Fs+mnrWBCrB61nqqs1EjAOgArD5GRlI5sLxYg7y0YiSH5yLuSSZSovJQkFGKqvKWlSz0vXIdZINRcz3h5GUNqrEUokLvkgZgowN3tCBC+wfhIU3gRAMgqQceutsLvFD20QEvr6GJAriaObYuEJF9tQNQwItCZhqG10BktFNqOG4zsKUBrgiEYb+vQVmjMdeDIhmlMp76CTdAJAUE1dOpRlCo0bY6wKeeTIknjA5QajhG0zgrYEkHGPFc+F1sdcbwmsDV/9QIBNaDLR2+1hSuNQszdaHg74Bg/XjqX7faTXU2qv/RwtYUY+Z7YcTEATAq6qMCLPU6p0agi0eAAMvI3gh9PUxQ2RdILaxEaEYZ7sYVSHXBuNwK5JVpUF0PzPWZjpFBH9j0M4KtmRFU2yt9IqZu0xMjQJA72d0cG0dZY4STSU+cojonnQjQzDwuLk58sOjvRLDDyn5UZTFN8C9/+QvmzZsnZu5ULFH1xJt7bkvow/2Ygkj4w0p9ixcvFsXTr7/+KmonwiGmHxIU8cvLy0sgE5Vc/CJMUlL09IFZyudAjiMwMBD/+Mc/EB8fj61bt4oCiwbrVFERVnG8StohIdfQoUMxffp0gWmcDxuPTTjH+Vy4cAFHjhwRqMcx0+uLpvWMidp6VwRUgNW71ludbW+IgAAsCxhYWKKyEshPK8GriBzEPc5EckQuCjPLJIXwTYqrpiHiRcLUwljSBgmzlNZIVdRUWKQLLXSBR/3Pv1cJNeiuXouLdNVOCuBoBFR0Om56/IZ/vVZz6Q68MUdponLS5SdNYMrvx91M/w0M5vcgRicsr5GNrsLqd7u8RVmmACrdBXvNthql6zUetw6IarSYXffFYe1ohoDVfpg41xt9Sw1VgNV1l0odmRoBbQQMgVorQ+TaAi8LK3AztkA8rhLzK1BUUQ1NTVOarQZOjYAaAX0iYGliiLm+VvjU3x4T3LQ3+WrruRHQ9TxjVT7CHyqyCIYIef77v/9boA+BEb2imHqnQCkqnH755RcxVmfa3ooVK0RxRfXVgQMHJFWPQImQiv5a3MbKykrSCQmI6DVFxRfN3mmmzuPpW91PF2DFxsZiw4YN8sVjREZGSoVB9k2/rB9//FHGMmbMGIwcOVLmQiUXUwoJuYYNGwZ/f39RknHujAlB3AcffCDQS/XA6rnn/5tmpgKs3rfm6ox7egQMDFFjZIriMgMkRxciOigNSS9zUJRTDg09RlrxxLunh0qdX/eIgJUCsOZ4w6RMBVjdY9XUUfbqCBgChSbA1ZISHInKwdO0UhSVV4sHo9rUCKgRaHsEVIDV9th19z0Jbqg+IpD69ttvBSatWrVK/KaoclKUSVRkubq64s6dOwKq+D/6ZFEBRZXVpUuXxNCdJvH00Bo0aJCk+z18+FD6IBCiuotpelRk0Sx9woQJ4rNFmKWoo94WT4I2KrC++uorMZCfNWuWACpWUiTQmjJlCpYuXSrQ7eDBg3j06JEcl6ovph8qX1RfMUWQqjAqsJhySIUWKyeuXLlSgJvael8EVIDV+9ZcnXEPj0B1NZCWUoWQO9mICspAcW65+F+pTY1Ad42AlWM/BKzyw8Q5PjApVwFWd11Hddy9KAKGQKWlAV70qcKZ2DzcTyhEQl4liqrUhyi96CxQp9oBEVABVgcEtZt0SfVSUlKSVPqjITsr/BHgsMofQQ8rEBJoETrR74qQ6t69exg+fDg+/vhjUWoxdY/G6vwfUwmpiqKRu6LsYpVCmqvzdwIzggKCJYKv5cuXY9OmTQK8WlJi0Xvr9u3bArCo+OI4laqJAQEB4oc1evRoMX7nfK5duyZpgvwbgRVVV1RocT+at9+8eRNHjx4Vg3jCsD179si2VHKprfdFQAVYvW/N1Rn38AiUldYgNqwEYQ/zkBZbgKLcclSL8qqHT7yzpqeHZ2qzm+ixX9um8I4dv+PubRuzdi99D23lYIbJKwaqAOtdgq3uq0agEyOga+JealSLwIQinAnNQVBSERLzKlFcWdMmNVafPoABrxz6Xjw6cc7qodQIdEYELPsaYo6vJfZOtsd4NYWwM0LeJY5BeEUo9PTpU4FPBDr0x6LpOWEP4RIVTVRIJSYmilcUKw/SH2rXrl1YtmyZmLczrZB/Zx80UifAYhVCbkdFFtP0Tp48KYooqrG4DUEWQRHB06effoqZM2eKQutNjWOl0TpBGc3j6eFF4EXIRiUY1VOETwRv9L5imiPVVQRXHAtVWExp5FgJ7KgOCw4OFrUW0yMJ0filGMJ3iQVSB9GpEVABVqeGWz2YGoFOiIChIfqYmaO03BCxT3MQFZQmpu30vtL4x02bAAAgAElEQVRUvL1M+RtHx/sF3jm0Q3vnXvTtoE8fNAyZ+8g9j87f+CfpS/kb/1tPVeqP8XrK3Ob1TZPyd1ZoVG6ktPtqd1T6ed3f677rf9JupOzesF/9H3SOL9srv9d33nCs+jkpfWmHoBMgpTsZu/YXOayyie666h6DHXFu2ug0Gmej/ZXx6E6YcVfOE924/y62shraY+iMp2GuOuM1szKB3yRXDBzqDMNCqB5Y7fA6VLtQI9CREdAFWIYWWu/EgvJqPEgoxKXIfAQmFkkFwqKKmpYrENYPtK+RAQbYmMDPoR9MjfV9I+jIWap9qxHo/AiYGhlghLMpFvqaw8fOuPMHoB6x0yKgLRBUJ6AqLS0NT548kSp8VFUR7hD0TJo0SVRXVFfZ2NjIdqzqR4BFtdXGjRsFUhH88PMh1Uy6AIv/p8E6Dd7ZCKyYckglFg3Wmf5HXy3uy1TCTz75BAsXLpRqhbpNqp3X1goEI3Riqt/Zs2cFuBFoEaxxP45lxIgRAq+4D1VkVGrRB4vqKqq7OG4azKenp8s8OSaqwOjVNXHiROzevVsgGtMMlaaoxTptcdQDvdcIqADrvYZfPbgagQ6IgE4VwjoYoiCrFPEhWYh5lI7k8BzkpZW2CmQR0lg59IOjpxX6mho2AJIGoFPPRl6DIC2ReM00GiiNFlS8/lX6agQvdACTAmKUfXT71IVRr4FNPWhRjqEDpwQ01YMSZdyCT3hfVT9W7XHqx2OgA7vqIU8jkMT/G9QDmAY2RGmAdv+GuSv9KaCoEXDi8XXi1GSbhlhJH6/BVkPM6vtuiFM9TJNvOkDp9b7aYyn7N8ShIV4KqKqfQ5OxK/GROOrEp1HcGmKorEV9PHVjLDGvH4cCx/r00fKyBpClnXMDdzOghN0AfcqBquQqFWB1wGVD7VKNQHtGoDmApS0KW4fsUg0eJxfjenQ+7icUISqrHMWVfMr/9hFYmhpilq8NPp3aHxPcLWBYf11vz3GrfakR6PIRkBdSDVBdBdTVdPnhqgNsWwQIfahCouqI6YD0k+IXzc6phvL19RVDdiqraLhuYmKCvLw83LhxQ1LtuB+NzqlookeWkvKnC7AInKhk2rx5s5i5K41/Jzh6/PgxLl68KF5ahEs0TGcq4pIlSxp5TxEecawEX9zn7t278p0KLkIm7sdxcjyenp4Cr5RGWMX9OGZ6e9G8nY0eXlRYEWLl5uaKsTyN3CdPniz+WfxdMW9Xqi8yBlSGtdcD97atnLpXZ0RABVidEWX1GGoEOjMCOgCrD3PD6yDm7QRZyeG5iAvJRMKzLOQkF6NG03JqoYFhH7j42GDSCl94j3WGsYmhVjkjD9W1oEJ7H6GrYPo9yNESpNcARQEhCu1pDF3q+1NgTAP4eQ28XoMTRSlE1VArM0saJFL6L1AjdZH+u7VyYK871pld0z+25uhvT9hrLNrSu99mNRAtCSNa+v8bcoNYfKCmsAaVSZUqwNJ7hdQN1Qi8nwg0B7Aabo7q6lBVU4fskiq8SCvFnbhC3I4rRGRmKYoqa+WpfHPNwKAPXCyNsXa0I/4wtT98HVgRq8ULyvsJgHpUNQIdFIG62lpRqFCVQ8ihtp4XAQIkAiOCI3pD0UOKIIfrzjQ8qq6YLsiUPiqnCHKYXsi0v2PHjolqikolwiv6XzHNUGm6AIvXWsIrqrB0ARa35f9YDZDpfzR9pyKLpu5UP9Fri2oopVGhRVXYmTNnGsAVx8q0RI6R8Irwib83rRjI41C1xTkSYvFYbIRkTDPk/MPDwyX1kKmQCqzT9eBiuiKrGXJMnC+9tFSI1fNeF7ozUgFWz15fdXa9MQI6AMtAecrBB3b80FNZg6LsMqRF5yMuJAtxTzKQk1L89uqEfQBTC2MMm+6OGZuHwnWgLYyM9SNFLd5atLiBsoCvN2wzQOqN50IPmnNdTR2qVYDVg1a0c6aiwJAGQN45h+31R3kbwGoEsqrrkFOqQWh6Ke7FF+JmbAHCM8tQVFmD2mYqFlJ15Wlrit2TnPGhvyucLYxViNXrz7beFQBe02i+TdUJU6vU1vMiwM/rBFbnzp0TqBMZGSlAhul1VF0tWLBAVE1M4yPIISwitKKXFCEWIQ9T9Zjy17RioAKwWJ2Q59KWLVtkW8Klpk0515jOR8BEYMo+aRKva55OtRbhFdMAlbFSIcaUQY538ODBDWNtbrXYLxVjhw4dEnN6bs+KiZzfzz//LCmJBG1MlWwK2tif4rdFBRqPSU8wqrHU1nMjoAKsjl5b5UliO/kH6Q5XyTem7kWeQnbAMTo6PG/tn7HraXPqjIA2B7B0jkslS7WmBsU55UiNzkfsowzEKiCrorp5s/c+gKWtKcYv8UbAmsFwcLeEgZHW10RtagQ6IwIqwHqHKOsqWlq6ptJzg4dSLr8tbf8Ow+rIXXkDUFlViaKyIvmAb2VhDROj10+h9T52a2Knd6c9f0N9AJYSBYZYQ0VWaRVC08twOy4fN2IKEZFZJmbvTRVZ/Lwz1LEf/numG9aOcoSNmREMuul52vPPBHWG7R0BFWC1d0S7Zn8ElEwdpKKKHlH0sKJR+4wZMyR9jml4isqICiam7FEFRXAzdepUMUTXVUkps9QFWPwbAdb69eubBVjKPgSlhKYETUzR000B5DYEaFFRUQLQqBqjNxcVYnPmzBHvK8KutymiqPQKCQnBd999JyCOnlyEVUwt3Ldvn1REZOpiU98rZXz00WL6IedPpRZTFQnkVBVW1zy322NUKsBqjyi+oQ++4AtLSmBkaAALM/PfySbf5dDsOyU9HeHR0bC1tcFwv8GwNDd/ry9Wypp500CPCyUBgB8qDQ0M0MegdbBDcr9LSiXtytzMDMZqmVT9T5cWAJZuRzXVtSjMKkVKRB5iH2dIemFuajE05c0//bZ1Nce0DUMwZqEXbJzMwfRCtakR6IwIqACrbVHmtbSsogzV1RqYm5mjr/Gbn0ryxogfRHMKclBcVgxneyfYWNh0mwcJHD/nW1pRgoTURDyOfIzYlFh4OHtgUcBCeLv6iO+cvk1SKCrKUVFVCTPTfjDta9JtYqHvHDtqu9YALN0xVNfWIbO4Cs9TS3ArtgC3YgsRnV2O4qrG70lcxxleVvjTzAGY42cLS6a267+0HTVttV81Ah0eARVgdXiIu8wBmBZIiMUvgiCmBbKSYFMww3tCekdRCcX0OaYZvkmB1BRgERYRYHGfd2lMaaWKimop+l5RBWZvb9/ifSnfs6k2Y8XCEydOiLfX559/LmozAilWMeRcWP1wwoQJv4NnHDMBF43pCbF4XEI5xSj+Xeak7tt1I6ACrA5am8qqKiTXA6aBXl7w8/aBkZHhW4/2OtXh7Z/CuF12bi7OXLmMU7/9Bo8B7ti5bi3GDBv+O6loe09P0FQd5CZBQyKv0cgNT3lFBfIKCpBbkI+SklKRNZO4W1tZwsneAfa2trAwN5OLkKHB2+PAMZP0R8bFITM7G76eXnDv79rsRau959cj+msFwJL51tELtAb5maVIjcxD/NNMJL6g2XsxKko1qK2mJ4k2MrxpcB9mjylr/TB0qhss7FUPkh5xznSDSagAq/WLxOt0dkE2IhMj0dfYGCN9R8HS3PKNHVVVVyE+JR6Xgy4jLiUWC/0XYvaEOQJvWmviJtWT6h9laKt/dhRdILSi2qoCuUV5iE2OxePwR3gW8wzRSdHILynAqIGjsGf1HswcNxP9TDgX/Rrjl5GXgYiECDjYOMDPw0/277i56Deu7rBVWwGWMreqmlqkFWpB1r34AgQmFiMmpwKF5dXQ1Grfk6xMjbB0mB0+DnDFRHdLmIs/o9rUCPTsCKgAq2evr+7sRElcWSleVLx/Ihh61/cfXYDFvgiw1q1b984AS24n6isRsl9dj6o3rRjfY5n2d//+fZw8eVJM3zmetWvXiuiDyjMCLKq+9u7dKwCvqfqLfTM+BGBMi2TK5Pbt2yWV0MrKqvecLL1spirA6oAFV9RRV+7cQX5BAVYsWIDBvr5vfDHzBc99CgoL5UmvjbWNqI7eJInnCz48JgZff/89Tl/6DbbW1tixfj3WL1sOzwED5EalIxqhUmFxsXwVFBUiMzsHaZmZSMvMENDEuZaUlgrMqtRo5IOkWb9+cLC3xyBvb4weNgwjhgyBm7MLTE1M3noRZjxeRkXh5v37cHV2wozJ/nB1ctLrgtgRc+9WfbYWYOlMTlNRjYKsMqRF5YnRe1JoDnJTilFeXAWqtXjT0NfMCAPHu2DSyoEYNMEF/ay4lt0qQupgu2EEVIDVukWrratFflE+HoY9xMu4lxjjNwbTx0x/I8CRctalRbjx6Ab2n92H6FfRWDt7Hfau3QsPFw+9PjTLh9c6bepeSVmJqLh4cbC1sIG1hRUMDY1aN4kWtq6p1arLMnMzEZEYIXMNjX2JtJw0lJSXyIdpE2NTDPLww8Z5GzBv0jxYW1rrPQaqitNzM3Al+IrEZu6EOdJXX+M2pCLqfdSeseG7AixdkJVSUInnaaUITChEkICscuSXVYNqrf7WfbFutCO2jXfCcFdzmKqp7T3jBFJn8cYIqABLPTneJQK6AIuQiUbvBEZUS3VWU85helc9efIEFy5cEBN2Kqw+++wz8ffiPWdQUJCkEBLiffTRR5g2bVqzQg2ayNMr7IcffpD7ac6HKixWPFRbz4yACrDaeV354T03Px+3AgNx7uo1jB81CltWrYLjWy4MCvC6fOsWYpOSsHDmTEweNw4WbyDt3P55eDi+PLAfF69dEwXUhNFjsGvjRiyYMUOO1QC/2oks8GKTmpmJK7duISgkBGlZmUK8q2tq5Ku2pgbGRsYw6dtXbmAKi4qQkZ0tUI4XSFsbG/h6emLhrFlYs2gxvD08GhkANl0GHi8lLQ1Hz55FanoaFs6ajakTJ8HK0qKdV6wHdvcOAEuJBs3emVqYHlNQr8jKQk5KiYCs2po6mNuYYEiAGyYu94XnSEeYmLXvjWkPXBV1Su8YARVgtS6ABDvPop/jt8CLck3eOG8jRgwcAYM+zadz85qblZ+F07dOYf+Z/UhKT8KU0VPx581/hv9I/8bQRidNXB7A1FSjoqpCYFJBcQES0xMQFh+O+NR4GBsawX9kAGZPmA0nWye9QFhLM+UxqbjKzMtEaFwoAl8E4lH4YyRnvIKFmSVG+Y2El6sX7KzsYW1hDWc7Z/gO8IWboxtMmAaobyPUKyvCtYfXcTXoCsYMHoNl05fDxd5VUuPV9uYItBfA4hEoAK7Q1CK9iB5ZJVK18H5CEeJzK1BSVQ0vO1NsHeeM9WMc4G3fD0atSBNV11CNQHeLgAqwutuKda3x6gIsZsoQYK1evbpTAJaS5k/gRH+rwMBAUVnRP8vGxkbUV1RPMQ2S97pMnaQvVnR0tBjXz5s3T8apeGopCrXExERJP2TFQoo86L1F4EUg1rTqYddaDXU0bY2ACrDaGrk37FdWUY6noaE4dOoUkpKTsWfrNoE2VBy9qTF3987Dh/jnD98j5OVLrFu2DB9t3ozBPr6NSp8q+/MFm5icjMOnT+P8tavIyc+Hhbk5ls6Zi3VLl8Lb3V08o+g7RTUWX7zvKjnlRedVaioOHD2KI2fPICc3V4DUlAkTMXr4MHj0d4OVhYVALD4VT0xJxvmr13D5zm2BWYRYzo6OWL1oEXZv3Ag/H98Wfa2o9DpbnyY5yNsH29auxdCBA98Kvtp5Obtnd+0AsOSmoT61sCSvHBnxBYgOpkdWBvLTSlFRpoGlXT+MmuOOicsGwmWgDQzVJ9/d83zpJqNWAZb+C8UPcARQp2+fRtDLBwKgti7aBmd75zd2QsiVlZeFUzd/xYGzBxCfFg83Bzd8uOojbJy/EU52TgK/5AOjphLllRWorKxAWWUZcgtzkZiWiMikSEQlRSEpPVF8tKhaolpp8ojJ+Gjlx5g2ehr6STpi2xvfX4pLi0VxdfPxDdx9elfSBgnPzEzNMXvCLCyfsRx+HoMl7Y8pfybGfV+nrotaVH/JaJWmEk+jnuK7098JpNu2ZDumjZoGi37mqh/WW5axPQGWchi+J1XW1CK7RIOIjDJcjc7HnbgCpBZVwseuH3ZMcMbyEfZwsuirqoLb/hJT9+ziEVABVhdfoC4+PKbs/frrr6JW6tu3r1T7W7lypRivd2TjZwfe79Ini8qqW7duITQ0FARq1tbW8Pf3F5gWEBAg94winEhNlaqE9Lfi5xpWJ3RxcZHqhLy3pTIrOztbfLcIxOgBxn1HjhyJDz/8UIzkua3ael4EVIDVjmvKFyeN1U9cOC/eVFQZ/c/HezB6+PA3AiRJ2ygpwYXr1/HVgf14GRGBgd7e2LNlC1YtXAQXJ6dm6bEY7ebnIyYhAS8iwpGdmwdnB3s4OjiI+kpJ33N3c4O7a38BXPrkI78tHPTdOnb2LPYfO4qy8nJsXL4CO9auhZurqxaU0duqjzYHOj0zE8fPn8O3hw4hKTlFvLAWzJyFj7dswdgRI9DP1LRFqEb5aOCTJ/jnDz8gryAfW1avlnRMB9vfGxi24zJ2/67aCWDpBoLpgxUlVchMLETorRTEPEpHfnoJLFiZcLEPJizzhY2TWasMkrt/oNUZdGYEVIClf7SZvnfryU0cvnIEZeWl2LZoG5ZOX/ZW/ydet5lyeOH+eYE1YfFhck2fNX42Plv/B0wePgmmfU1RWl6K0IRQPAp/hNhXMUjKSEJqVioKSwvrDc8roKnWyPWd8IoAiSbq6+etx7p56+Fi56L/RJpsyfdYwrK7z+/i3N1zCI8NE4BGKGZlZiVj4BzGDh6LjfM3Ydb4WbA0sxSFGL+0KmH9fBiVQ9fWEga+wr6z3+H2k9uYOX4Wdi/bBe/+PuqT3U4GWLqHq66pQ0FFNV6mleJCeC4eJhXD1aovtk90xjw/W5gaqwq5Nr/Q1B27dARUgNWll6dLD47nTkZGhlQ2PHLkiMCdnTt3YsWKFaKA6simVBqkVxUrJlKFRSWVh4eHVE2cNWsWhgwZ0ihFkNUVWdWQaYSEXvwMwH0UVRV/p1KL98T8mY33ujS8Zxrhrl27pH+19bwIqACrHdeUUOfeo0fYd+QwwiIjsWbJEuzdvgNuLm//wF5aVoZrd+/gi/378ejpU3nxjRs5Ent37MD8GTNgZ23TCPbQl6OquhqlZeWIT0rCraBA3H34UCoSFhUXw8TYGKZiNAt4DnDD9nXrsWTOHNjZNO6ntVMvr6zEtTt38O8fDyIzJwdb16zBrvXrYWfzmtrz6TiJeFRcPH48eQInLlwAq2iMHzkSn+3+AAtmzBQzd30aFQHs598Hf8C1u3eljz/s/kAAGJ8aqO0NEegAgKUcSavKqpbUwudXExEVlAYjE0MErPHDmAVeMDHrGP81da3VCKgAS79zgB/i4lLi8OOFg7gSfBVDvIbgk7WfYMqIgBYVQ4Rd91/cx74z+xD4LFAURwOcB2DP6k+wbu462FvbIyEtAd+d+Ranb54Wg3gxa1eqPNQPkaDIxd4FIweOxAifEejv5IZBAwZiuO8ISelrayOYCw4Lxo1H1+V9xt3VA0M8h0h6YHFZkaQ+Hrl8BN5u3ti1bBdmjJ2J0opSxLyKQVZhFvwGDEbAqAA42uhfbYlG9HmFeaJM++70PgFi/7X2U8wPWCA/q635CHSEAqu5I/HUK9PU4FlKCS5F5qGmDlg/2hGj3SygZhKqZ2dPjIAKsHriqnbOnMSC5vlz/Oc//5EKf/SIIsBasmSJqKA6shFgxcTEICEhQYATgZm7uztcXV1hXi+yaJotJEXLsrNx7tw58bii0opzaPqZQzGNV4zunZycBIqxuiKrGaqt50VABVjttKaiviLVPnMGR8+cEXj06Y6d2Lhihaif3tb4Qg6LjhbwdeHaNTFBt7GyEgDGtDlWMCTU4t/zC2meno0X4eG4fv8+Hr14LpJJvmiZojdh1CjMnz4Dg3y8ERoVhcOnTskH/e3r12PpnDmwbQLDWjX9ujpExMbiwLFjuHH/noCknevWw8vdHbW1daiorERWbjZeRETgVmAQHj0NQVZergC8LatW44NNm+Dh5tai8kp3TOlZmfj5l1/xw4kTMOlrjI+3bJW4OL9juddWzbu7bdyBAOs1yKpDZTlBVj4iA1NRkl+JMfM94TPGCYbGLVeZ7G4hVcf7/iOgAiz91qCisgJXg69g35n9eJWZhEUBi7F7xQfwc2/5QxwfGjDtLzIhEsFhQQiNC4OJsQlWzFiBKaOmwNzUDKnZqfjpt59x+PIhpGeni6qJX4oPFt+r/EdOwccrP8K0sdNEGcUPm+WV5WCVQyqyzEzM2qQIViocaWr5xLUKVfVfnDNTHo9cOowzt8+IUszWylb+z3RDHpfgbPHUJfhk9ScY7jO8VWpRpifeeXobXxz9AolpSVg2bRn2rtkroEyfqrr6rVzP2qqzAJYStdq6OpRUsnJhJfizh60pLEzU96KedVaps2EEVIClngdtjQDT8JiWd+PGDYSHhws8mjt3riifOkMYoDzw4j2zAp1asrhRzvfc3Fzk5OSIcoupiLx3ZqMiiwCM0MrBwUEqNSrWOfz+rtlHbY21ul/HRkAFWO0U38qqKgSHhGDfkSOihhro7YW/fLwH86dPb9GziS9OyiQj4uIkhTA7P09UVONHjpKqfUaGhsjJy5PKgxdvXEdkbKwYp/NFa2lmBldnF4wYPBjjRoyEt6cHrC0txV+qoLgIl27cwI+//AIrS0vs2bIVUydO1JZhbeO8C4uKcSPwPr4/dlTG4eTgABtLS5SUlwtcKy4pQUVFhcA2TXW1jNF/3Dh8vvsDzJkypdnqEW8bChVlNMP/18EfxFdrydy5+GTbNowaOqzDqi22MTRdZ7dOAFjaD1FAbU0tKko1yM8oRXVlDRw9rMTgXW1qBNo7AirA0i+iyZnJor765cYvMDbuiy0Lt2Dzgs3iYaVPo8K3urZG0gAJpdhM+5rA2Ii+Qn1QWFIolQpPXj8hVQZ9BvjC2c5JqhZeC74m+62Zs0ZUW8O8h8p1gmmG1x9eQ3RyDPxH+GPexLmws7Zv1cMMjoXpgTRuzy3IQWp2GhLS4pGYkYSUzBSkZaUiOz8b5VXlMDI0gpmpmaQL9jXqC2NDY6k+OHX0VInHUO+hMGDKu56tulqD57Ev8NXRr3DryS3Z/7P1n2HmuJmwMlfLdDcXxs4GWMqNfW2d1vTdsA8Fh239pKPniaFupkbgPURABVjvIeg96JCEWLRooZKJgIfgqj28kjsyRLrgqznVN4+twCr1ut+RK9F1+lYBVjutRV5BAU5fuoQDx44iKTUVM/398aePPhIIpc+Lqa62DlXVGmh4Uakn04RQJaWleBoWKl5XNEkvKS2TmwoXRyf0d3WBk70DzM3MJPeX8kyCNG7HvxsaGSI0MhJf7PtOjOWXzJmLnRs2YJC3d4sG6m8KCy98NHP/9beLUiGQRJwVBik97WdiCmNjI+0T6bo6MXPnhXHSmLFYtWgRfDw8Wk3CqR67ExwsFReDHj8WcPXJ9u1SqdGmg+Wu7XRqdH43nQSwlIkpIIsqPBq5G6h5G52/5r3giCrAanmRqaAKehmEf5/8Fx68fACv/l74cMVHWD59OSzM2sfIlO8/6TnpiEuNg6mxiVT6yyvKE++sY5ePoaSiBJsWbMJHqz6Wqn+sRHjh3nn8dv83gUsLAxZi59JdGOQxqFXqpZLyEjx4/gAnb5zEi5jnyC8pQE1NtcAqKsAqqyqlAqKmRgN3Z3dMHuGPge6+sLW0hUU/S5j1M0d/excM8vCDjYVNa3zc5f2VqZPfnvoGJ6+fFBXZtiXbsGXhVkmxfFNlx5ZXrOdu8T4AVs+NpjozNQKvI6ACLPVsUCOgRqC3R0AFWO10BsQmJuL7Y8dw4vw5VGo0WLtoMf5r1y4M9PJq+Qj1Jcl1QRcl8Hn5+bgbHCyV/Mz6mWH90qXSH9VXFRXlKCguRn5BAbLz8pGWkYHktDSpCjVu5CjMmTYN1lZWePj0qaiXgkJCMGTgQOzdvh2LZs2GHeFPG59OUl0VERODWw8eoLC4SFIEXZ2cYWNjDXPTfjA2NhaARZ+uupoaqWzh6uQEM1PTVh+TwOxZaBj+8cMB/HbjBuxtbLF17RpsXbNW0hFpWK+2JhHoZIClxl+NQGdEQAVYLUeZhuanbpzCN7/+R1RPE4ZNxJ7VezBr3CxRI+nV6uokBYuN70nNeVKwCiHN1Kl8ot9W9KsoPI9+jqeRT1FVo8HmBZuwaeFmMVi//OCyGMqXlJdi/OBxWDptGWaMnQEHW8dWXb8JqB6HP8b+M/vwNPop7Kzs4OHiAUdbR1F9hSeGIzQmVCDZUK9hWDJ1iZi5uzm5wcHaQQAeTeWpyGptWW2Gg8qvQ5d+xg9nvxdgt2jKInyydi9GDxotaZZqaxwBFWCpZ4QagY6JgAqwOiauaq9qBNQIdJ8IqACrHdaKbyaBTx7j3wd/FG8oVnXYsXYdPtqyBS6Ojm8+AiGPRoPC4mLwyTl9r3iTIZUJi4sFXh09ewaxCUmYM20qtq9bJ6l/j58/R0xCPNIyMwVcpWdngwowwp7+zs5YOHMWxo8ejZz8PNwNCpKUxsysLNjb2mLtkqX4cPNmDPH1haGRUZtmT6VNWUU5CouKZH+mONLAnvMg0KJKjPOqramRmx9LC3M4OzoJxGIqIysW6qNKk87r6hCdkIBvfv5ZqhpWazRYPn8B9mzbitFDh2lhmdoaR0AFWOoZ0QMjoAKslheVkIUVBA/99rN4Ts2bNA8frfwIE4ZOgJFRk2tl/YMTxQyVZuVUNNEonQqr4vISuDu5w9XBVZSzVCFR3ZRbkIuY5Bg8j3mO0NiXyMrPEnN3/p/qr6KyIiybvgLjBo9FaNxLPI54LAqp6WNmYFHAIgz3HS5+VK31jpLqSbkZCHwRiLScNHg4u8PVsT8Kiwtw5+kdXA2+KjCNCt5IGXIAACAASURBVDFrc2tRn9E8vr9Df1GCuTn2F7WUp4snHG2dBGa1plHddebOafzrxL9EfTZ+yHh8uva/MGfiHDWNsJlAqgCrNWeXuq0aAf0joAIs/WOlbqlGQI1Az4yACrDaYV359Pfclav4148H8SwsTBRJH2/dhm1r1giUelMjcGK64d2HweIfFTBuPEYPHy7+V0zT++mXkzhx/rw8Dd+2eg3WLVsmvlPf/PwTHj1/Ll5T7INvZt7u7rIvU+wIp1gxMCjkCZ6Hh4uSi30wtXDKxInYvHIlhg8eLDcVrWk8DudaXFIqVQgJzzKyspBFY728XGTn5iK3oADFxcWoqNSgtq5GumeKI+GV1wCOcRgmjx0nYE+vp+B1QEp6On44eQIHjx0Tf7AZ/v74dPt2zPQPgFm/fq2ZQu/YVgVYvWOde9ksVYDVwoLX1SE8KRJfHvkSlwIviu/TipkrsXv5bgzzGdYYGNVBjM0JZXKLcpFXmIu8onxRVaVlpYkhOo3LZ0+YLQbuTLlLTE/UQqu4l3gR80JSA2mWTk+r2RPnCPT67vS3sv8Qr6HoZ2qK7Lxs8d4iuFo0dTG8XL3R16gVDzCaTJnvdxWaCoFlNGiPTIzEb4EXcePxDTGUp6dHWVUZvFy94GznLFUSs/NyRGxsb2sP3/6+4oO1wH8RfN19YWyo/0OcsopSXH14VeLL+fMYH6z8AGtmr5Vj6f1Qppe8blWA1UsWWp1mp0dABVidHnL1gGoE1Ah0sQioAKsdFoTG5YdPn8K3Px9GQvIrDB7oK4Bl7dJlMH8LYKG/1c3797Hv6BHEv3qFedOm45OtWzHY11dA0M3A+zh96TKy8/KwfP58qb6XlZ2NExfOIz4pST4w0xsrJS0Ny+bNx64NGzDcz0+M05laSPBD0ER1lAKSBri6iheVrbU1+hgY6D173jhkZGch+OlTvIiMRFJKClLT0mScfDrvYGsrCi9Lc3PxvaICKyM7G5ExsTIO+mHxf4vnzMEfdu3G6GH6q6cIxqhE++annwT4jRk+HHu2bhUl1tsAod6T62kbqgCrp62oOh+KMWvqUF1Yg8qkSlQXaM3F1fY6AvRRpDrpfx36Xwh+EQRrK2tsmLsB25fsgO8A30b+g4RTTPm7HXIbscmxyC7IQk5BLnILc5BfnC9wiGlxcybNxV82/xlDvYchKDRIzOHvhdxDcXkxvPp7Y77/AqyYvlzUTtceXsNfD/8ViSkJ4ktF76mRg0Zi2bTlmDNpDtwctCnfTE6kkliAT2tTwOvqJIWeoO1hWDAu3L+IkKgnAtIGuQ9CXmEegsOCMWfCHCyZulQA3cPwh+KZlZqVCqrMRviMxIcrP8SyaUthbWmj9ynEFMb7z+/h74f/LrFgCuPmhZuxY+lOgVlqpaPGoVQBlt6nlrqhGoFWRUAFWK0Kl7qxGgE1Aj0wAirAaodFZYXA/UeO4OCJ4wJtCGc+27lLoJOJSfPeGHwDItg5fvYsfvrlF+QW5GP65Mli/D5h1GhRZGVmZ4sSKzc/H14eHhg1ZIgorgiPqLAqKSvD0TNncPXuHSyaOROLZ8+BpYWFPIWmmbq9rR1cnJykKiHTJd7FXJtAilUWv/r+AO48eCBPwL09POA/fjzGDR8BT/cBcHJwlGNxzjSjj01Kwi8XL+DslSvIzskRz6qd6zdg06pVcHfVpqXo0xiLU7/9hn8e/AHR8fEY5OODDzZswKaVK+FgZ69PF71rGxVg9a717iWzVQHW2xea6tgrQVfw//38vxAWFwYXexdsXbwVmxdu+Z3ROMHOrzd/xbe/fiPpcIrXFa/rfNjA5mDjIH5Ve1btEThEhdX5++dw/u55UW/Nn7RAfKYIx5iueOb2GXx57Eu8SkuSFMEJwyeK8mr84PHyO9/z2HdNXQ3MTMykf5qh66tc4r5Mb6Ty696zu6K6Ykqht5sP5k6YI6qvWyG38MO57zFz/Cx8tvYzAWtUjgWFPhC4FxoXCtO+/bBu7jpsXbgVLg4uer96mJr4KPwRvjj8d9x+clvS/VfPWY2PVnyEId5DBdqp7XUEVIClng1qBDomAirA6pi4qr2qEVAj0H0ioAKsdlirlPQ0/PvHHwUmFRQVYcLo0fh8124smj1b1FDNNfpDhYSGYv/RIwh8/Bi+nl5Yv2wZ5rO6noUlQqOikF9YAF8vLzjYayENwRTTBgl00rOyEBEbg/PXruHRs2fwcneHR383ebpNI3d6R9na2Ioia9LYMZJaaGdjozc0ajpmVje89/Ah/v7dtwh58QI+np4yXkI6B3sH5BcUio8XjdoJ0Zg+wlicv3pVoFdMfDwmjR2Lv+z5RCo08v/6tqKSEm0/Bw4gLDpKQNiOdesEhr3VY0zfA/S07VSA1dNWVJ2PqsBq8RyoqKzA6Vun8fcjf0N8SrxU4tu+dIdUBCTM0gVFFZXluPvsHg6c24/EtETYWNjKgwemEiZnJvPtA1NGTcHHqz5GwMgAmJqYirdUSmYynkSGCIQa5zdO+q2oqkRMcjROXDuB07dPo6A4H7ZWtgKUPF08RMlF1VRNbbUWjtUB7s4emD95AUYPGglTk7engfNmjabxhFUhkSG49eQWnsc8E2A0cdgk8fka5j0MpeWlOH/vPG6F3MSMMTOxevZq8bvqY9AHJaXFiEyKEvCVkp2KiUMnYIH/Qthb2emtAuPYn0U/wxdHvsD14GsC5JZOX4ZPVu/BaL8xrfbUanFBu/kGKsDq5guoDr/LRkAFWF12adSBqRFQI9BJEVABVjsEOuHVK3z9w/c4eeECmBZIVRIB1vzp099olF5WVobLt2/jx19OSjrFxuUrBF4RMhFS3Qp6IGbo40aMgKWlBRKTUxAeFSUKJCq3mLpXUFiI1MwMMXz38/HBsEF+sLG2RnFJMcK4bUKCgCL/sWMF9hAcWZib6/2BXTc0BFh3g4Pwxb59ku64ZM4cfLhpM/y8vREWHY2TFy+IqTzTH+dPn4GhgwahqqoKV+7ewd+//Rbh0dGYGRCA/2PvXkwcNRrGffU30C0tK5MKhF/s34fn9BhzdRV/MZrRs/qh2ppEQAVY6inRAyOgKrDevqilFaU4efUEvjj2BVIyUkR9tHPZTqyfux5OTTya+LAhMycDofGhop4iwGI2X0hUCC7evygH2rZkO1bPXC3V+xSjd0Ko0vIyVFRViEfWq4xXeEmj9rBHUiEwLTdNthVFF5guqK1myKb0YdDHQCoDblrA9LsdYrD+NhUW0xmjXkXjStBlSd0rKy/DIPeBCBg1BeMGjxMDeXp20UCeqYU+bj4C3XgM+m1xDCw8Ul2tkf/zy9zMAo42jjA2MhJ/SI6NnoyEbYYGRs1mNjJmobGh+OLoF7gceAmammosCliIT1Z/gvHDJkgao9peR0AFWOrZoEagYyKgAqyOiavaqxqB/5+9+3CP6krTRf9WVM4ZEUQUOUvknMHGYGyDbRzb7Q4zfWZ6zrl/w7n3OdM9Mx1mpqfH3U64MRhskzPY5JxBBAkJkEBCOVe+51tCGLBApbRVu/a75+GxB1fttdZv7abQW2t9iwL6EWCA1QlzlZufj9//9S/YsG0bGhobMXncePz9u+9iztSpzwywSkpL8eWmTdh35DAmjBmD119ahl49eqgVUmXl5diydw9sNjvGjRihtgzK6i456VBO+pNi7COHDFGrtmQVlgRIL82fr2pkpaemqaLtX+/YjrXffIOikhIM7NtP9WfF4sWIi/W/5sfjNI0OB747dgy/++i/1cqqt195Fa8sWYKE2FgcPnUS//v3v8eFq1cxZ+o0/PTNNzFu5Ei4XE7sPXQYv/mvP6kAa+akSfhfP/+FGlNbTg+UGl47DxzAv/75zzh7+RJSkpKwesUK/PSNN9Wpi7wYYPEZCH4BBljPn+Pahlp8uWst/m3tv6ntfhLkSID1yuxX1Kl7T4dEEsjIlkH5zJGwqba+DvtP7VVbC2Vr3XsvvI/MjEx1cIds3ZPL4WrEzTu5aiXUuRtnkXsnV51CKFsSZZVUc0glQVBEWIQKdWQFlKzekhVici+v2wub3aa2+f369V9j5ICRz1ypLG3K+67mX8WFmxdgMZvRJy0DfVJ6IykuSZ2sWPSgCF8f+FqtAJMTbt9cuBpLpixRnzHVddWoqq1CTV01JOCTsK7B0aj6KsGY1LWS36+pq0HfHn0xc+xM9O2RoT57n75kbFfyLitfCfkcahvlXBVgZQ+foLZD8mKAxWeAAl0twACrq4V5fwpQINAFGGB1wgxJQXW1AmvbNsjKqknjxqlC5XOfFWD931MFbxbk47OvvsLd+/exbMFCzJ4yRZ3WJ9elaznYtHs3+vXqjSlZWbh56xb++Okn+P7IEfRK74nXXnwR82ZMh8PhxKdfrceOAwfUVkE5WVCCo4yePbHn4EF8sn69qp+1YMZM/Oon72Pc8LYFR08EWI2NKsD6/V8+gsvjwQevv46FM2ep7YKnL1zA//uH3+NiTo4K0STcGpCRAQm99h46pLYdypbImZMm43/9/OdtDrBkBdaO/fvxL7IC69IlpKak4K2XV+CDN95ggNXS88sVWJ3wv2reItAEGGA9f0bq6uuwds9a/O7Lf1MFy/v1aA6wZAXWjwOsx+8mPxDJaYSysujQ+cOYNGIils96GREhEcgtysWe47tViHS3pBCFxXfVKqZ6Rz28Hi/CQsMQH5OgtvTdL70Hi82CZdOXYcnUJWqVk9lsUdvLJYgqLr+P6wU3cDX/itpmKGHT8H7DnxtgyQopea/T1ahWScnpuSaY4XI78aCiVBVt37DvKxy9eFSFSFJcPtQeolaIyWeQvE6CM6kfqWpweb3qhFzpu/TL7XWrIG9gz4F4c9FqLJm2RJ0qKCvFHr/ktZdzL6kAa8eRHXC4HVgwYQE+lABrWLbaZsmLARafAQp0tQADrK4W5v0pQIFAF2CA1QkzJCuk/vjxx1i3ZTNqa2uRPXYsfvXuu5g/fUaLK7Dkw0fCns83blDbB197calaUSXfGEudq2937cThU6fUCq5pWdnq9L+/rv0SG7ZvQ88ePVQgJScfnrpwAVdvXFchlWwdzOjVGy/MmYNRw4Zi36FDWL9lC0JDQvDLd97FG8uWITFO6n20b8BN2xqPqaBObiGrrOZMmYrwsDCcOHsW//uPf1AnI765fDleX7YcctqhrJySFWayhVACrKYthL9Q2yLbsgJLtmVu3bsX//bRf6tVXnLvt1a8gvdXrUJacnL7BhTM72KAFcyza9ixMcB6/tRLYLNh71dqi9vte7fVFkLZovfa3Nd+tIXw6TtJOHPn/h1sOrgJBfcKVPg0ZeQUtYKpqbbV18gvzEdNfY0KidJT0zGy/0iMyhyNoRlDERsVq7b3/Wnjf0K+cPjw5Z+qLYJNAVZTECSfe7ISS1Y9NTobYDKZERUmB4zYntjWLmGSWh3m8zYVfvd4UFVTiYL7Bbhx5yZuFeYh/36BCtPKq0rVFvqa+moVKFnNVhVySVAlbantjBJ3mcxP1H+U31f3l/9Tuxx9asXY4slL8P5L72NM5hi1nfDxS+55/sZ5FWDtPrZL3X/x5MX48OWfYdzgsQjhFsInvLiF0LB/VHPgXSzAAKuLgXl7ClAg4AUYYHXCFEntp/9a8znWbNyI8spKjB0+An//3nuqTlRLQY18+Jy5eBHrNm9GfGwMVix5Af1691Z/ib9bVIT//Pwz9UOAbCscM2wY6hoaVIDz3198AbPFrLbiycmHEgoVFBaqWlOvLlmitgj2Sk9Hwd1C/PXLtdhz6BCGDxqE//Wzn2PahImw223tHm1zgPXvH3+svi2XAGvmpInqJCZp5//74x9UTa73Vq7EK0teQHJSklqNJiuwmrcQzpo8Ra3AamuAJVsWv925E3/461+Qc/OmKlj/zmuvqRArJTGx3WMK2jcywAraqTXywBhgPX/2JRjafHAz/mXNb3H9znVVW+qtxW+pIKlHUo/n1pmScOZawTV1kmB9Yx2WTn8JPZN7Yt+JfdhzcjeiI6LhM0HVm5IC6AN6DkBURDQiQiPUyiOXy4Wdx3binz//Z/X+n634uaq9Ja/395RBGZ3D2Yi8wlu4cOO8qq8lhdulqHxxRbFaUSVhVnOwJZ97EqjJiYiJMYkY2m8o+qT1QVR4tFpxdebaaVy9dRXJccmYnTUbw/oNg8VsUfW7ZLulbHssqSjF/dIi3Cu7B6fDiYkjJ+LNhW9iTKYEUk8FWB632jr527/9FgdOHlCB2IvTl+LD5T/FiAEj1cowXj8IMMDi00CBrhFggNU1rrwrBSigHwEGWJ0wV3Iq4Mfr1uEva/+Gwvv3MTwzE7985x21NTC0hdP2VIB14SI279mN9NRUvDB3LlKTk1Votf3AfrW1cOyIkXjz5ZfRt1cvyImF569cVSFZ/p3bWDxnLrJHjUJuQQE+/3ojrt68iaVz5+KVF15U9zt98SI+WbcON/Nv4aUFC/CLt95WW/parEzr5/gdUgPr+DH8xyefqG+4pf7U9AkT1D0liPuX//4zwkJC8OGbq7F0/nxVjF5OD9z5cOvf9dxczJ46VYVpbQ2wSisqsH7zZvznp58i73aBKhAvBdwlKEuIi/NzBAZ6GQMsA022cYbKAOv5cy3hzv5T+/B/Pv8/OHftHBJjE/H6gtfVtjgJdp7eEvf43aTA+dlrZ/HVvq9UwJM9bII6kXDXsV1q++GqBa+jf3p/hIeEIToqRtW2evx+9Q112HF0hwqwpL7U3736d2oLYmxkbJsCLAmpTl45iXW716mtgRJOSaH1UFso4qMTkJaYih5J6UiJT0ZdYz2OXTqOW4W5KnBaOW8lMvtkqvaOXzyGT7Z+olZtzRg3A28seBNDMoao0ElWeMm2QVntrOpguRyorq1CScUDRIZFYGDvQWrlmHzOPX5JSCfbFOWUxyPnj6jw7pW5r+C9pe9jUO9BKhzjxQCLzwAFulqAAVZXC/P+FKBAoAswwOqEGWpoaMD6rVvxn599imu5uWo11c/eegsrl76EKDn176lLPnzOX7mCvYcPoXdaD8yaPFmdDnj5+jX86fM1KqR597WVagVXXEyMercUff9m105s27MHvXv2xLTsCbhTVISvtmxWJxOmJCerOliDBwxASWmZKvgu9/zF6rfw0sKFiImK6tBI5dvuQydO4D8++wxmE/DB629gSna2Kir/X59/jk/Wr1MnEEpYNuthPa/i0lIVPP35iy9QVHxfbYmUFVhjhrVtC6GscFuzcQM+WrtWnXSYPXo0Plz9FhbOnKkK2vN6SoABFh+JIBRggPX8SVVfjOScwW/W/Abfn/kO4WERWDFrBd5Z8g4G9Rn0xBa6p+8kQc6RC0fwydaPcf32dYSHhKOythJmkwVvLnqzaRtiXPIz7/F4gOXxefCr136lVnHJyq22XBIqyYqrfSf34sSVU2p1V/+e/dCvR1+kJfZATGQMQkPC1Eqt789+j/V716O2vgYvzViGVfNWISUhBcXlxfh4y8f4et9GxMXEY/Wi1WqrX1Js4jO/xJEVaPIZ5zP5YLfaVT2vp69GRwP2n96Pf/3iX9VpjVIna/Xi1XhjwRvomdLruQFhWwyC5bVcgRUsM8lxBJoAA6xAmxH2hwIU0FqAAVYniMs337u//x7//uknOH7mDBITEvCTVavwzquvtbxCyAfk5N5UgVBSfDzGjhypTvb7ZscOfL1zB8aPGIGfv/U2hg8e3FQfRG2tcKq6WZ99tR5nLl5CSEgIfKowrkO9Roqpm00mNDgcKLpfrI4anzZxIv7+nfcwZviwH32b3NZhy7fPx8+eVWGV1A15b+UqFSTJOH77pz/h4IkTWDRrFn7y+htq26JsM7xdVITPN27El5u+RUVlpQq2/ufPfo7RQ4f6XwPL58OtO3fU9skvvvlareqaO206fvH2W5g4dpyq8cWLARafgeAXYIDV+hzfKrqFP6z/I77Zv1H9OS3BzftLf4JRA0fC0kIo03xHCbAOnjuIP3/zZxy9cEStwooMi8ScrLlqi9yoQaOfu0WuTq3A2o7ffP4bFXL9j5X/A4unLEFkeNu+YJAfzGT7n2zvq66tVp8jco/w0PCmVV9msyrofvb6WXy+/XPsP7VfFWyflTUbc7PmokdiD1y+dRmfbvsU90qKMHfCPLUlcHj/YbA/VdOqdc0nXyEnGW49sg1/+PL3yMnPQWafwfjpsp/ihWkvIDEmoUMrnNvaFz28ngGWHmaJfdSjAAMsPc4a+0wBCnSmAAOsztD0+XD28mUV7mzdu0eFM28sW44PV69Grx49WmzhTlEh9h46jLLKCrXK6npuHvYdPgwpK/t3b7+NlxYsVL/fXD9EPrAqqqqx7/AhVQ+robERfXv1RP8+GeiT3hPxcbGqLtbR06dx9MxptT1CTgRc+eJSJMbHd3iUEtJduX4dG7ZtU2HYi/PmqRMAt+3bp2pTOVwuFdpJ4XoJ22Q7pNTGvXX7Ng6fPIGCoiKMHDwY7776GjL79YfF6t92C9nuIe3+8ZOPVR0s+YHmlcVL1BbCzAEDYH1qm0eHBxoMN+AKrGCYRY7hKQEGWK0/EhU1Ffhs22f466a/oLy6HNPHTMcHy36KySMnPzeAktDoxOUT+O9v/4y9J/fB5/Vi3JBxKvyanTVLhVnPOwGkOcCSLYRS/PwfVv0j5k+Yj4jwH69Abn0UTa+Q4uqmpw8d8fnwoLJUbVfccnAL8u/dUqchyoqptIQ0VbfrXtl9XLx5AX3T++Ltxe9g0aRFSIprKiavbvejm/rXo7KqUqzbsw5/3vhn3C25iymjp+KXr/xS2UoBeF5PCjDA4hNBga4RYIDVNa68KwUooB8BBlidNFeF9+5hzddf47MNG1BZXYUlc+biV++/j2EDB7X4936pm7Vlzx5VPyq3IB/lFRUqnFm2cKEqAD8wo++Tq6Z8PjjdbhUISQF4CZFGDxuGXmk9YLPbVJ2svDt3cPrCeVzKuQ6bzYqFs2Yia+Soph9c2nn64CMeH1BRVYnc27dht1pVza6827fxpzWfY/eBA5g6cSJ++dbbSE9Nw+FTJ3H09CnY7Xa1rTElMUmdCpUQF48Rgwc/Ecy1xu9yu3H87Bn87qOPVEF4KVIvQdmrS15ASlJSm+qrtNZW0Px3BlhBM5UcyA8CDLBafxokiJJi6v++/o+qgPmw/sPx4fIPVZgk2/Gedcmfz7KqSFYuSd2r1PgUVT/rhakvIi4mTp3k97xLBVhHtuOf1/yzCnN+verXmDV+NsLDwlvvdBteIT+4VdVW4Vr+NRQU56OqphpFpYWq7/JLir7L6YDyFxuphzU3ey7GDR6P9OR0JMQmIC4qTq3mspjMbQqypF0Jrf66+S9Ys32Nqp21bOYy/HTZh2p7ZktbDtswrKB8KQOsoJxWDioABBhgBcAksAsUoEC3CjDA6iR+WXG087sD+POaNbh8/TrGjx6Nf/rgA0wZnwXTw2PEH2/K6XLh8IkT+NPnn2H/0aNwOZ0YM2IEfv3TD9UqpqajxR8ePe52o6a2Vm3JO3f5Mq7cuKFOL1w0azaGDRwIq82m6necvnQRX2/fjtz8fPTp2QsTx47BsMzB6JmWpuphWVroR5uH7/OpFVYSXq3d9C2+3LQJ4WFh+Lt331VF66Um1Z179/DNju1qtVZJWRlGDR2K+dOmY8LYseoEwajwCHWaoj9XfUOD2p75u798pOqGTRk/Hr98511My85GeHjn/nDkT3908RoGWLqYJnaybQIMsPzzupx3Gf+58T+w+9huVbfq3RffxfJZKxAXFfvMG8gPRPdK72Hbka04efUUsodm46VpS5EYl+RXoxJgbT+yHb9Z88+Ii4zDP77+T5g2dirCQsL8en97XyQnEspWQyn4LivP5NREr8+j6lFJAXiL2Yqk+GQM7D1ABVqj+o/CiAEjkNEjQwVt/p6QKF8QXbt9DX9c/0dsObRFucr2weUzl6ti+e1d1dXecevhfQyw9DBL7KMeBRhg6XHW2GcKUKAzBRhgdZKm2+PBpWs5+PjLL7F9/34kJybiH3/yAV6cPw92m/1HrcgHUMHdu49CIKkxJdsOZWucrFiS8Eq2z0mRdDlN8MSZs9h/5Ajy7xZi9NAhePvVV5E9ZswTNaAkRDtx7hz+9u23+P7Y0aZtICNHYv6MmZianY3e6emPamq1Z9jSZzmNUFZhbd69G19v34bqmhqsWLIE7696Xd1ftvSJhYxNtvyt/fZb3LyVh9iYGFWzatHs2Zg0fhx69/CvL2UVFfhq61b815o1amXbay++qLYhyqmKT58S1Z4xBeV7GGAF5bQafVAMsPx7AsqqyvDVnvWqRlSDswErZr+Ctxa9hZ4pPZ97g4bGBkgNLdl62FeKpiel+V2Y/PEAKykuGb9+/deYNHKSqlvVFZcEV7KtvbquWq00235kG3Yd3wUZw+jM0YiPikduYS7y7uap8cjKNLmS4pMwe/xsVRdr3JDxfgdsclKhnI74b3/7V5y5egYTR0xUJy2OHSx1GLtmjF3hpuU9GWBpqc22jCTAAMtIs82xUoACLQkwwOqk50I+UCRskWDnk6/Wq6Ll761ciXdeeRVxsS1/8y2ri06eO4f1W7aoLXZvLn8Zk8aNexTMyKoqKdz++Yav1HZDKfQ+KStLbaGbPXmKKtz++CV9qK2rU8XWZTvjru+/Q1V1NQb27Yufr35LBU2JcXHt+rZYwjRZBXYh56qqwSXb+VwuN+ZNn4bVL7+MYYMym7ZRPNxpok6TUiuxdmDtt9+o0xmlf3JC4+vLl6uwTmpoSV2SZ13y+tuFhfho7d9UiNUjORm/ePsdzJ02DTHRbTvdqpOmWR+3YYClj3liL9skwADLPy4Ja45fOo6/bPoI56+fV7WafrrsA4wYMNK/G7TjVY8HWFJI/ddv/BOyhmWpeliddcnngQRX8mVPWXWZCtsu3Ligis7nFOSoEw9nptVzCwAAIABJREFUjZuFZTOWIzUpVW0plNMYD509hKv5V1FVV6W2QmakZTw8PfBNdWqhP1d1fTV2Ht2JP67/A2rqatTJg28sfBOpCal+r+Lyp51geg0DrGCaTY4lkAQYYAXSbLAvFKBAdwgwwOpEdafThYs5V/HJ+vU4eOI4ZkyahF+99z769+nTYivyIVRZVYWbBQVqtdSg/v0R+1gwIyHQ1Rs38Ncv12LT7t2IiYrCe6tWYcXixUhNSm7xL85yT1kVdfTMGXy64SvsP3wYUeHh+Nnqt7B6xQq1MszfbRPSafmWW0KxvNsFOHzqFPYdOqRCNSkMv3T+AixfuAADM/q1WJRd3nv33j1s2LZVrcS6lpentjEumTMH/88vfokhAwc8t7CwvF+2Df7h47+qfy6YMQPvvrZSeXL11XMeXAZYnfi/at4qUAQYYPk3E/IZILWgNu7fgG8PfIv4mHh8sOwDFe487yRC/+7e8quaA6zfrvkNeqf2xq/f+DXGZI5tcfVxe9qRL1AeVJTg3I3zasXVraI8XL99AyXlxYiLjkf2sCxMGTUV4waPQ2p86qMVzLIaTU4s3HN8Nw6cPoA7xXcQHR6NpTOW4sPlP0P/Xv1bXWWmPMuL8cWOz7Fu9zoM6DUAv3j5Fxg/LKvLVpi1xyjQ3sMAK9BmhP0JFgEGWMEykxwHBSjQXgEGWO2Va+F96qTAykrs+v57tQLKarXgf374M7VlzmJu+dQ99a2y16vupk5JevyEJB/Utjk5nfCbnTsQHxuHt1eswIghQ9RJh8+6fF6fet+hkyfw0dq1KK+sxM9Wr8bSufMQFRXl94hlxZUERwdPnMDpCxdwNfcmSktL1eqnJbPn4N2VKzF04MDn9kVCuPy7d7Bx+w787dtvUFxSok4w/KcPf9bqNkBZoSYrvWQFVojdrla0TcuegAjWvnr+HDLA8vsZ5wv1I8AAy/+5cjgdKrhZu/NvaqWSFBxfMecVFd50xfV4gNWvZz/84+u/xsgBIzsxwJLTBx/g4Jnv1AmEF/MuoqqmCn1S++DF6UuxcPJC9ErpBbvV/sRnqNr27nSoAuyHLxzG1kNbcOP2DWQNzcIvXvml6mNrX4ZIUXipf/WnDX9CTv5VvDxrBZbPWo7k2KQW61t2ha8e78kAS4+zxj7rQYABlh5miX2kAAW6UoABVifrSmBz684dtS3wyKmTWPniUry8aBEiItp3zLasQpKtiXeKihBis6GPFEF/autgS0PwerworSjH98ePo6j4PmZOnoyhAwaqkw79verr63Hu6hUcOHJU1eGSKyUxEQP79sOYYcMwsH9/RISFtbqiS05supGXh083bMDhEyexcNYsfPD660hNklpfzz7dqrS8XJ3SKKvZpIbX8gULkZaczB8aWptABlitCfG/61CAAZb/k6a2tFeVYe/JPepUwYweffH24rfRJ603On4k7VP98AESYG09shX/8sVv0S+9n1qBNXLgKBUoddYlQVJFdQWKHhSirLocUpdKArk+aX2QHJ/83Lbkc7SqrlJtOTyTc1atSpuTNUedTigF35931TvqcfTCUXy+7TNVsP2txW9jSMbzv0TqrDHr+T4MsPQ8e+x7IAswwArk2WHfKEABLQQYYHW2sg9ocDSqlUvrN21CQkI83lrxCnr16NH+lnxyGqFXhT3qOPPnn2j+qJ3m7X9SSysqMqqp4Luf75WbyMowWQVVUVWF+sYGWM0WdfKfnDQohWstfp4kKPdqaGzElevXcfXmTWT266dWkan+POOSU59ka+W6LZth8gFL58/H4AGy2sv/AK794Dp/JwMsnU8gu9+SAAOstj0X8ud/wb187Di2A3dLCvHC1BcwYfiEZ64Gbtvdf3i1/DBVVVuFb777Gr9b+zv0ScvAP6z6B1XovKuKuLerrz4fGl0OVcPKZDIjJiL6uauHm9uQIvBbD23FuevnMC97HqaOmYrIsCfrT7arP0H+JgZYQT7BHF63CTDA6jZ6NkwBCgSIAAOsLpgI9Rf6mhp1IuD1vDzMmDABQzMzVf0no15NWzmcKsgKCwl5GKY9O02TVVsXrl5VQeCghyu+Iv1YeWZU3yfGzQCLj0EQCjDAavukNjoaca3gGk7nnELP5J6YMmoKIjo5fJHC6uVV5dh/er+qNZWamIqlU5di+IARCLF3XhH3to++4++QL3GKHhTh+7PfqS9tpoyciuQ4bh30R5YBlj9KfA0F2i4gf5+WwywaGxshuz54UYACFDCaAAOsLppx+YtvVU01bhXcRkJ8PNJT01RNLF7+CciHs5xiWN9Qjx4pqaq4/fNOLPTvrgZ5FQMsg0y0sYbJAKvt8y0/6Mj2vsIHhWpFrRRYjwhr33b2Z7Xe/OVEadUDFWSF2kOQHJ+iTgXU+5/ZshVfVmAVlRYhISYBqQkpXVYIv+2zG9jvYIAV2PPD3ulXgAGWfueOPacABTpHgAFW5zi2eBf5kGl0OFSNKLvNDrO5Dfv3urBferi1FKJ3uJyqq3abTfc/CGlqzgBLU242po0AA6z2OasfdtwueLwedeqr1cJt2P5Kip3U3nJ7xM5KO3/hpNKaxQRbgg0hfUJgiTTu6vM2kPGlFPBbQFZeNTQ0qJVYvChAAQoYTUBlK3Y7QkJCVH1vk0/+xvbU5fN64a2rg6uyEj4n/7A02kPC8epMgAGWziaM3fVHgAGWP0p8DQUCQ4ABVmDMA3sRnAJS47A5wGrhx7bgHDRHRQEKUOChgARYEl6FhoaqRS4MsPhoUEDvAgyw9D6D7H8LAgyw+FhQQD8CDLD0M1fsqf4EZEu41MCSQ5rk33lRgAIUMJKAxWJRAZb8kjCLAZaRZp9jDU4BBljBOa8GHxUDLIM/ABy+rgQYYOlquthZnQmo2oMOhwqxGGDpbPLYXQpQoEMCEljJtkEJr2w2GwOsDmnyzRQIFAEGWIEyE+xHJwowwOpETN6KAl0swACri4F5e0MLqPp8D+tg8SRCQz8KHDwFDCfwdAF3AeAKLMM9Bhxw0AkwwAq6KeWAADnYwV3pgeO2A+4KHh3OZ4ICgSzAACuQZ4d9CwYBbiMMhlnkGChAgbYKNG8flCLuzaddPzvAqm+Aq6ICPmfTyXC8KECBABWQACs6CpaoKJhttgDtJLtFgbYJSIDlqfKgsYABVtvk+GoKaC+gAqzEh6cQRvAUQu1ngC0Gu4A6YdblUtsIuQor2Geb46MABZoFZNugFG9Xpw+aTOq3nx1gyXGt5Qyw+PhQINAFTBYLLNHRsERHwWy1Bnp32T8K+CXwKMCSFVjlXIHlFxpfRIFuEjBZTbAl2RDaKwRmBljdNAtsNtgF5DTC5mLuPI0w2Geb46MABWTFVXPx9ubVV88OsHw+eBsa4K6ohLexkXoUoEAAC5isVlhjomGOjGSAFcDzxK61TUACLG+tV63AcpW62vZmvpoCFNBUwGQzwZ5iQ0jPEJjDuAJLU3w2ZhiB5lVYUtBdVmExxDLM1HOgFDCcwOO1r2QbYfPqq2cGWJAAy+WCq6wM3voGw4FxwBTQk4DJZoM1LhaWiAiYzPzBQU9zx74+R8AHeBu8aLztgPO+E/BRiwIUCFQBU4gJIekhsKfZYLbzcyhQ54n90r+A1MKSAEt+8URC/c8nR0ABCrQsIKGVbB2U2lePh1fPDrAA+DweuMrK4amthQRavChAgcAUMIeEwBofB0tYGPBwb3Bg9pS9okDbBLxOLxx3HXAWueBz8XOobXp8NQW0E5BVV6EZobAn2wDmV9rBsyXDCTSfSOh0OiG/uArLcI8AB0yBoBd41tbB5oG3WANL/qPP64W7shLu6mrA4w16KA6QAroUMJlgCQ+DNTYWEmQxwNLlLLLTzxCQ0Mr1wAXHHQc89fwc4oNCgYAUMAGWKAtC+4bCFs86jAE5R+xUUAk0h1iyCksKuzPECqrp5WAoYGgBCa9k1ZXUvpJ/f3r1leA8N8Dy1NapEMvnYv0RQz9JHHzgCpjNsERGwhoTA7OdJxAG7kSxZ+0R8Hl88FQ+PImwioXc22PI91CgywXMgC3ehtCMEBVk8aIABbpegCFW1xuzBQpQQDsBCaoksJJTByW8ki2Ez7qeHWBJHaxGOb68oqmQO7cRajeDbIkCfgqoAu6xsbBERkBOI+RFgaASkDpY9V403G6Eq8QFcBFWUE0vBxMcAia7CfY0O0LS7TCHcP9gcMwqR6EHgce3EzavxOJqLD3MHPtIAQo8LtAcXsnKK/n1vPBK3vfMAEv+o8/thruqCu6aWsDjoTQFKBBIApJUh4Y2FXAPDeX2wUCaG/al0wRkG6Gz2AnHXacq6s6LAhQIIAHZPhhhQUgfO2yJNpjMpgDqHLtCgeAXkMBKirlLgCU1sTweD7cUBv+0c4QUCAqB5u2BVqtVBVfyz9bCq1YDLFl15amvh7uiEl6nnALFIrpB8bRwEMEhYDbDGhMNa3Q0ZCUWLwoEo4D85dxT7YEj3wFXObcRBuMcc0z6FTDZTCq4CullV0EWLwpQoHsE5LNSQiz55Xa7VajF1VjdMxdslQIUaF1Awiv59fiqq5bqXbV0p+euwJI3eJ0utY1Qgix4+e1369PBV1BAAwH5H73NBlt8HMzh4S0WuNOgF2yCApoIqNMIC51wFjnhc/KLFE3Q2QgF/BCQ0wdD+oTAnsLVV35w8SUU6HKB5m2FzSuymkMshlldTs8GKECBVgSaAypZZSW1ruSX/Lu/wVXz7VsNsOQ0Qk9tLdxV1U3F3LkKiw8nBbpfQFZfRTUVb5cgixcFgllAirm7ZRXWLQfc1W6AGVYwTzfHphMBk9UEW4IVIb1YvF0nU8ZuGkigeWth82osrsoy0OR34lC9Pi+cbieczgbIvz8KEEwm2KwhCLWFwmzm6ttOJA/KW0lAJUHV47+edcKgPwCtBlgSWHllOWp1NeRUQtbC8oeVr6FAFwo0176KjYU5LLTNqXUX9oy3pkCXCXgdXjiLXXDee1gLiyFWl1nzxhRoVcAMWKOssKfbYUuysvZVq2B8AQW6R0C2EjZfEmo1/+qe3rBVvQnUNdbgYv4pHL60E5W1ZY+6H2oPw+gBkzBpyBzERSbxZxG9TaxG/W3eJvj4Cqvm3+tIF1oPsKSYu4RY9Q1wV1epkwm5lbAj5HwvBTogoLYOWtXKK0tkJExmnvjUAU2+VU8CXsBT71FbCV0PXJDi7rwoQIFuEDAB5lAz7Kl22FNtTScPsnZ7N0wEm6RA+wS4nbB9bsZ7lw/V9ZU4dnUfthz7Ag+q7j8iCA+NxPThi7Ag6xWkxKYzwDLew9GmEbd1i2BrN/crwJKb+NweeOrq4K6pgY8F3Vtz5X+nQBcImGCyWmCJiIAlOgpmu70L2uAtKRC4AmorYYWEWA64q9wAD8cN3Mliz4JWwGSXrYM22NPssESZufoqaGeaA6MABYwsIEFndX0FjlzZg81H1/wowJoxcjEWZb2GlLh0mE38Qt3Iz4rWY/c7wFJbCd1ueGpqVU0sn1vqkPAbcK0njO0ZV8Bksaotg5boaFhCQwATv/I27tNg3JFLQXdXqRvO+054ajwAzxYx7sPAkWsuIHWvrHFWVbRd/in/Py8KUIACFAg+AQZYwTenwTIi/wOshyOWelgeqYdVV99U1J0XBSjQ5QImi6UpvIqKgjk0jN94d7k4GwhYAZ+cjutV2widxU54ar0MsQJ2stixoBKwALZYG2ypTeGVWcIr5ldBNcUcDAUoQIFmAQZYfBYCVaDNAZYMpCnEqlFbCn0ut2wwDNTxsV8U0L+AhFehobDKtsGwMO4z1/+McgSdIKBCrBKGWJ1AyVtQoHUBC2CNtsLeQ8IrG8w2Jleto/EVFKAABfQrwABLv3MX7D1vV4ClQiynfPNdB099PWtiBftTwvF1j4B8ua22DYbBEhmhQiwWbe+eqWCrgSnQtJ3QBVeJG55aD3xuH79PCcypYq/0KiCfQzYTLNEWVbTdxm2Dep1J9psCFKBAmwQYYLWJiy/WUKDdAZbUv1KF3Rsa1Eosr8MBeKQYCVdjaTh/bCpYBcxmmOw2WMLD1S9VsJ01r4J1tjmuDgh4XT54Kt1wlbngrvTA6+CWwg5w8q0U+EHAApjDzLDF2WBPssEsBdvlc4iLr/iUUIACFAh6AQZYQT/Fuh1g+wOsh0P2eb1qNZa3rr6pLpbbxeLuun0c2PFuFzCZ8KjeVcTDVVcWS7d3ix2gQCALyOmE3kYvXGVutSLLW+uFz8vVWIE8Z+xbAAs8XHVljbbAmmRTq67MdjODqwCeMnaNAhSgQGcLMMDqbFHer7MEOhxgqY7IaiyPfPPtgKexEd6GxqYC7/IDBFdkddZc8T5BK9D0jbbaLhgaooq1y3ZBs83GVVdBO+ccWKcLSHF3txeeOg88lR64K2RboRcSbvFjqNO1ecNgFJCMSk4ZlOAqzgZrjAXmcDNMFi65Csbp5pgoQAEKPE+AARafj0AV6JwAq3l0Ph+8Xq+qiSVhlgqyHA7IKq1Hl49bDAP1YWC/tBL4YQuGyWyCyWZrqm8loZXdrlZgsdaVVnPBdoJO4GGQJSuyPDVeuCvd8NQ83Fr4+Hcq/CjqhqlvRmcg0g34TzbZPAXyTzNgCbXAEmOGLcYGc6QZ5pCHwRWnqtunih2gAAUo0B0CDLC6Q51t+iPQuQHWY0GWhFbql9sNyOosp6sp2PK4m1ZmPR5q+dNTvqZTBOQPI/kRwix3Y02lTjH1+yYmMyCBlZwqaLPBJGGV1QKT1ap+D1L3inPiNydfSIHnCsjCK9la6JYvVXyAlGls8MBT71XbDb0uL+DhImHtniIfHG4HXC4HQuzhsFqsMLGYknb8zS3Jh7/ZBLPdBEuYGeYIswqvEAKYbWa1AosrrrSfFrZIAQpQINAEGGAF2oywP80CXRNgPe4rgYmsupJ/SmjVHFypL2L5FbiWj6LX68GD6mJU1DxAXGQiEmNSYDFbteyCgdt6rPCtBFVm2athelgQl19xG/jB4NC1EFAfQfIZJIeP+JqCK545ooV8Uxs+oKaxGieuHcD1O+cxZsAUjOiXjQh7JOsqaTcLP7T0cNVVc1glK4GbvtXiRQEKUIACFHj40e3zobq+Akeu7MHmo2vwoOr+I5rw0EjMGLkYi7JeQ0pcOszyJT0vCmgk0PUBlkYDYTOtC9Q76nD25hFcKTiLAT2GYnzmNESFxbT+Rr6CAhSgAAUo0E4B+fLkZtEVfH34U1y/ewFZmdOwOHsV0hMz+CVKO035NgpQgAIUoEBXCnAFVlfq8t4dEWCA1RE9Hb1XNg7eKcnD7jNf41L+KQxKH4YF419FRuogpuY6mkd2lQIUoICeBJr/Anzo0k5sP7FOfYPbJ6W/CrDGDZqKyLAYbiXU04SyrxSgAAUoYAgBBliGmGZdDpIBli6nre2ddrgacSLnALafXIc7D/KQGt8TC8e9ginD5yPUHt72G/IdFKAABShAgVYE3G4Xbt67gs1HP8f5vONwuBwID43A5KFzMX/cCvRK6q/qYfGiAAUoQAEKUCBwBBhgBc5csCdPCjDAMsATIX8AFZUVYPuJL3Es54DazxwREomszOl4YeJq9E7uZwAFDpECFKAABbQUkM+eqrpyHL60C9tPrUNJxT3IamCz2Yx+qZmYP+5ljB80HVHhspWdtQC1nBu2RQEKUIACFHieAAMsPh+BKsAAK1BnphP7JSc/nczZj03H1uB2cR48XjcsZgvSEnrhxYmrMW3EAtgs9k5skbeiAAUoQAGjC7g9TuTdu4ZNRz7D2bxjcLocj0giw6IwacgczB8vq7D6sRaW0R8Wjp8CFKAABQJKgAFWQE0HO/OYAAOsIH8c5NvuwtJb2Hp8LY5f2a9Ogmq+Qm2hyB4yCy9PfQ/pCX2CXILDowAFKEABLQWq6ipw+PIubDuxDsUVd59oWrYN9k0ZhHnjViBr8AxEhkZp2TW2RQEKUIACFKDAcwQYYPHxCFQBBliBOjOd1K/m2lcbD/8VRaW34fXJ2fFNlxx5mhCTglen/gRTZRWWlauwOomdt6EABShgaAE5eVBWX31z5BN1+q3T7fyRR1RYNCYNnaMOFOmZ1JcHihj6ieHgKUABClAgkAQYYAXSbLAvjwswwAri50FWX919IKuv/oZjV/aizlH3o9HKt+ATh8zGsinvqG0cEmrxogAFKEABCnREoKa+Cgcv7cCOk+txr/xOi7eyWWzokzIQC8avUJ9DPFCkI+J8LwUoQAEKUKDzBBhgdZ4l79S5AgywOtczoO7W6KzHiZzvVO2rOyW5T6y+au6oCSa1CuvlKe9i8rB56nQo+T1eFKAABShAgfYIuD0uFBTfVKuvztyQ1Vc/1L56+n7R4bEqvFqU9ZpahcWLAhSgAAUoQIHuF2CA1f1zwB60LMAAK0ifDPlDp7A0H1uOf4HjOQdQ2/BD7aunhyzfgmcPnokXJ76JjNRBqsA7LwpQgAIUoEB7BOTkwYMXd2LX6a9wv7xQnTz4rMsqq7CS+2NR9kpMGTYP8v/zogAFKEABClCgewUYYHWvP1t/tgADrCB9Ohoc9Th1/XtsOfYFbpfchNvreeZITSYTUuJ6YunENzBxyBxEhkVDfo8XBShAAQpQoC0CLo8TuUU52Hxsjap95Wqh9tXj95NPmqiwGEwYMgsvTHwDPXigSFu4+VoKUIACFKBAlwgwwOoSVt60EwQYYHUCYqDdQv7AuVd+G5uOrsHxnP2oa6h57jfg0v9QexiyMmdgSfZKZKQMgsViDbRhsT8UoAAFKBDQAj5U1pbh+4s7sfPUOpRU3vert7Lqt2diBpZOfksVdbdZeKCIX3B8EQUoQAEKUKCLBBhgdREsb9thAQZYHSYMvBs0OOpw5uZhfHvkM9wuvgnPYycPPqu3Urw9PSEDiyesRHbmDESFx3IVVuBNLXtEAQpQIGAFZLXVzcIr2HpiLU7fOAi3x+1XX2UVVnhIBCYMnY2lE1cjPTHDr/fxRRSgAAUoQAEKdI0AA6yuceVdOy7AAKvjhgF1B6/Pi/vld7D52Bc4dnUvahtq/O5fRGgksjJnqhOh+nIVlt9ufCEFKEABowvIX3Qraktx+NJO7Dn7DYrKWj558FlOsgorLb4Xlk15G5OGzIHdFmp0Uo6fAhSgAAUo0G0CDLC6jZ4NtyLAACvIHpFGRz1O3zyEb49+hoL7N+D1Pbt47tNDN5vN6J3UHwvGv4IJg2eqVVi8KEABClCAAq0JyOqr64WXsPPkepzNPYpGZ0Nrb3niv8sqrBBbGKYMn4sXJr6pVgSzFmObCPliClCAAhSgQKcJMMDqNEreqJMFGGB1Mmh33s7r9aKkslDVvjpyZTfqGmvb3J3I0CiMz5yujjSXWlgSavGiAAUoQAEKPEtAThmsrCnDwUs7sP/cZhSV3YasBm7rpbayJ/ZRq7CyM2eq2owADxRpqyNfTwEKUIACFOioAAOsjgry/V0lwACrq2S74b5Nta+OqNVX+fevQ/7gaeslP0D0Su6nAqyJQ+cgIiSyrbfg6ylAAQpQwEACbo8LNwovY/vJL3Eu9zjks6i9V3hIuCrkvnjCKvRM7AuzydLeW/F9FKAABShAAQq0U4ABVjvh+LYuF2CA1eXE2jTg83lRXFmErw99jMNXdsPhbGx3w1JMd/ygaXhp8lvomdiPq7DaLck3UoACFAh+gZqGKhw4twV7znyD+5WF8Ho9jwZtggkmE9QXKo9/pSLrqmSL4I9+32RCj/jeeHnau+pk3FB7uNwh+BE5QgpQgAIUoEAACTDACqDJYFeeEGCAFSQPRJ2jBmduyMmDn6Og+EaHRyWrsJZOeB1Zg2chIjSqw/fjDShAAQpQIPgEZKtgXlEONh/7XK0Afrz2ldVsQXhoJGwWOyTkcrqdjwDsVrv6b7L1vb6xFm7vDycWypcoT67C4lb24HtyOCIKUIACFAhkAQZYgTw7xu4bA6wgmH+P14OisgJsOf4FjlzajUbXD6uvrBYbosJjYDGZUVVXAZfH9WjEFrMZcREJgNmMytpyyDaQ5ivMHo5xA6fgxUmrkZEyEGYzt3EEwaPCIVCAAhToVIEGZx32nd2MHafWo6TiHrw+D0wmMySEGtRzOIb3GY/C8nycvPY9auqrVNuyoiouKhFZmdMQH5mMi7dOIvf+VTQ46pv+u8mE3kn9sGzy2xg7cKoKunhRgAIUoAAFKKCdAAMs7azZUtsEGGC1zSsgXy3fbJ++cQjbTqxD/v1rj2pfSQHcjNRBGJ4xHjX1lTies18FVT+EVGGYNnwB0hIzcPr6Qdy6dw31zjr1fvkBQorpqlpYQ+YgmicSBuTcs1MUoAAFuk/Ah9yiHHxz5FOcyz0Kh7MBFosV8VHJGNE3C1OGzUNUWAy+u7AN313crj6HmgOs+OgkzBnzkjrxtriiCIcv71JBlnyeyWdQVFg0Jg6ZrT6D0pOkFhZXYXXfPLNlClCAAhQwmgADLKPNuH7GywBLP3PVYk9l28XdB3nYdXojjlxuOnlQ/qIfGRaNIb1HY9LQuUhP6KMCrl2nN6C8pvTRfeQb8kVZr2L2mGUoKLmBI5f34ErBGVTVlUNWdckqrPGZ07A4axX6pg5SP5jwogAFKEABCohAo1p9tQVbT6xFaXUxbBYbeiZmqFVT2YNnIDW+Fypry7Dr1AYcuLDtRwHWvHHLMXvUUoTYQnG75CaO5ezH6RsHUVp5H16fT30B88LE1zFOVmHxQBE+dBSgAAUoQAHNBBhgaUbNhtoowACrjWCB9nL5tvrU9YPYfXoj8u7lqO4lRCdhVL+JKrzqm5qptg0eOC9bPL5CefWDJwKsxdkr8eLEN9WKq1vF13EiZz/O3TyGkspCuL0etY1j/riXMXHoXK7CCrTJZ38oQAEKdJOAHBySd+8aNhz8Cy7cOgGrxYr+aUOQPXgmRvabgOSYNJjMZjyovIedp756ZoA1Z/RLiImIh9PtwIPWoa4uAAAgAElEQVSqezh1/Xscv7ofdx7kwW4NxcQhs7A4exV6JPbhKqxumms2SwEKUIACxhNggGW8OdfLiBlg6WWmWuinx+tWf8nfffprHLu6Dw3OeqTG90R25gxMGDxLrbyyWUNQXV+Bfec3YcfJlgOspZNWIywkXBXYvVd2WwViJ659j7sPcmGz2tW33xJ0ybfhFjNXYen4kWHXKUABCnRYQP5SW99Yo7YGbjr6GaSQ+2BZ8TtkDjJ7jUZMRBwsZovaClhSWdRqgBUbmaD6JJ9pss39Qt5xHL68G3n3riIlrgeWTHgDYwdO4SqsDs8cb0ABClCAAhTwT4ABln9OfJX2AgywtDfvtBbl5KYT175Tq6+KyguQntgXU4bOw/jM6UiITn70bbVsCWw9wIpQ/ZITocprHuDszSM4cmUX8u/fQGJMCuaPX6F+OIkMi+m0/vNGFKAABSigPwEJmnKLrmLj4Y/Vqbej+k/E1GHz0S9tiNp6Lit65WprgKXeA58q5n614CwOXtyO/OIbGNp7DBZPWIkeiRlchaW/x4U9pgAFKEABHQowwNLhpBmkywywdDrR8o134YN87Dn7NS7ln0ZKXDqmDJuPkf2yERka/egHCBleWwKs5h866hpr1A8Qhy7vwp2SmxjQc7gqptsneQBPJNTpM8NuU4ACFOiogPyFVoqxH7myG0ev7sPgXlJrcQ7SEzJgs9qeuH17AqzmGzhdjWpbvKzEqqh9gMlD52NU/wmICI3q6BD4fgpQgAIUoAAFWhFggMVHJFAFGGAF6sy00q9GZwPO3Dys6oXIX+jHD5qOQT1HqG+/n77aGmA1v98hP0AUXcWJawdQXlOCcQOnIStzBsJCmlZr8aIABShAAWMJeDxuFJbm43zecYSGhGNs/8mIi05qcWVURwIsUXV73CgqK8Cl/FOqxpaqrRXbg6uwjPXIcbQUoAAFKNANAgywugGdTfolwADLL6bAe5EUuz2fewxOlwOZvUahV1I/2G0hLXa0vQGW3MwldbHK7+BywWl177EDpqgfIJq3iASeDHtEAQpQgAJdJSCfCXLioNTASk3ojXB7xDM/DzoaYMkYpFh8RU0ZKmpLVW2t2MhEFWbxogAFKEABClCg6wQYYHWdLe/cMQEGWB3z65Z3yx8oxZWFqK6vRHxUEmIjEp77F/qOBFgyQKl3UlVXgdLq+4gKjVGF4k0mc7eMnY1SgAIUoED3CUidRI/PrVZBtXaoR2cEWM0jlZVfXnhVm9I2LwpQgAIUoAAFuk6AAVbX2fLOHRNggNUxv257txw5LpfVYmv1L/MdDbCkHSms63a7VFHeZ6306jYMNkwBClCAAgEn0JkBVsANjh2iAAUoQAEKBLEAA6wgnlydD40Bls4n0J/ud0aA5U87fA0FKEABClCgWYABFp8FClCAAhSggD4FGGDpc96M0GsGWAaYZQZYBphkDpECFKBAgAkwwAqwCWF3KEABClCAAn4KMMDyE4ov01yAAZbm5No3yABLe3O2SAEKUMDoAgywjP4EcPwUoAAFKKBXAQZYep254O83A6zgn2MwwDLAJHOIFKAABQJMgAFWgE0Iu0MBClCAAhTwU4ABlp9QfJnmAgywNCfXvkEGWNqbs0UKUIACRhdggGX0J4DjpwAFKEABvQowwNLrzAV/vxlgBf8ccwWWAeaYQ6QABSgQaAIMsAJtRtgfClCAAhSggH8CDLD8c+KrtBdggKW9ueYtcgWW5uRskAIUoIDhBRhgGf4RIAAFKEABCuhUgAGWTifOAN1mgGWASWaAZYBJ5hApQAEKBJgAA6wAmxB2hwIUoAAFKOCnAAMsP6H4Ms0FGGBpTq59gwywtDdnixSgAAWMLsAAy+hPAMdPAQpQgAJ6FWCApdeZC/5+M8AK/jlmDSwDzDGHSAEKUCDQBBhgBdqMsD8UoAAFKEAB/wQYYPnnxFdpL8AAS3tzzVvkCizNydkgBShAAcMLMMAy/CNAAApQgAIU0KkAAyydTpwBus0AywCTzADLAJPMIVKAAhQIMAEGWAE2IewOBShAAQpQwE8BBlh+QvFlmgswwNKcXPsGGWBpb84WKUABChhdgAGW0Z8Ajp8CFKAABfQqwABLrzMX/P1mgBX8c8waWAaYYw6RAhSgQKAJMMAKtBlhfyhAAQpQgAL+CTDA8s+Jr9JegAGW9uaat8gVWJqTs0EKUIAChhdggGX4R4AAFKAABSigUwEGWDqdOAN0mwGWASaZAZYBJplDpAAFKBBgAgywAmxC2B0KUIACFKCAnwIMsPyE4ss0F2CApTm59g0ywNLenC1SgAIUMLoAAyyjPwEcPwUoQAEK6FWAAZZeZy74+80AK/jnmDWwDDDHHCIFKECBQBNggBVoM8L+UIACFKAABfwTYIDlnxNfpb0AAyztzTVvkSuwNCdngxSgAAUML8AAy/CPAAEoQAEKUECnAgywdDpxBug2AywDTDIDLANMModIAQpQIMAEGGAF2ISwOxSgAAUoQAE/BRhg+QnFl2kuwABLc3LtG2SApb05W6QABShgdAEGWEZ/Ajh+ClCAAhTQqwADLL3OXPD3mwFW8M8xa2AZYI45RApQgAKBJsAAK9BmhP2hAAUoQAEK+CfAAMs/J75KewEGWNqba94iV2BpTs4GKUABChhegAGW4R8BAlCAAhSggE4FGGDpdOIM0G0GWAaYZAZYBphkDpECFKBAgAkwwAqwCWF3KEABClCAAn4KMMDyE4ov01yAAZbm5No3yABLe3O2SAEKUMDoAgywjP4EcPwUoAAFKKBXAQZYep254O83A6zgn2PWwDLAHHOIFKAABQJNgAFWoM0I+0MBClCAAhTwT4ABln9OfJX2AgywtDfXvEWuwNKcnA1SgAIUMLwAAyzDPwIEoAAFKEABnQowwNLpxBmg2wywDDDJDLAMMMkcIgUoQIEAE2CAFWATwu5QgAIUoAAF/BRggOUnFF+muQADLM3JtW+QAZb25myRAhSggNEFGGAZ/Qng+ClAAQpQQK8CDLD0OnPB328GWME/x6yBZYA55hApQAEKBJoAA6xAmxH2hwIUoAAFKOCfAAMs/5z4Ku0FGGBpb655i1yBpTk5G6QABShgeAEGWIZ/BAhAAQpQgAI6FWCApdOJM0C3GWAZYJIZYBlgkjlEClCAAgEmwAArwCaE3aEABShAAQr4KcAAy08ovkxzAQZYmpNr3yADLO3N2SIFKEABowswwDL6E8DxU4ACFKCAXgUYYOl15oK/3wywgn+OWQPLAHPMIVKAAhQINAEGWIE2I+wPBShAAQpQwD8BBlj+OfFV2gswwNLeXPMWuQJLc3I2SAEKUMDwAgywDP8IEIACFKAABXQqwABLpxNngG4zwDLAJDPAMsAkc4gUoAAFAkyAAVaATQi7QwEKUIACFPBTgAGWn1B8meYCDLA0J9e+QQZY2puzRQpQgAJGF2CAZfQngOOnAAUoQAG9CjDA0uvMBX+/GWAF/xyzBpYB5phDpAAFKBBoAgywAm1G2B8KUIACFKCAfwIMsPxz4qu0F2CApb255i1yBZbm5GyQAhSggOEFGGAZ/hEgAAUoQAEK6FSAAZZOJ84A3WaAZYBJZoBlgEnmEClAAQoEmAADrACbEHaHAhSgAAUo4KcAAyw/ofgyzQUYYGlOrn2DDLC0N2eLFKAABYwuwADL6E8Ax08BClCAAnoVYICl15kL/n4zwAr+OWYNLAPMMYdIAQpQINAEGGAF2oywPxSgAAUoQAH/BBhg+efEV2kvwABLe3PNW+QKLM3J2SAFKEABwwswwDL8I0AAClCAAhTQqQADLJ1OnAG6zQDLAJPMAMsAk8whUoACFAgwAQZYATYh7A4FKEABClDATwEGWH5C8WWaCzDA0pxc+wYZYGlvzhYpQAEKGF2AAZbRnwCOnwIUoAAF9CrAAEuvMxf8/WaAFfxzzBpYBphjDpECFKBAoAkwwAq0GWF/KEABClCAAv4JMMDyz4mv0l6AAZb25pq3yBVYmpOzQQpQgAKGF2CAZfhHgAAUoAAFKKBTAQZYOp04A3SbAZYBJpkBlgEmmUOkAAUoEGACDLACbELYHQpQgAIUoICfAgyw/ITiyzQXYIClObn2DTLA0t6cLVKAAhQwugADLKM/ARw/BShAAQroVYABll5nLvj7zQAr+OeYNbAMMMccIgUoQIFAE2CAFWgzwv5QgAIUoAAF/BNggOWfE1+lvQADLO3NNW+RK7A0J2eDFKAABQwvwADL8I8AAShAAQpQQKcCDLB0OnEG6DYDLANMMgMsA0wyh0gBClAgwAQYYAXYhLA7FKAABShAAT8FGGD5CcWXaS7AAEtzcu0bZIClvTlbpAAFKGB0AQZYRn8COH4KUIACFNCrAAMsvc5c8PebAVbwzzFrYBlgjjlEClCAAoEmwAAr0GaE/aEABShAAQr4J8AAyz8nvkp7AQZY2ptr3iJXYGlOzgYpQAEKGF6AAZbhHwECUIACFKCATgUYYOl04gzQbQZYBphkBlgGmGQOkQIUoECACTDACrAJYXcoQAEKUIACfgowwPITii/TXIABlubk2jfIAEt7c7ZIAQpQwOgCDLCM/gRw/BSgAAUooFcBBlh6nbng7zcDrOCfY9bAMsAcc4gUoAAFAk2AAVagzQj7QwEKUIACFPBPgAGWf058lfYCDLC0N9e8Ra7A0pycDVKAAhQwvAADLMM/AgSgAAUoQAGdCjDA0unEGaDbDLAMMMkMsAwwyRwiBShAgQATYIAVYBPC7lCAAhSgAAX8FGCA5ScUX6a5AAMszcm1b5ABlvbmbJECFKCA0QUYYBn9CeD4KUABClBArwIMsPQ6c8HfbwZYwT/HrIFlgDnmEClAAQoEmgADrECbEfaHAhSgAAUo4J8AAyz/nPgq7QUYYGlvrnmLXIGlOTkbpAAFKGB4AQZYhn8ECEABClCAAjoVYICl04kzQLcZYBlgkhlgGWCSOUQKUIACASbAACvAJoTdoQAFKEABCvgpwADLTyi+THMBBliak2vfIAMs7c3ZIgUoQAGjCzDAMvoTwPFTgAIUoIBeBRhg6XXmgr/fDLCCf45ZA8sAc8whUoACFAg0AQZYgTYj7A8FKEABClDAPwEGWP458VXaCzDA0t5c8xa5AktzcjZIAQpQwPACDLAM/wgQgAIUoAAFdCrAAEunE2eAbjPAMsAkM8AywCRziBSgAAUCTIABVoBNCLtDAQpQgAIU8FOAAZafUHyZ5gIMsDQn175BBljam7NFClCAAkYXYIBl9CeA46cABShAAb0KMMDS68wFf78ZYAX/HLMGlgHmmEOkAAUoEGgCDLACbUbYHwpQgAIUoIB/Agyw/HPiq7QXYIClvbnmLXIFlubkbJACFKCA4QUYYBn+ESAABShAAQroVIABlk4nzgDdZoBlgElmgGWASeYQKUABCgSYAAOsAJsQdocCFKAABSjgpwADLD+h+DLNBRhgaU6ufYMMsLQ3Z4sUoAAFjC7AAMvoTwDHTwEKUIACehVggKXXmQv+fjPACv45Zg0sA8wxh0gBClAg0AQYYAXajLA/FKAABShAAf8EGGD558RXaS/AAEt7c81b5AoszcnZIAUoQAHDCzDAMvwjQAAKUIACFNCpAAMsnU6cAbrNAMsAk8wAywCTzCFSgAIUCDABBlgBNiHsDgUoQAEKUMBPAQZYfkLxZZoLMMDSnFz7BhlgaW/OFilAAQoYXYABltGfAI6fAhSgAAX0KsAAS68zF/z9ZoAV/HPMGlgGmGMOkQIUoECgCTDACrQZYX8oQAEKUIAC/gkwwPLPia/SXoABlvbmmrf4vBVYC7JewZIJqxBuj9C8X2yQAhSgAAWCV0AFWFX3sPv01zh4cQdqGqrUYE0wIT46CbPHLMWsUS8gNiI+eBE4MgpQgAIUoIAOBZoCrEocy9mHrce/RGnV/UejCA+NxIyRi7Eo6zWkxKXDbDLrcITssl4FGGDpdeba0O9nBVgWkxkJ0SlIjEmF/DsvClCAAhSgQGcKODwOlFeXoLK2HG6v+9GtbRYb4qOSEB+VCKvZ1plN8l4UoAAFKEABCnSCgHxuV9ZVoLT6PlxuJwOsTjDlLTouwACr44YBf4dnBVgm6bnJpFJz9e+8KEABClCAAp0o4APg83nh9cm/PXmZTSaY+PnTidq8FQUoQAEKUKDzBJo+w33qc/zxT3GuwOo8Y96p7QIMsNpuprt3PCvA0t1A2GEKUIACFKAABShAAQpQgAIU6DYBBljdRs+GZf2NT2JVXkEtwAArqKeXg6MABShAAQpQgAIUoAAFKKCJAAMsTZjZyDMEGGAZ4NGori/H3nObsevkBpTVlBhgxBwiBShAAQpQgAIUoAAFKEABCnS2QERIFKaPXISFWa+yiHtn4/J+rQowwGqVSP8vqGusxbncIzh1/SCq6irQ4KxDfWMdvD5PU+0rFsDS/yRzBBSgAAUoQAEKUIACFKAABTpVwAS7NQRR4TGwmK3qzqG2MIzom42szOmIi0yEycQfJjuVnDd7rgADLAM8ILJL1OuVIroeOF0OFFcWoqi8AE63AyaYHx59yj94DPAocIgUoAAFKEABClCAAhSgAAVaEVAl3GGCCTHh8chIy0RYSLh6j/ye2WxWv+RnSV4U0FKAAZaW2myLAhSgAAUoQAEKUIACFKAABShAAQpQoM0CDLDaTMY3UIACFKAABShAAQpQgAIUoAAFKEABCmgpwABLS222RQEKUIACFKAABShAAQpQgAIUoAAFKNBmAQZYbSbjGyhAAQpQgAIUoAAFKEABClCAAhSgAAW0FGCApaU226IABShAAQpQgAIUoAAFKEABClCAAhRoswADrDaT8Q0UoAAFKEABClCAAhSgAAUoQAEKUIACWgowwNJSm21RgAIUoAAFKEABClCAAhSgAAUoQAEKtFmAAVabyfgGClCAAhSgAAUoQAEKUIACFKAABShAAS0FGGBpqc22KEABClCAAhSAz+eFx+tREmaTGSazGSaYKEMBClCAAhSgAAUoQIFnCjDA4sNBAQpQgAIUoIBmAhJeVddXobTqHhwuB6LDYxEfnYywkHCGWJrNAhuiAAUoQAEKUIAC+hNggKW/OWOPKUABClCAAj8S8MEHn88H+ACTyQRZ0BSIq5pcLicu5Z/Cdxe34UHVPWSkDMSMkYsxMH04TCYzZ5YCFKAABShAAQpQgAItCjDA4oNBAQpQgAIU0LmABFeNrgbU1FfC7XEh1B6O8JBw2G1haoteIF1OlwMnrn2HHSfXobjiLob0GYvF2SuR2XNkU/DGiwIUoAAFKEABClCAAi0IMMDiY0EBClCAAhTQuYCEVrfu5WDX6Y24UnAGaYl9MGfMSxjVbyLCQyKeGJ3X54XX64Es1jKbzbCYLZqOXrYNnrh2ADtPrkdVbRkmDp2NeeNWIDm2h6b9YGMUoAAFKEABClCAAvoSYIClr/libylAAQpQgAI/EpAAK7/4Gnac3IBzN48iPbkvXpr0Fkb2zYLVYnvi9ZV15Sgovom6hmokxqQgLaEPIkOjNFv91OhswPGcfSpsczgbMH3kYswc9YKqhcWLAhSgAAUoQAEKUIACzxJggMVngwIUoAAFKKBzAZfbiVv3c7D95Fe4UnAawzPG48VJq9EnZcATdbBkq+HNwsvYeXoDbhReQp+UgZg39mUM7T0aFotVE4V6Ry0OX96NvWe+UTWvZKXY5GFzER4S2VTDS13yT5NmoZomA2cjFKAABShAAQpQgAIdEmCA1SE+vpkCFKAABSjQ/QISYN0suowdJ7/CtTsXMG7gFCyZ+AZ6JPR+onMSEF27exHbT6zFjcLLGNxrFBZlr0T/tCFqO6GcEPgwOuqy8Ki2vhIHLmzDgQtb1fbGuWOXY9yAqfD6PKiqq0C1quPlRFxUEpJj0xBiC+t+YPaAAhSgAAUoQAEKUKDbBRhgdfsUsAMUoAAFKECBjgk43Q61omr7yfVqhdXEwbNUMJUSl95ygHXyS+Tfv4aR/SZi4fhXkBbfGy6vC4UPbqG6oRJp8b2QEJUCayevypIAraK2FPvOfouDl3cixBqKkf2ykRidqn6/tLoYlbVl8HjdGJQ+AlOGzUPPxL6arQ7r2Czw3RSgAAUoQAEKUIACXSnAAKsrdXlvClCAAhSggAYCEmBdu3sB20+sR/7/LeY+efh8FUwlxqQ+M8C6U5KH8YOmqhVQCdEpKK4oxJ4zX+Ne+R1MGjIbYwZMRmRYTLtXYkmxeLWcS20I9MHtdqG6sULV3zpyaTcu3jqhgqqI0Gh4vV7UNdaoEE3+3WwyIT0xQ20vnDhkjqqPxRMKNXiQ2AQFKEABClCAAhQIYAEGWAE8OewaBShAAQpQoCUBCYTUMYIP60Q5XI3IuXMBO06tw+3im5gxYhHmjnsZ8VFJLQRYEnStQ1FZAbIzZ2D22JcQGx6PnLvnseHgX3CnJBfjM6dh9uhlqkaW3Wpv8yQ4XA24XZKHotICSLjm8rhQ21CFiuoHKK4qwr3y26ioLYfX43o4BmmiqeaV/JKVWrK9cHzmdCzJXoWeSf00Py2xzYPmGyhAAQpQgAIUoAAFulSAAVaX8vLmFKAABShAgc4VkHCnur4CD6qKERUWjfioRMhqp5zb51UNrLult9SpfrJ6KTYyvoUA67xaqXW/4i4mDJ6FWaNfQHRYLK4VXsRXBz9CTsE5JMWkYeKQ2Zg0dA7Sk/rC9tRJhq2NSMKqo5f34sCFLXhQdR9urxtOVyM8Xo8Kp2SVlVwhthDERycjObaH+mdsRCysFjvqGmtRU1+pfn/S0LlqNZbFbGmtWf53ClCAAhSgAAUoQIEgFmCAFcSTy6FRgAIUoEBwCUj40+hqwMW8kziWsx+9EjOQlTkDcVGJuH73EnacWo/7ZXcwe+xSzBr1otp69/gl78+5c04FWA+q7qmAasbIxWqrYGFZPr45/AlOXTsIj8eF1ITeaiXX1BELEReZ2KYtfI3Oepy+fgjbTn6JOw/yVK2r6Ig4hIdGorahGqWV9yGF52OjEjCy3wQ1ht5J/RETEQerxYYGRx0q60rVFsT4mGSE2yPb1H5wzTpHQwEKUIACFKAABSggAgyw+BxQgAIUoAAFdCIgAVRZTYmqVbXr1AYkx/TAvHHLMSxjHArLCrDr9EZVy2ru2GWYOWoJIkOjfxRgXb1zFtuPr1P3kQBr4uA5CLGHoqahEieufYcz1w+hoqYUIbZQjB00FXNGL0VKXM82BUhujwt596/h8KWdqKwrV4XYm09EPJd7DGdvHlFBVkRoFDJ7jcL0EQsxPGO8+v9Z60onDyO7SQEKUIACFKAABTQWYIClMTibowAFKEABCrRXQLYKysqpnSfXY/fpb1Wx8xF9x2PSsHmqIPqhSztRWnUf88etwLQRixARGvlUgOXF5YIz2H7iS5RWl2Bon7HoEd8bZdXF8Pg86J3cH9HhcZAVVLLNLzk2DT0SMhAWEt6mLkvQ1uCsQ3l1iarjHhuZgFBbGPLuXcWW43/DtTsX1HZCWWIlK64yUgdh+vDFGNE3C1Hh7S8c36ZOPvZiGavb64IEbx6PRxWdV9/ymUwwm8wwmy2qn1azBSaTub3N8H0UoAAFKEABClCAAh0QYIDVATy+lQIUoAAFKKClQHP9q+8ubMXmo1+gur5S1cEa0mcsUuJ6ILfoCqrrq7Bw/KuYOnw+wkIiVH0sn8+r/ulxu3Ax/5SqlXXr/jUVypjNZhVYSdH0heNfa1q5FRatQhwTJLzpnMCmsrYU313Yju8ubFPF5Uf1n6DqYV3IO47bJblIjk3FrNFLMX7gDERHaHPqYPPpiBW1pcout+iqWpkmRfFhMsFuDUF0WIyqxSUF7aWYvGzLZD0uLZ96tkUBClCAAhSgAAWaBBhg8UmgAAUoQAEK6ERAAh9ZaXUx/6Q6MTD//g0VTknR9dT4XqiqK4fb48Si7FWYPHSuCqhkFVR+8Q3cLrmB/OKbKCzNQ2l1MRxOx8OQCiqkio1MxOLsVSrAigrr3FVQjc4GyNZBWX3l8jgxa9RiZA2aoVZlSZC279wmnMs9irioJMwYuURtbYyPSu7SoEgs6xy1yLl9Fgcv7sCNwkswmyyqmHxTra4qtZqtobFOrcDqkdAHM0YtVsXtZZUaLwpQgAIUoAAFKEABbQUYYGnrzdYoQAEKUIACHRJQwUtjDXLvXVUF0qXgekRoNBqc9TibexR1DdVYnP0aJgyeDZfbgaNX9mLv2W/VqYNSOL3pJEA5BdAEi8WCiJAo9EkdqEKjMf0nqYLwEuR0xtW0lbAeUndr16mNqKh9gPEDpqvVV0mxaarmlbzm9oNcHDi3CWdvHoXJbMaofhMxdfgCZKQMRJg9XAVInX01OKRf57Dv7LcqvEpP6IPZY17C4F6jYbOFwOlsxLW7F1S41vzfF4x/RRWclxVqvChAAQpQgAIUoAAFtBVggKWtN1ujAAUoQAEKdFhAAiiXx6VWM0n9JlnhdKXgDA5c2IpGRz0WZ69E9uCZMAG4UnAWm46uwY3Ci3B73KrulFR4igqPRf+0IRg7YDIG9xmNxOgUhNokLOr4lkG1Nc/jQmVtOa7ePovjOfshgdG4AVMQGR6jfs8EE0b1n4jMniMRGhKO8poSdQLisat7VRH55LgeGNk3W9Xpki18sipKTjOUMKujhd7F70FVMb6/uE3VDZNr1qgX1OqvmIh4dX+1XbOuHEev7sOes98gISoFC8avwLA+YxFiD+vwHPIGFKAABShAAQpQgAJtE2CA1TYvvpoCFKAABSgQMAISxNQ11uLW/RwcubIXl26dVKuxXpz4hlopZLXaUFxxF99f2I4bhZdVv6UWVU1DNQamD8fMUS9gUM9h6j2dUdepeYujnDBYWJaPS/mnVNF4i8mCSUPmYETfbOTeu6xqcD2ouq+Kxo8fNA2j+k1AQnSKCrxO3zio6qEF3c4AAA+VSURBVGQVlReoLYaJMWnqdbIaq2diBhJj0xATHq9OSWxvkCWr0O6U5GH3mY04df17VddqUdZrmDxsHkLtPxSsl8BPCs+LbWRYFLIGTUd6YobamsmLAhSgAAUoQAEKUEBbAQZY2nqzNQpQgAIUoECnCEh4VVVfiWu3z+H0zUO4WXgV1XUVamvei5NWY/ygqaoIuazOkhCrzlEDh7MRx3P2Ief2efTvMRTzxr2M/mlDYbN2PJCRUEiCq3vlt9XWu6u3z+Hugzy1Yio7cybmjF6qQqort89g6/G1uH73EixmM/qmDVb/bXzmdFjMVtwrv4M9Z77B0Su7VU0v2c4Yag9T2/YSY1LV64f2HouB6cNU8NSeqynAysWu0xtx8vp3CLGGqFMbZRWWBGRy8qBcspJMamDJ1kez2froNMX2Bmft6SvfQwEKUIACFKAABSjQJMAAi08CBShAAQpQQGcCsm2wsrYM5/KOqRVEcoqezWJDbX212monK7DGDpoKm8WutsI11b3yqJpZEh5dvHVShUFSlDx70EwVzHQklJHtgrKiSrYGns89jvzia3C4HIgKi1VB06RhczAofYQK1Eoqi3Di2ne4cfcivD4PUuN6YfSAyWorodViRYOjTvXv8OVdKCwrUFsRZSukxWJVQZYUeh/UcwSyBs5AWkKvds2cnMj4oLJIrfSSAu6yVbB38gBMGbEQY/pPVEFb8yor8VM1w0xyMKFZbX3kRQEKUIACFKAABSigvQADLO3N2SIFKEABClCg3QJerwfl1Q9w8sb3OHJlN2rqqzAgfRjiIhKRe+8KPB4PlkxYhbEDpzyx1U0KuMvphZuOfI7coiuwWu0Y2ns0Zo9eimEZ41U41N7L4WpEQfENnMs9gjsPbqmIJyE6VW3965c2GClx6bDbQtXKJgmkZGWVnPJnsdgQHhKhgqGmoMoMuVd9Yw2qGypRXV8Bp9uhCs7bLFaEWMNU4ff46CR18mJYSEQ7u+xDvaMOl/PPYP+5zbhy+6xqPz0hA2MHTsaYAZPRM6mvKiAvfeNFAQpQgAIUoAAFKND9Agywun8O2AMKUIACFKCAXwJSk6msphgnrh7A/vObUVVbhiF9xmHK8Hlwuhw4cmWPOj1v8cRVGDtgEizmH7YGVtdXqtVG313civqGOrX6SVZdDcsYh3ljl6Nf6mC1yqk9l6xSkqBJQikJoCT4iQiLhtVsg9vjhLTt8XlU7Sq7LQSyAgo+nwqsXO5GFJTk4trd8/j/27vPp6jSLAzgTwdyE0SiAgpIUiQqoGIW8ziG2dodp6bmb9vaL2ONW2PYRdhFZDAgSZooKEFAFJAgsenI1jmI4245s4BYtuPTVVZZ2v3e9/7u/fTUOeeds83CYDQgITIZ27fkwuIfqiHW2MywVj4FB4YjNChMgyyjUWKytVdDaQvm7CSsfbW431qO7hdtemKiBGTSoiinMqbHZ+tQ97W6rMWSv6EABShAAQpQgAIUeL8AAyy+GRSgAAUoQAEvF1gOiEYmh1DbVaWBy9j08NIcq7wL2lLXN9yFSutNOJ12nCm6jJzkoreD2SWskpDoVt0VbeGTdj2ZN9XR34jXcxPISd6Do7nnEBuesC4DymUPM7Yp6bmD2+3SYe5SdZWfWoyosM2699HJIT0VccExj77hJ2jvb8TU3CTiIpNQknseOxN3w8fsi/6RbtR03sbIxHNtdYyPTNZh7jHhcQgJCtfWybV+xHV2YRrdQ22o7azC4/4mjE2PyPArxEUl4UDmSexKO6gnNJpMprVehr+jAAUoQAEKUIACFFgHAQZY64DIJShAAQpQgAIfT0Da3ebRP/pUK6/qn1RjfHoUm8LjUZJ/AQXph/W0vtb+Btxuug6X04mzRd8hJ7lAB6jLZ25hBnVdVahovKbtfMfyziPMEoGW3oeobi3TyqnC9CM4mHUK0RviP2iou8PlwMvxfnS/6MDG4ChEh8ehuadGA7YDWaeRGJOGzsFmVDX/U2dyycwrCbliNsRpeOWBRyuwpI1PBtK73U4Nln5pLUVHvxUuj0vvffuWPOxKPYCtManwNfuumV8Gtcv1R6dewtpdg4auat3rgtOG+IgkHMu/gML0QwgJ3PBBc8LWvEH+kAIUoAAFKEABClBABRhg8UWgAAUoQAEKeLGAtLpJ1dTdtnL80nJLh49LJdKh7DM4nPMVIkJi4HTZ0dJbh9vWG3C5HBpgZScVwmg0wul2ovflY5Q3XEX3UIeGMUdzz2NjSJSue6+tHPfayuBZXNQQqzjzuFY4Savfalv0ZI7UsFSJdVZibGoERRlHtDWxpbdWq7AK0w8jfUsOxqdGUd1SiprHtzFnm0bypgy9ly1R22DtrdVh8Kmbs1CYcUjvz+60oXPQiuqWMp3jJXO/LAHBKMm7iJO7/6Rtfh8yhF4ev1Rjzdtn0DnQou2ZbX0NOvw+Z1sRzu35HonRqTCvw2mNXvyqcWsUoAAFKEABClDAqwUYYHn14+HmKEABClDgSxeQYGVuYRpPnrehpqNCK5ukdfBM0beIj0yC2WjWNryWvnpUWq/rMPKzhd9pC570wr2cGMSd5n/gQXsFzEYTju+6hOLMkwgLCofT7cDQq2e421ama0uIlZ1chOIdJXqNQD/LioMhmWs1MT2K2s47eNhZifiIZJzY/Y1WVsmpgnWdVbonaSOU9kWpvuocaNaB7TKEPj0hW08pfDb8BGUNV/Vkxb3bj2FXyn4EB4VppVbXYCuqW0s1rJNg72ju19ouKfey0gDr7amCEs/JqYKGX+doLVnP4NHT+yit+xEDoz1IjE3D+b0/YGeiDLoP/NJfR94/BShAAQpQgAIU+GQCDLA+GT0vTAEKUIACFFiZgAQrUoU0PPkcL8cHtP1PTvfz8/HXBSTAan3WgEqtwJIWwsvYnpCLV1PDGk49aP83xqaGtTXvTNFfkLNtHyz+wRpwOZ0ODE0MaPhV014Jz6ILSbEZ2J12EFmJBYgMi4bRYP7dgGh5llRzTy0qm65rZdfBrNM4knsOoZaNeDrUjttN1xARHIMjUjUWGg23x6P7lionGfru6+uns6dkVpbch+w5IjQGJfmX9F7klMTZBamQsur/D4334VjuBRzLPa+nEa4kwJJ9vpjoR2tvvQ5rT0/I0TZHqVRb/oifhITXHvxVTymU0wjP7/seWYmFH3Dq4cqeM79FAQpQgAIUoAAFKPDbAgyw+HZQgAIUoAAFPgMBCV88HrcOPjcaDDD7+OrJfEsBlg1t/Q2obLqhp/6dKvgWkaExeirh/bZ/4fXsGGLD47F/50mdGyVtectDyWUGlFNCm6E2XH/wN231kzAoPDgKqZszkZeyD2nxWdq2aDSY3hsUycmD0p4owZLMu5Jw6FThn1G84ziC/EMwPDGIssarGBzpxd4dJchL2aNtf7Ke3MLyfci9SKWVDKovrf1Rw6zdqQdQkn9RgySpmJITDWX4/MBID7KSCpAWn/12WP3/e4xutxtNvTUor/8J4cGROJxzFsmx23VY/LsB1tOhNg2wOgdbsG3Tdny97wcdfO+nbZX8UIACFKAABShAAQp8CgEGWJ9CndekAAUoQAEKrKOABFjtOsT9plZqyeypqdkJHfjudDmQHp+FvJRiJMdmIDRow9vh7stbkPa/qfkJ3Kr9CXesNzA1P6n/FeATiIiwGKTHZWnrn7QVBgeGwWj4tWJJgjUJleq7qnDHehMDr3oQGboJXxVdRmHGEQT6BWHePouHjytRXv93yLVS4zKRuTUfidFpCAmS9ZaGzUuYNmefQX1XNSoaf9b2x9iNCTrrqijjsIZe0jpoc8zD5rDB4m/RyqyVzuoSJxlaX9ZwBX4+ATiw8xTyU/a/CecMuraEZnIiYUXTdQ3TpI3xeP4lRIVt+q9KrXV8fFyKAhSgAAUoQAEKUGAFAgywVoDEr1CAAhSgAAW8VUBCn1nbNJq6a3QwulRDScWU1GYZjWZsjU5BQnQyIkKi4Wv2f28FlYRQDrcdDZ139STDofFnOh9LKr7kI1VUiTGpKEiXtsIiDcHebdlzOO14PtaHxqd3tT1PTj8sybuAvNRibQ/0LLrRP9KN0roraOq+r7O2wi2R2koYFhQBfz8JoaRN0oGZ+UltlRyZHILdsYAA3wDkpuzDiV2XNECTOVlr/UzPT2qVWqX1Jubss9gUnoD0+GwkRCUh0D8Ic7Y5DLzqRtdAC6Ztr5GyeQcOZp/RSrTfslvrXvg7ClCAAhSgAAUoQIHVCTDAWp0Xv00BClCAAhTwKgGZITU8Oaitgg1P7iE4IAQHsk5ja3SqVj+FBIbB1+f9wdW7NyKVUZMzY3g28gQvxgcwM/9aZ1TZXXa4PU74+wTqiYKZibs1ePrfKiwJvMZnRjE42oNZ2wwSY9IQF5EInzcn98mw9sbuB6h49LN+RyrDZA2jyfxmrUVIi5/D7dA2SSwu6vaMRoMOqz+Wd1FPUPyQEwelEqyj/xGs3Q81JJP7k9MWJWQzmkxL13fa9d8k+JN73RKVoo4rmbHlVS8GN0MBClCAAhSgAAX+YAIMsP5gD5S3QwEKUIACX5aAVElJcCSVT13PW2AJCMG+HSe0Ymq1oYtUYkkQJa12TpddTzSUgEzCLZlTJW13sr4Mj3/f2vI9+Z2EUz5mP62WWv6erD02NQJrbw16XnToyYryPbvTrqGRXFeCK7kfqSrTyVgGA0xGo86rktld8kf+vtr7Wn4jZG0JsaTlUUI2aVecX5jV+5XZYSajD4IDQ7DBEomNIZEa/plNvmu+3pf1JvJuKUABClCAAhSgwMcVYID1cX25OgUoQAEKUOAjCyxq8DO3MKuhkHzCgjYi0N/yka+7+uUlDJMASWZLaVi16Ibb7YLDZdd/m7fPaZgl35MeSLPRrNVQUlUmJxJusERoMLYeHx2KL9f3yB7cOv9KgjGzyQemt1Vh63ElrkEBClCAAhSgAAUosB4CDLDWQ5FrUIACFKAABbxAQCuXFgGDHk64dELh5/BZCpM8+keCpDcFWFr1JaGSnD4o7YZrrbz6HAy4RwpQgAIUoAAFKECB3xdggMU3hAIUoAAFKEABClCAAhSgAAUoQAEKUMCrBRhgefXj4eYoQAEKUIACFKAABShAAQpQgAIUoAAFGGDxHaAABShAAQpQgAIUoAAFKEABClCAAhTwagEGWF79eLg5ClCAAhSgAAUoQAEKUIACFKAABShAAQZYfAcoQAEKUIACFKAABShAAQpQgAIUoAAFvFqAAZZXPx5ujgIUoAAFKEABClCAAhSgAAUoQAEKUIABFt8BClCAAhSgAAUoQAEKUIACFKAABShAAa8W+A8n09ZWgSUIoAAAAABJRU5ErkJggg==;" vertex="1" parent="1">
          <mxGeometry x="230" y="280" width="296.91" height="120" as="geometry" />
        </mxCell>
        <mxCell id="fZ_mb3iRuPxJW4_zwdLX-2" value="&lt;font face=&quot;Comic Sans MS&quot;&gt;Policy Network&lt;br&gt;(Actor)&lt;/font&gt;" style="rounded=1;whiteSpace=wrap;html=1;sketch=1;curveFitting=1;jiggle=2;fillColor=#fff2cc;strokeColor=#d6b656;" vertex="1" parent="1">
          <mxGeometry x="140" y="490" width="100" height="50" as="geometry" />
        </mxCell>
        <mxCell id="fZ_mb3iRuPxJW4_zwdLX-3" value="&lt;font face=&quot;Comic Sans MS&quot;&gt;Value Network&lt;br&gt;(Critic)&lt;/font&gt;" style="rounded=1;whiteSpace=wrap;html=1;sketch=1;curveFitting=1;jiggle=2;fillColor=#f8cecc;strokeColor=#b85450;" vertex="1" parent="1">
          <mxGeometry x="310" y="490" width="100" height="50" as="geometry" />
        </mxCell>
        <mxCell id="fZ_mb3iRuPxJW4_zwdLX-4" value="&lt;font face=&quot;Comic Sans MS&quot;&gt;Environment&lt;/font&gt;" style="rounded=1;whiteSpace=wrap;html=1;sketch=1;curveFitting=1;jiggle=2;fillColor=#f5f5f5;strokeColor=#666666;fontColor=#333333;" vertex="1" parent="1">
          <mxGeometry x="470" y="490" width="100" height="50" as="geometry" />
        </mxCell>
        <mxCell id="fZ_mb3iRuPxJW4_zwdLX-5" value="" style="endArrow=classic;html=1;rounded=0;sketch=1;curveFitting=1;jiggle=2;entryX=0.5;entryY=0;entryDx=0;entryDy=0;fillColor=#e1d5e7;strokeColor=#9673a6;" edge="1" parent="1" target="fZ_mb3iRuPxJW4_zwdLX-4">
          <mxGeometry width="50" height="50" relative="1" as="geometry">
            <mxPoint x="180" y="490" as="sourcePoint" />
            <mxPoint x="530" y="450" as="targetPoint" />
            <Array as="points">
              <mxPoint x="180" y="470" />
              <mxPoint x="520" y="470" />
            </Array>
          </mxGeometry>
        </mxCell>
        <mxCell id="fZ_mb3iRuPxJW4_zwdLX-7" value="" style="endArrow=classic;html=1;rounded=0;entryX=0.365;entryY=1.043;entryDx=0;entryDy=0;entryPerimeter=0;sketch=1;curveFitting=1;jiggle=2;fillColor=#d5e8d4;strokeColor=#82b366;" edge="1" parent="1" target="fZ_mb3iRuPxJW4_zwdLX-2">
          <mxGeometry width="50" height="50" relative="1" as="geometry">
            <mxPoint x="520" y="540" as="sourcePoint" />
            <mxPoint x="180" y="560" as="targetPoint" />
            <Array as="points">
              <mxPoint x="520" y="560" />
              <mxPoint x="177" y="560" />
            </Array>
          </mxGeometry>
        </mxCell>
        <mxCell id="fZ_mb3iRuPxJW4_zwdLX-8" value="" style="endArrow=classic;html=1;rounded=0;entryX=1.019;entryY=0.604;entryDx=0;entryDy=0;entryPerimeter=0;sketch=1;curveFitting=1;jiggle=2;" edge="1" parent="1">
          <mxGeometry width="50" height="50" relative="1" as="geometry">
            <mxPoint x="468" y="514" as="sourcePoint" />
            <mxPoint x="409.9000000000001" y="514.1999999999999" as="targetPoint" />
          </mxGeometry>
        </mxCell>
        <mxCell id="fZ_mb3iRuPxJW4_zwdLX-9" value="" style="endArrow=classic;html=1;rounded=0;entryX=1;entryY=0.5;entryDx=0;entryDy=0;sketch=1;curveFitting=1;jiggle=2;" edge="1" parent="1" target="fZ_mb3iRuPxJW4_zwdLX-2">
          <mxGeometry width="50" height="50" relative="1" as="geometry">
            <mxPoint x="309.9999999999999" y="514.68" as="sourcePoint" />
            <mxPoint x="251.9" y="514.8799999999999" as="targetPoint" />
          </mxGeometry>
        </mxCell>
        <mxCell id="fZ_mb3iRuPxJW4_zwdLX-10" value="" style="endArrow=classic;html=1;rounded=0;sketch=1;curveFitting=1;jiggle=2;fillColor=#d5e8d4;strokeColor=#82b366;" edge="1" parent="1">
          <mxGeometry width="50" height="50" relative="1" as="geometry">
            <mxPoint x="359.68" y="560" as="sourcePoint" />
            <mxPoint x="360" y="540" as="targetPoint" />
          </mxGeometry>
        </mxCell>
        <mxCell id="fZ_mb3iRuPxJW4_zwdLX-12" value="&lt;font style=&quot;font-size: 9px;&quot; face=&quot;Comic Sans MS&quot;&gt;Action a&lt;/font&gt;" style="text;strokeColor=none;align=center;fillColor=none;html=1;verticalAlign=middle;whiteSpace=wrap;rounded=0;" vertex="1" parent="1">
          <mxGeometry x="330" y="440" width="60" height="30" as="geometry" />
        </mxCell>
        <mxCell id="fZ_mb3iRuPxJW4_zwdLX-14" value="&lt;font style=&quot;font-size: 9px;&quot; face=&quot;Comic Sans MS&quot;&gt;state s&lt;/font&gt;" style="text;strokeColor=none;align=center;fillColor=none;html=1;verticalAlign=middle;whiteSpace=wrap;rounded=0;" vertex="1" parent="1">
          <mxGeometry x="330" y="555" width="60" height="30" as="geometry" />
        </mxCell>
        <mxCell id="fZ_mb3iRuPxJW4_zwdLX-15" value="&lt;font style=&quot;font-size: 9px;&quot; face=&quot;Comic Sans MS&quot;&gt;reward r&lt;/font&gt;" style="text;strokeColor=none;align=center;fillColor=none;html=1;verticalAlign=middle;whiteSpace=wrap;rounded=0;" vertex="1" parent="1">
          <mxGeometry x="414" y="490" width="60" height="30" as="geometry" />
        </mxCell>
        <mxCell id="fZ_mb3iRuPxJW4_zwdLX-16" value="&lt;font style=&quot;font-size: 9px;&quot; face=&quot;Comic Sans MS&quot;&gt;TD errpr&amp;nbsp;&lt;/font&gt;" style="text;strokeColor=none;align=center;fillColor=none;html=1;verticalAlign=middle;whiteSpace=wrap;rounded=0;" vertex="1" parent="1">
          <mxGeometry x="250" y="490" width="60" height="30" as="geometry" />
        </mxCell>
      </root>
    </mxGraphModel>
  </diagram>
</mxfile>
